<?xml version="1.0" encoding="iso-8859-1"?>
<!-- Generator: Adobe Illustrator 20.1.0, SVG Export Plug-In . SVG Version: 6.00 Build 0)  -->
<svg version="1.1" id="Layer_1" xmlns="http://www.w3.org/2000/svg" xmlns:xlink="http://www.w3.org/1999/xlink" x="0px" y="0px"
	 viewBox="-49 141 512 512" style="enable-background:new -49 141 512 512;" xml:space="preserve">
<path style="fill:#E2E5E7;" d="M79,141c-17.6,0-32,14.4-32,32v448c0,17.6,14.4,32,32,32h320c17.6,0,32-14.4,32-32V269L303,141H79z"
	/>
<path style="fill:#B0B7BD;" d="M335,269h96L303,141v96C303,254.6,317.4,269,335,269z"/>
<polygon style="fill:#CAD1D8;" points="431,365 335,269 431,269 "/>
<path style="fill:#6376E3;" d="M367,557c0,8.8-7.2,16-16,16H-1c-8.8,0-16-7.2-16-16V397c0-8.8,7.2-16,16-16h352c8.8,0,16,7.2,16,16
	V557z"/>
<g>
	<path style="fill:#FFFFFF;" d="M92.968,444.152c0-10.752,16.896-10.752,16.896,0v50.528c0,20.096-9.6,32.256-31.728,32.256
		c-10.88,0-19.952-2.96-27.888-13.184c-6.528-7.808,5.76-19.056,12.416-10.88c5.376,6.656,11.136,8.192,16.752,7.936
		c7.152-0.256,13.44-3.472,13.568-16.128v-50.528H92.968z"/>
	<path style="fill:#FFFFFF;" d="M132.344,444.152c0-4.224,3.328-8.832,8.704-8.832H170.6c16.64,0,31.616,11.136,31.616,32.48
		c0,20.224-14.976,31.488-31.616,31.488h-21.36v16.896c0,5.632-3.584,8.816-8.192,8.816c-4.224,0-8.704-3.184-8.704-8.816
		L132.344,444.152L132.344,444.152z M149.24,451.432v31.872h21.36c8.576,0,15.36-7.568,15.36-15.504
		c0-8.944-6.784-16.368-15.36-16.368H149.24z"/>
	<path style="fill:#FFFFFF;" d="M293.576,515.16c-9.088,7.552-20.224,10.752-31.472,10.752c-26.88,0-45.936-15.344-45.936-45.808
		c0-25.824,20.096-45.904,47.072-45.904c10.112,0,21.232,3.44,29.168,11.248c7.792,7.664-3.456,19.056-11.12,12.288
		c-4.736-4.608-11.392-8.064-18.048-8.064c-15.472,0-30.432,12.4-30.432,30.432c0,18.944,12.528,30.464,29.296,30.464
		c7.792,0,14.448-2.32,19.184-5.76V489.08h-19.184c-11.392,0-10.24-15.616,0-15.616h25.584c4.736,0,9.072,3.584,9.072,7.552v27.248
		C296.76,510.568,295.752,512.712,293.576,515.16z"/>
</g>
<path style="fill:#CAD1D8;" d="M351,573H47v16h304c8.8,0,16-7.2,16-16v-16C367,565.8,359.8,573,351,573z"/>
</svg>
