<?xml version="1.0" encoding="iso-8859-1"?>
<!-- Generator: Adobe Illustrator 20.1.0, SVG Export Plug-In . SVG Version: 6.00 Build 0)  -->
<svg version="1.1" id="&#x421;&#x43B;&#x43E;&#x439;_1"
	 xmlns="http://www.w3.org/2000/svg" xmlns:xlink="http://www.w3.org/1999/xlink" x="0px" y="0px" viewBox="0 0 43.973 44.937"
	 style="enable-background:new 0 0 43.973 44.937;" xml:space="preserve">
<g>
	<g>
		<defs>
			<rect id="SVGID_1_" y="0.057" width="43.92" height="44.88"/>
		</defs>
		<clipPath id="SVGID_2_">
			<use xlink:href="#SVGID_1_"  style="overflow:visible;"/>
		</clipPath>
		<path style="clip-path:url(#SVGID_2_);" d="M40.938,3.04c-4.055-4.055-10.653-4.051-14.708,0l-7.355,7.355
			c-0.625,0.625-0.625,1.637,0,2.262c0.625,0.625,1.637,0.625,2.262,0l7.355-7.355c1.352-1.352,3.16-2.098,5.09-2.098
			c1.93,0,3.738,0.746,5.09,2.101c1.355,1.352,2.098,3.161,2.098,5.09c0,1.93-0.743,3.739-2.098,5.09l-9.613,9.617
			c-2.809,2.809-7.375,2.809-10.184,0c-0.625-0.625-1.637-0.625-2.262,0c-0.625,0.625-0.625,1.641,0,2.262
			c2.028,2.027,4.688,3.043,7.352,3.043c2.664,0,5.328-1.016,7.355-3.043l9.618-9.613c1.957-1.957,3.035-4.571,3.035-7.356
			C43.973,7.61,42.895,4.997,40.938,3.04L40.938,3.04z M40.938,3.04"/>
	</g>
	<path d="M21.703,32.458L15.48,38.68c-1.351,1.352-3.16,2.098-5.089,2.098c-1.93,0-3.739-0.746-5.094-2.098
		c-2.805-2.808-2.805-7.378,0-10.183l9.051-9.051c1.355-1.351,3.164-2.098,5.093-2.098c1.93,0,3.739,0.747,5.09,2.098
		c0.625,0.625,1.637,0.625,2.262,0c0.625-0.625,0.625-1.641,0-2.262c-4.055-4.054-10.652-4.054-14.707,0l-9.051,9.051
		C1.078,28.192,0,30.802,0,33.587s1.078,5.398,3.035,7.355s4.57,3.035,7.356,3.035c2.781,0,5.394-1.078,7.351-3.035l6.223-6.222
		c0.625-0.625,0.625-1.637,0-2.262C23.34,31.833,22.328,31.833,21.703,32.458L21.703,32.458z M21.703,32.458"/>
</g>
</svg>
