<?xml version="1.0" encoding="iso-8859-1"?>
<!-- Generator: Adobe Illustrator 20.1.0, SVG Export Plug-In . SVG Version: 6.00 Build 0)  -->
<svg version="1.1" id="&#x421;&#x43B;&#x43E;&#x439;_1"
	 xmlns="http://www.w3.org/2000/svg" xmlns:xlink="http://www.w3.org/1999/xlink" x="0px" y="0px" viewBox="0 0 40.551 40.528"
	 style="enable-background:new 0 0 40.551 40.528;" xml:space="preserve">
<path d="M38.932,12.372c-2.137-4.984-5.769-8.61-10.797-10.753C25.624,0.548,22.992,0,20.243,0c-2.75,0-5.362,0.543-7.871,1.619
	C7.388,3.758,3.739,7.379,1.596,12.372C0.524,14.873,0,17.493,0,20.243c0,2.749,0.524,5.391,1.596,7.892
	c2.143,4.993,5.792,8.638,10.777,10.777c2.508,1.076,5.12,1.616,7.871,1.616c2.749,0,5.382-0.545,7.892-1.616
	c5.026-2.143,8.658-5.792,10.797-10.777c1.076-2.508,1.619-5.143,1.619-7.892C40.551,17.493,40.01,14.88,38.932,12.372
	L38.932,12.372z M35.696,29.2c-1.591,2.73-3.771,4.896-6.52,6.497c-2.728,1.592-5.719,2.395-8.934,2.395
	c-2.416,0-4.723-0.466-6.917-1.42c-2.196-0.954-4.09-2.206-5.676-3.79c-1.584-1.586-2.848-3.498-3.79-5.7
	c-0.942-2.189-1.397-4.522-1.397-6.938c0-3.215,0.79-6.191,2.372-8.912C6.423,8.599,8.603,6.43,11.33,4.834
	c2.725-1.596,5.698-2.395,8.912-2.395c3.215,0,6.203,0.804,8.934,2.395c2.746,1.601,4.921,3.769,6.52,6.497
	c1.596,2.726,2.393,5.698,2.393,8.912C38.089,23.458,37.297,26.453,35.696,29.2L35.696,29.2z M35.696,29.2"/>
<path d="M20.275,20.014V8.529c0-0.688-0.598-1.243-1.284-1.243c-0.644,0-1.219,0.555-1.219,1.243v11.663
	c0,0.021,0.044,0.111,0.044,0.176c-0.044,0.4,0.067,0.733,0.332,1l6.628,6.628c0.443,0.443,1.266,0.443,1.707,0
	c0.51-0.511,0.478-1.25,0-1.73L20.275,20.014z M20.275,20.014"/>
</svg>
