<?xml version="1.0" encoding="iso-8859-1"?>
<!-- Generator: Adobe Illustrator 20.1.0, SVG Export Plug-In . SVG Version: 6.00 Build 0)  -->
<svg version="1.1" id="&#x421;&#x43B;&#x43E;&#x439;_1"
	 xmlns="http://www.w3.org/2000/svg" xmlns:xlink="http://www.w3.org/1999/xlink" x="0px" y="0px" viewBox="0 0 25.602 20.801"
	 style="enable-background:new 0 0 25.602 20.801;" xml:space="preserve">
<path style="fill:#7452AC;" d="M22.398,3.199V0H0v17.602c0,0,0,3.199,3.199,3.199h20c0,0,2.403-0.051,2.403-3.199V3.199H22.398z
	 M3.199,19.199c-1.597,0-1.597-1.597-1.597-1.597v-16h19.199v16c0,0.734,0.226,1.246,0.539,1.597H3.199z M3.199,19.199"/>
<rect x="3.199" y="4.801" style="fill:#6376E3;" width="16" height="1.598"/>
<rect x="12" y="14.398" style="fill:#6376E3;" width="5.602" height="1.602"/>
<rect x="12" y="11.199" style="fill:#6376E3;" width="7.199" height="1.602"/>
<rect x="12" y="8" style="fill:#6376E3;" width="7.199" height="1.602"/>
<rect x="3.199" y="8" style="fill:#FFD42B;" width="7.199" height="8"/>
</svg>
