<?xml version="1.0" encoding="iso-8859-1"?>
<!-- Generator: Adobe Illustrator 20.1.0, SVG Export Plug-In . SVG Version: 6.00 Build 0)  -->
<svg version="1.1" id="&#x421;&#x43B;&#x43E;&#x439;_1"
	 xmlns="http://www.w3.org/2000/svg" xmlns:xlink="http://www.w3.org/1999/xlink" x="0px" y="0px" viewBox="0 0 218.02 158.039"
	 style="enable-background:new 0 0 218.02 158.039;" xml:space="preserve">
<g>
	<path d="M154.609,64.457c-0.703,0-1.421,0.102-2.144,0.301L144.328,67l-8.449-20.586c-2.395-5.832-9.469-10.574-15.774-10.574
		H41.027c-6.304,0-13.379,4.742-15.773,10.574l-8.438,20.555l-8.039-2.211c-0.718-0.199-1.437-0.301-2.14-0.301
		C2.793,64.457,0,67.395,0,71.441v4.797c0,4.727,3.844,8.571,8.57,8.571h0.922l-1.367,3.324c-2.223,5.414-4.031,14.59-4.031,20.445
		v40.891c0,4.726,3.844,8.57,8.566,8.57h11.195c4.723,0,8.567-3.844,8.567-8.57v-10.211h96.285v10.211c0,4.726,3.848,8.57,8.57,8.57
		h11.192c4.726,0,8.57-3.844,8.57-8.57v-40.891c0-5.855-1.812-15.027-4.035-20.445l-1.363-3.324h1.035
		c4.722,0,8.57-3.844,8.57-8.567v-4.797C161.246,67.398,158.453,64.457,154.609,64.457L154.609,64.457z M22.957,80.156
		l12.785-31.133c1.43-3.488,5.688-6.343,9.457-6.343h70.735c3.769,0,8.027,2.851,9.457,6.343l12.785,31.133
		c1.429,3.489-0.485,6.344-4.254,6.344H27.211C23.441,86.496,21.527,83.645,22.957,80.156L22.957,80.156z M51.492,119.539
		c0,1.883-1.543,3.426-3.426,3.426H23.781c-1.883,0-3.426-1.543-3.426-3.426v-11.652c0-1.887,1.543-3.43,3.426-3.43h24.285
		c1.883,0,3.426,1.543,3.426,3.43V119.539z M140.547,119.539c0,1.883-1.543,3.426-3.426,3.426H112.84
		c-1.887,0-3.43-1.543-3.43-3.426v-11.652c0-1.887,1.543-3.43,3.43-3.43h24.281c1.883,0,3.426,1.543,3.426,3.43V119.539z
		 M140.547,119.539"/>
	<path d="M207.301,0h-40.59c-5.91,0-10.719,4.809-10.719,10.719v40.59c0,5.91,4.809,10.718,10.719,10.718h16.293v91.098
		c0,2.207,1.793,4,4,4c2.211,0,4-1.793,4-4V62.027h16.297c5.91,0,10.719-4.808,10.719-10.718v-40.59
		C218.02,4.809,213.211,0,207.301,0L207.301,0z M198.105,33.652c-2.332,2.102-5.769,3.168-10.218,3.168h-5.875
		c-0.707,0-1.282,0.575-1.282,1.282v9.91c0,1.078-0.875,1.953-1.953,1.953h-4.449c-1.078,0-1.953-0.875-1.953-1.953V14.016
		c0-1.079,0.875-1.954,1.953-1.954h11.211c7.43,0,10.199,1.122,12.481,3.055c2.402,2.039,3.621,5.16,3.621,9.285
		C201.637,28.43,200.453,31.539,198.105,33.652L198.105,33.652z M198.105,33.652"/>
	<path d="M191.746,20.27c-1.086-0.817-3.004-1.235-5.703-1.235h-4.031c-0.707,0-1.282,0.574-1.282,1.281v8.145
		c0,0.703,0.575,1.277,1.282,1.277h2.414c0.886,0,2.32-0.062,3.195-0.144c0.848-0.078,3.246-0.426,4.125-1.09
		c1.055-0.797,1.59-2.18,1.59-4.102C193.336,22.461,192.801,21.07,191.746,20.27L191.746,20.27z M191.746,20.27"/>
</g>
</svg>
