<?xml version="1.0" encoding="iso-8859-1"?>
<!-- Generator: Adobe Illustrator 20.1.0, SVG Export Plug-In . SVG Version: 6.00 Build 0)  -->
<svg version="1.1" id="&#x421;&#x43B;&#x43E;&#x439;_1"
	 xmlns="http://www.w3.org/2000/svg" xmlns:xlink="http://www.w3.org/1999/xlink" x="0px" y="0px" viewBox="0 0 40.801 43.92"
	 style="enable-background:new 0 0 40.801 43.92;" xml:space="preserve">
<g>
	<g>
		<defs>
			<rect id="SVGID_1_" width="40.801" height="43.92"/>
		</defs>
		<clipPath id="SVGID_2_">
			<use xlink:href="#SVGID_1_"  style="overflow:visible;"/>
		</clipPath>
		<path style="clip-path:url(#SVGID_2_);" d="M10.547,42.959c-2.828,0-5.48-1.094-7.465-3.082C1.094,37.892,0,35.24,0,32.412
			c0-2.828,1.094-5.477,3.082-7.465L24.918,3.112c3.121-3.122,7.977-2.981,11.289,0.332c3.313,3.312,3.457,8.164,0.332,11.289
			L16.027,35.248c-1.926,1.926-5.062,1.926-6.992,0c-1.926-1.93-1.926-5.066,0-6.992L22.93,14.362c0.469-0.469,1.231-0.469,1.699,0
			c0.469,0.468,0.469,1.226,0,1.695L10.734,29.955c-0.992,0.988-0.992,2.602,0,3.594c0.992,0.992,2.606,0.992,3.594,0l20.516-20.512
			c2.156-2.156,2.012-5.55-0.332-7.898c-2.348-2.344-5.742-2.484-7.898-0.328L4.777,26.646c-1.531,1.531-2.379,3.582-2.379,5.766
			c0,2.188,0.848,4.234,2.379,5.77c1.535,1.535,3.582,2.379,5.769,2.379s4.234-0.844,5.77-2.379l21.836-21.835
			c0.469-0.469,1.227-0.469,1.695,0c0.469,0.469,0.469,1.227,0,1.695L18.012,39.877C16.027,41.865,13.375,42.959,10.547,42.959
			L10.547,42.959z M10.547,42.959"/>
	</g>
</g>
</svg>
