<?xml version="1.0" encoding="iso-8859-1"?>
<!-- Generator: Adobe Illustrator 20.1.0, SVG Export Plug-In . SVG Version: 6.00 Build 0)  -->
<svg version="1.1" id="Capa_1" xmlns="http://www.w3.org/2000/svg" xmlns:xlink="http://www.w3.org/1999/xlink" x="0px" y="0px"
	 viewBox="25.073 220.156 364.065 353.644" style="enable-background:new 25.073 220.156 364.065 353.644;" xml:space="preserve">
<path d="M375,353.48c0,0,0-0.48-0.48-0.64l-18.48-14.8v-55.6c0-7.776-6.304-14.08-14.08-14.08h-72.8l-58.48-46.88
	c-2.196-1.766-5.324-1.766-7.52,0l-58.48,46.88h-72.8c-7.776,0-14.08,6.304-14.08,14.08l0,0v55.52l-18.48,14.8
	c-0.206,0.225-0.393,0.465-0.56,0.72l0,0c-9.054,11.099-13.899,25.038-13.68,39.36V517.8c0,27.04,14.72,56,56,56h252
	c27.04,0,56-14.72,56-56V392.84c0.665-14.509-4.391-28.7-14.08-39.52V353.48z M360.76,357l-4.64,3.28v-7.04L360.76,357z M207,233.96
	l42.96,34.48h-85.92L207,233.96z M71.96,280.44h270.08c1.105,0,2,0.895,2,2v86.4L207,464.36L69.96,368.84v-86.4
	C69.96,281.335,70.855,280.44,71.96,280.44z M57.88,353.4v7.04L53.24,357L57.88,353.4z M37,392.76
	c-0.072-9.528,2.503-18.89,7.44-27.04l120,83.76L42.36,541c-3.546-7.276-5.379-15.266-5.36-23.36V392.76z M80.92,561.64
	c-11.511,0.707-22.828-3.209-31.44-10.88l125.52-94L203.56,477h0.48h0.56c0.753,0.351,1.57,0.541,2.4,0.56l0,0
	c0.83-0.019,1.647-0.209,2.4-0.56h0.56h0.48l28-19.52l125.52,93.76c-8.755,6.99-19.679,10.697-30.88,10.48L80.92,561.64z
	 M376.92,517.72c0.252,8.332-1.62,16.591-5.44,24l-122.64-91.84l120.72-84.16c5.173,8.073,7.743,17.539,7.36,27.12V517.72z"/>
<path d="M108.84,319.32h132c3.336,0,6.04-2.704,6.04-6.04s-2.704-6.04-6.04-6.04h-132c-3.336,0-6.04,2.704-6.04,6.04
	S105.504,319.32,108.84,319.32z"/>
<path d="M108.84,363.48h196.32c3.336,0,6.04-2.704,6.04-6.04c0-3.336-2.704-6.04-6.04-6.04H108.84c-3.336,0-6.04,2.704-6.04,6.04
	C102.8,360.776,105.504,363.48,108.84,363.48z"/>
</svg>
