<?xml version="1.0" encoding="iso-8859-1"?>
<!-- Generator: Adobe Illustrator 20.1.0, SVG Export Plug-In . SVG Version: 6.00 Build 0)  -->
<svg version="1.1" id="&#x421;&#x43B;&#x43E;&#x439;_1"
	 xmlns="http://www.w3.org/2000/svg" xmlns:xlink="http://www.w3.org/1999/xlink" x="0px" y="0px" viewBox="0 0 47.998 48"
	 style="enable-background:new 0 0 47.998 48;" xml:space="preserve">
<path d="M34.073,0H13.921c-1.941,0-3.524,1.582-3.524,3.523v40.955c0,1.939,1.582,3.521,3.524,3.521h20.152
	c1.945,0,3.523-1.582,3.523-3.521V3.523C37.597,1.582,36.018,0,34.073,0L34.073,0z M11.999,6.398h24v30.402h-24V6.398z
	 M13.921,1.603h20.152c1.062,0,1.926,0.863,1.926,1.921v1.278h-24V3.523C11.999,2.466,12.862,1.603,13.921,1.603L13.921,1.603z
	 M34.073,46.398H13.921c-1.059,0-1.922-0.863-1.922-1.92v-6.08h24v6.08C35.999,45.535,35.136,46.398,34.073,46.398L34.073,46.398z
	 M34.073,46.398"/>
<path d="M23.999,39.199c-1.766,0-3.199,1.438-3.199,3.199c0,1.766,1.434,3.205,3.199,3.205s3.199-1.439,3.199-3.205
	C27.198,40.637,25.765,39.199,23.999,39.199L23.999,39.199z M23.999,44c-0.883,0-1.602-0.719-1.602-1.602
	c0-0.877,0.719-1.598,1.602-1.598c0.883,0,1.598,0.721,1.598,1.598C25.597,43.281,24.882,44,23.999,44L23.999,44z M23.999,44"/>
<path d="M20.8,4h3.199C24.44,4,24.8,3.642,24.8,3.199c0-0.44-0.359-0.801-0.801-0.801H20.8c-0.445,0-0.801,0.36-0.801,0.801
	C19.999,3.642,20.354,4,20.8,4L20.8,4z M20.8,4"/>
<path d="M26.397,4h0.801c0.441,0,0.801-0.358,0.801-0.801c0-0.44-0.359-0.801-0.801-0.801h-0.801c-0.441,0-0.801,0.36-0.801,0.801
	C25.597,3.642,25.956,4,26.397,4L26.397,4z M26.397,4"/>
<path d="M45.288,3.656c-0.313-0.311-0.82-0.311-1.133,0c-0.313,0.314-0.313,0.817,0,1.129c2.988,2.988,2.988,7.853,0,10.845
	c-0.313,0.312-0.313,0.816,0,1.129c0.156,0.155,0.363,0.233,0.567,0.233c0.207,0,0.41-0.078,0.566-0.233
	C48.901,13.148,48.901,7.271,45.288,3.656L45.288,3.656z M45.288,3.656"/>
<path d="M41.921,5.478c-0.316-0.314-0.82-0.314-1.133,0c-0.313,0.311-0.313,0.815,0,1.128c0.988,0.993,1.535,2.309,1.535,3.715
	c0,1.403-0.547,2.719-1.535,3.707c-0.313,0.313-0.313,0.821,0,1.133c0.156,0.156,0.359,0.235,0.566,0.235
	c0.203,0,0.41-0.079,0.566-0.235c1.289-1.293,2-3.012,2-4.84C43.921,8.488,43.21,6.767,41.921,5.478L41.921,5.478z M41.921,5.478"/>
<path d="M3.839,4.785c0.313-0.311,0.313-0.815,0-1.129c-0.313-0.311-0.816-0.311-1.129,0c-3.613,3.614-3.613,9.489,0,13.103
	c0.156,0.155,0.359,0.233,0.563,0.233c0.207,0,0.41-0.078,0.566-0.233c0.313-0.313,0.313-0.817,0-1.129
	C0.851,12.642,0.851,7.777,3.839,4.785L3.839,4.785z M3.839,4.785"/>
<path d="M7.21,5.255c-0.313-0.313-0.82-0.313-1.133,0c-1.293,1.293-2.004,3.012-2.004,4.844c0,1.828,0.711,3.55,2.004,4.841
	c0.156,0.155,0.359,0.233,0.566,0.233c0.203,0,0.41-0.078,0.566-0.233c0.313-0.314,0.313-0.818,0-1.13
	c-0.992-0.989-1.535-2.31-1.535-3.711c0-1.403,0.543-2.724,1.535-3.711C7.522,6.074,7.522,5.566,7.21,5.255L7.21,5.255z M7.21,5.255
	"/>
</svg>
