<?xml version="1.0" encoding="iso-8859-1"?>
<!-- Generator: Adobe Illustrator 20.1.0, SVG Export Plug-In . SVG Version: 6.00 Build 0)  -->
<svg version="1.1" id="&#x421;&#x43B;&#x43E;&#x439;_1"
	 xmlns="http://www.w3.org/2000/svg" xmlns:xlink="http://www.w3.org/1999/xlink" x="0px" y="0px" viewBox="0 0 16.445 22.368"
	 style="enable-background:new 0 0 16.445 22.368;" xml:space="preserve">
<path style="fill:none;stroke-miterlimit:10;" d="M8.225,0.5L8.225,0.5C3.951,0.5,0.5,3.951,0.5,8.224
	c0,1.487,0.474,2.911,1.139,4.079l5.034,8.712c0.314,0.569,0.953,0.854,1.552,0.854c0.601,0,1.202-0.284,1.554-0.854l5.028-8.706
	c0.668-1.171,1.139-2.568,1.139-4.082C15.945,3.954,12.494,0.5,8.225,0.5L8.225,0.5z M8.225,10.501
	c-1.552,0-2.818-1.266-2.818-2.817c0-1.554,1.267-2.82,2.818-2.82c1.554,0,2.817,1.267,2.817,2.82
	C11.042,9.238,9.778,10.501,8.225,10.501L8.225,10.501z M8.225,10.501"/>
</svg>
