<?xml version="1.0" encoding="iso-8859-1"?>
<!-- Generator: Adobe Illustrator 20.1.0, SVG Export Plug-In . SVG Version: 6.00 Build 0)  -->
<svg version="1.1" id="Capa_1" xmlns="http://www.w3.org/2000/svg" xmlns:xlink="http://www.w3.org/1999/xlink" x="0px" y="0px"
	 viewBox="-49 141 512 512" style="enable-background:new -49 141 512 512;" xml:space="preserve">
<circle style="fill:#6376E3;" cx="207" cy="397" r="256"/>
<path style="fill:#7452AC;" d="M463,397c0-11.464-0.766-22.748-2.226-33.812L355.41,257.823L207,204.553l-148.41,53.27v170.34
	c0,39.502,7.897,66.239,33.747,91.31l132.905,132.873C358.112,642.989,463,532.25,463,397z"/>
<path style="fill:#FFD42B;" d="M342.91,266.613c0,0,0,96.93,0,161.55c0,64.61-20.28,91.22-135.91,146.34
	c-115.62-55.12-135.91-81.73-135.91-146.34c0-64.62,0-161.55,0-161.55L207,217.833L342.91,266.613z"/>
<path style="fill:#FFAA20;" d="M342.906,266.613c0,0,0,96.93,0,161.55c0,64.58-20.26,91.19-135.74,146.26v-356.53L342.906,266.613z"
	/>
<rect x="188.19" y="293.51" style="fill:#77767E;" width="37.617" height="134.9"/>
<rect x="207.17" y="293.5" style="fill:#3A383F;" width="18.64" height="134.91"/>
<circle style="fill:#77767E;" cx="207" cy="470.07" r="24.756"/>
<path style="fill:#3A383F;" d="M231.757,470.073c0,13.61-10.99,24.67-24.59,24.76v-49.52
	C220.767,445.404,231.757,456.464,231.757,470.073z"/>
<path style="fill:#FFFFFF;" d="M207,204.553l-148.41,53.27v170.34c0,72.72,26.74,102.18,143.04,157.62l5.37,2.56l5.38-2.56
	c116.3-55.44,143.03-84.9,143.03-157.62v-170.34L207,204.553z M330.41,428.163c0,57.03-15.51,80.54-123.41,132.48
	c-107.89-51.94-123.41-75.45-123.41-132.48v-152.76L207,231.113l123.41,44.29V428.163z"/>
<path style="fill:#FFEE93;" d="M207.167,204.613v26.56l123.24,44.23v152.76c0,57-15.49,80.52-123.24,132.4v27.7l5.21-2.48
	c116.3-55.44,143.03-84.9,143.03-157.62v-170.34L207.167,204.613z"/>
</svg>
