<?xml version="1.0" encoding="iso-8859-1"?>
<!-- Generator: Adobe Illustrator 20.1.0, SVG Export Plug-In . SVG Version: 6.00 Build 0)  -->
<svg version="1.1" id="&#x421;&#x43B;&#x43E;&#x439;_1"
	 xmlns="http://www.w3.org/2000/svg" xmlns:xlink="http://www.w3.org/1999/xlink" x="0px" y="0px" viewBox="0 0 82.63 60.662"
	 style="enable-background:new 0 0 82.63 60.662;" xml:space="preserve">
<g>
	<path style="fill:#0B0B0A;" d="M71.82,29.471c0.174,0.087,0.357,0.129,0.54,0.129c0.443,0,0.874-0.242,1.084-0.668
		c0.297-0.6,0.055-1.327-0.54-1.624c-2.813-1.405-8.084-1.423-8.308-1.423c-0.668,0-1.212,0.544-1.212,1.212
		c0,0.668,0.544,1.208,1.212,1.208C65.955,28.305,69.908,28.515,71.82,29.471L71.82,29.471z"/>
	<path style="fill:#0B0B0A;" d="M68.205,42.537c0.092,0.004,0.183,0.004,0.279,0.004c0.915,0,1.812-0.137,2.667-0.402v0.485
		c0,0.242,0.032,0.48,0.087,0.709l-2.758,2.759l-2.749-2.75c0.05-0.215,0.078-0.453,0.078-0.718v-0.508
		C66.568,42.362,67.373,42.514,68.205,42.537L68.205,42.537z M61.925,33.24v-2.264c0-0.189-0.046-0.371-0.128-0.54l-0.746-1.496
		c-0.275-0.549-0.421-1.162-0.421-1.775v-0.068c0-2.9,2.36-5.261,5.261-5.261h10.435v5.027c0,0.81-0.188,1.624-0.554,2.352
		l-0.608,1.222c-0.087,0.169-0.128,0.352-0.128,0.54v2.589c0,1.789-0.71,3.459-1.99,4.708c-1.286,1.244-2.978,1.898-4.767,1.843
		C64.774,40.012,61.925,36.928,61.925,33.24L61.925,33.24z M46.375,47.111c-0.005,0.01-0.019,0.032-0.06,0.037
		c-0.041,0.004-0.06-0.014-0.069-0.023l-3.028-3.028l5.709-3.902l1.212,1.271L46.375,47.111z M36.416,47.125
		c-0.009,0.01-0.028,0.027-0.069,0.023c-0.036-0.005-0.055-0.027-0.059-0.037l-3.765-5.646l1.212-1.271l5.709,3.902L36.416,47.125z
		 M40.391,37.335c0.321,0.019,0.636,0.032,0.952,0.032c2.314,0,4.542-0.554,6.542-1.605v2.209l-6.551,4.483l-6.556-4.483v-2.255
		C36.47,36.631,38.374,37.203,40.391,37.335L40.391,37.335z M29.599,22.769v-3.001c0-0.183-0.041-0.365-0.119-0.525
		c-0.778-1.615-1.175-3.326-1.175-5.088v-2.589c0-5.042,4.103-9.146,9.145-9.146h16.908v11.734c0,1.762-0.394,3.473-1.176,5.088
		c-0.078,0.16-0.119,0.343-0.119,0.525v3.445c0,3.275-1.317,6.318-3.71,8.56c-0.297,0.283-0.608,0.544-0.929,0.787
		c-0.009,0.004-0.014,0.013-0.023,0.018c-2.242,1.701-4.986,2.525-7.855,2.342C34.407,34.521,29.599,29.183,29.599,22.769
		L29.599,22.769z M11.016,45.68l-1.125-1.07c0.192-0.357,0.297-0.76,0.297-1.186v-1.29c0.842,0.266,1.739,0.407,2.672,0.407
		c0.929,0,1.825-0.142,2.671-0.402v1.285c0,0.426,0.105,0.828,0.293,1.186l-1.125,1.07C13.669,46.659,12.05,46.659,11.016,45.68
		L11.016,45.68z M3.879,39.906c0.334-0.86,0.544-1.853,0.691-2.896c0.668,1.6,1.784,2.964,3.193,3.938v1.455
		C5.503,41.585,4.365,40.501,3.879,39.906L3.879,39.906z M5.005,29.769c0.156-2.173,1.024-4.177,2.448-5.641
		c1.436-1.478,3.357-2.292,5.407-2.292c2.049,0,3.966,0.814,5.403,2.292c1.423,1.464,2.292,3.468,2.447,5.641
		c0.05,0.677,0.073,1.459,0.101,2.292c0.004,0.073,0.004,0.146,0.009,0.215c-1.317-2.027-3.349-3.522-5.979-4.364
		c-2.429-0.782-4.516-0.733-4.602-0.733c-0.32,0.01-0.617,0.143-0.837,0.371l-2.187,2.265c-0.462,0.479-0.448,1.249,0.032,1.711
		c0.48,0.467,1.249,0.448,1.711-0.032l1.816-1.885c1.565,0.077,6.602,0.663,8.56,4.978c-0.494,3.175-3.225,5.535-6.473,5.535
		c-3.614,0-6.556-2.941-6.556-6.556c0-0.668-0.54-1.208-1.208-1.208c-0.068,0-0.137,0.005-0.201,0.015
		c0.005-0.102,0.009-0.206,0.009-0.311C4.932,31.228,4.959,30.445,5.005,29.769L5.005,29.769z M17.952,42.404v-1.441
		c1.409-0.97,2.53-2.333,3.198-3.948c0.142,1.043,0.357,2.031,0.686,2.892C21.355,40.496,20.211,41.59,17.952,42.404L17.952,42.404z
		 M78.938,44.541l-5-1.428c-0.215-0.065-0.366-0.261-0.366-0.489v-1.666c0.407-0.283,0.796-0.599,1.157-0.951
		c1.757-1.706,2.727-3.994,2.727-6.441v-2.301l0.48-0.966c0.53-1.062,0.814-2.25,0.814-3.436v-6.24c0-0.668-0.544-1.207-1.212-1.207
		H65.891c-4.236,0-7.681,3.444-7.681,7.681v0.068c0,0.988,0.233,1.977,0.672,2.86l0.622,1.239v1.976
		c0,3.135,1.542,5.943,3.879,7.636l0.005,1.748c0,0.27,0,0.384-1.002,0.667l-2.438,0.7l-7.054-2.566
		c0.023-0.333-0.087-0.672-0.334-0.929l-2.251-2.369v-3.976c0.238-0.197,0.471-0.398,0.7-0.613
		c2.845-2.662,4.474-6.428,4.474-10.325v-3.175c0.86-1.871,1.294-3.848,1.294-5.884V1.212c0-0.668-0.54-1.212-1.212-1.212H37.45
		c-6.377,0-11.565,5.188-11.565,11.565v2.589c0,2.036,0.434,4.013,1.294,5.884v2.731c0,4.524,2.013,8.601,5.179,11.291v4.067
		l-2.255,2.369c-0.242,0.257-0.357,0.596-0.329,0.929l-7.448,2.708c-0.54,0.197-1.043,0.463-1.496,0.782l-1.171-0.585
		c3.481-1.514,4.583-3.646,4.639-3.752c0.169-0.338,0.169-0.74,0-1.084c-0.874-1.742-0.979-4.94-1.066-7.512
		c-0.027-0.855-0.055-1.665-0.105-2.383c-0.412-5.806-4.826-10.184-10.266-10.184c-5.439,0-9.854,4.378-10.266,10.184
		c-0.055,0.718-0.078,1.527-0.11,2.383c-0.083,2.571-0.188,5.77-1.062,7.512c-0.169,0.344-0.169,0.741,0,1.084
		c0.055,0.106,1.153,2.233,4.644,3.752l-3.253,1.624C1.08,46.823,0,48.566,0,50.506v8.944c0,0.668,0.544,1.212,1.212,1.212
		c0.668,0,1.208-0.544,1.208-1.212v-8.944c0-1.016,0.567-1.931,1.478-2.388l4.044-2.022l1.409,1.336
		c0.983,0.938,2.246,1.404,3.509,1.404s2.525-0.471,3.509-1.404l1.404-1.336l1.318,0.659c-0.618,0.992-0.97,2.159-0.97,3.381v9.314
		c0,0.668,0.54,1.212,1.208,1.212s1.212-0.544,1.212-1.212v-9.314c0-1.661,1.047-3.161,2.612-3.729l7.851-2.854l3.267,4.904
		c0.42,0.626,1.088,1.029,1.839,1.103c0.083,0.009,0.165,0.009,0.251,0.009c0.659,0,1.295-0.257,1.766-0.732l1.995-1.994V59.45
		c0,0.668,0.539,1.212,1.212,1.212c0.668,0,1.208-0.544,1.208-1.212V46.842l1.995,1.994c0.471,0.476,1.107,0.736,1.771,0.736
		c0.083,0,0.165-0.004,0.247-0.013c0.75-0.073,1.418-0.477,1.839-1.103l3.267-4.904l7.855,2.854c1.56,0.567,2.608,2.067,2.608,3.729
		v9.314c0,0.668,0.545,1.212,1.212,1.212c0.668,0,1.208-0.544,1.208-1.212v-9.314c0-1.684-0.668-3.263-1.789-4.429l0.297-0.087
		c0.302-0.087,0.714-0.201,1.13-0.407l3.088,3.093V59.45c0,0.668,0.545,1.212,1.212,1.212c0.668,0,1.208-0.544,1.208-1.212V48.306
		l3.07-3.069c0.165,0.082,0.334,0.15,0.517,0.205l5.001,1.428c1.139,0.324,1.936,1.381,1.936,2.566V59.45
		c0,0.668,0.544,1.212,1.212,1.212c0.668,0,1.208-0.544,1.208-1.212V49.436C82.63,47.176,81.111,45.163,78.938,44.541L78.938,44.541
		z"/>
	<path style="fill:#0B0B0A;" d="M76.244,50.474c-0.668,0-1.207,0.545-1.207,1.213v7.764c0,0.668,0.54,1.212,1.207,1.212
		c0.668,0,1.212-0.544,1.212-1.212v-7.764C77.456,51.019,76.912,50.474,76.244,50.474L76.244,50.474z"/>
	<path style="fill:#0B0B0A;" d="M6.386,52.075c-0.668,0-1.207,0.54-1.207,1.208v6.167c0,0.668,0.54,1.212,1.207,1.212
		s1.212-0.544,1.212-1.212v-6.167C7.599,52.615,7.054,52.075,6.386,52.075L6.386,52.075z"/>
	<path style="fill:#0B0B0A;" d="M33.483,13.953c0-0.041,0.028-0.077,0.064-0.082c1.56-0.233,4.653-0.6,7.864-0.385
		c3.774,0.252,6.505,1.199,8.125,2.818c0.471,0.471,1.24,0.471,1.711,0c0.471-0.476,0.471-1.24,0-1.711
		c-4.58-4.579-14.154-3.706-18.062-3.115c-1.23,0.183-2.123,1.226-2.123,2.475v2.791c0,0.668,0.54,1.207,1.208,1.207
		s1.212-0.539,1.212-1.207V13.953z"/>
	<path style="fill:#0B0B0A;" d="M27.097,53.063c-0.668,0-1.212,0.54-1.212,1.213v5.174c0,0.668,0.544,1.212,1.212,1.212
		c0.668,0,1.208-0.544,1.208-1.212v-5.174C28.305,53.604,27.765,53.063,27.097,53.063L27.097,53.063z"/>
	<path style="fill:#0B0B0A;" d="M55.565,53.063c-0.668,0-1.208,0.54-1.208,1.213v5.174c0,0.668,0.54,1.212,1.208,1.212
		c0.672,0,1.212-0.544,1.212-1.212v-5.174C56.778,53.604,56.238,53.063,55.565,53.063L55.565,53.063z"/>
</g>
</svg>
