<?xml version="1.0" encoding="iso-8859-1"?>
<!-- Generator: Adobe Illustrator 20.1.0, SVG Export Plug-In . SVG Version: 6.00 Build 0)  -->
<svg version="1.1" id="&#x421;&#x43B;&#x43E;&#x439;_1"
	 xmlns="http://www.w3.org/2000/svg" xmlns:xlink="http://www.w3.org/1999/xlink" x="0px" y="0px" viewBox="0 0 496 496"
	 style="enable-background:new 0 0 496 496;" xml:space="preserve">
<g>
	<path d="M264,352h-12.184c-0.726-2.047-1.543-4.055-2.464-6.039l12.304-12.305c3.129-3.129,3.129-8.183,0-11.312l-24-24
		c-3-3-8.312-3-11.312,0l-12.305,12.304c-1.984-0.906-4-1.738-6.039-2.464V296c0-4.426-3.586-8-8-8h-32c-4.414,0-8,3.574-8,8v12.168
		c-2.062,0.727-4.09,1.543-6.062,2.449l-12.282-12.273c-3.129-3.129-8.183-3.129-11.312,0l-24,24C104.84,323.84,104,325.871,104,328
		c0,2.129,0.84,4.16,2.344,5.656l12.281,12.282c-0.906,1.964-1.723,3.992-2.449,6.062H104c-4.414,0-8,3.574-8,8v32
		c0,4.426,3.586,8,8,8h12.184c0.726,2.047,1.543,4.055,2.464,6.039l-12.304,12.305c-3.129,3.129-3.129,8.183,0,11.312l24,24
		c3,3,8.312,3,11.312,0l12.305-12.304c1.984,0.906,4,1.738,6.039,2.464V456c0,4.426,3.586,8,8,8h32c4.414,0,8-3.574,8-8v-12.168
		c2.062-0.727,4.09-1.543,6.062-2.449l12.282,12.273c3.129,3.129,8.183,3.129,11.312,0l24-24C263.16,428.16,264,426.129,264,424
		c0-2.129-0.84-4.16-2.344-5.656l-12.281-12.282c0.906-1.964,1.723-3.992,2.449-6.062H264c4.414,0,8-3.574,8-8v-32
		C272,355.574,268.414,352,264,352L264,352z M256,384h-10.098c-3.644,0-6.832,2.473-7.742,6c-1.25,4.848-3.105,9.441-5.504,13.648
		c-1.785,3.137-1.258,7.071,1.297,9.618L244.688,424L232,436.688l-10.734-10.735c-2.547-2.547-6.481-3.074-9.618-1.297
		c-4.207,2.399-8.8,4.246-13.648,5.504c-3.535,0.918-6,4.098-6,7.742V448h-16v-10.098c0-3.644-2.465-6.832-5.992-7.742
		c-4.719-1.222-9.305-3.098-13.633-5.543c-3.129-1.793-7.07-1.242-9.605,1.293L136,436.688L123.312,424l10.766-10.777
		c2.547-2.543,3.082-6.489,1.297-9.614c-2.465-4.312-4.32-8.89-5.535-13.601c-0.902-3.535-4.098-6.008-7.742-6.008H112v-16h10.098
		c3.644,0,6.832-2.473,7.742-6c1.25-4.848,3.105-9.441,5.504-13.648c1.785-3.137,1.258-7.071-1.297-9.618L123.312,328L136,315.312
		l10.734,10.735c2.547,2.539,6.481,3.082,9.618,1.297c4.207-2.399,8.8-4.246,13.648-5.504c3.527-0.91,6-4.098,6-7.742V304h16v10.098
		c0,3.644,2.465,6.832,5.992,7.742c4.719,1.222,9.305,3.098,13.633,5.543c3.117,1.785,7.063,1.242,9.605-1.293L232,315.312
		L244.688,328l-10.766,10.777c-2.547,2.543-3.082,6.489-1.297,9.614c2.465,4.312,4.32,8.89,5.535,13.601
		c0.902,3.535,4.098,6.008,7.742,6.008H256V384z M256,384"/>
	<path d="M184,336c-22.055,0-40,17.945-40,40c0,22.055,17.945,40,40,40s40-17.945,40-40C224,353.945,206.055,336,184,336L184,336z
		 M184,400c-13.23,0-24-10.77-24-24c0-13.23,10.77-24,24-24c13.23,0,24,10.77,24,24C208,389.23,197.23,400,184,400L184,400z
		 M184,400"/>
	<path d="M493.656,66.344L429.664,2.352C428.207,0.895,426.207,0,424,0H200c-4.414,0-8,3.586-8,8v104h-72c-17.648,0-32,14.352-32,32
		v48H8c-4.414,0-8,3.586-8,8v288c0,4.426,3.586,8,8,8h352c4.414,0,8-3.574,8-8v-72h120c4.414,0,8-3.574,8-8V72
		C496,69.793,495.105,67.793,493.656,66.344L493.656,66.344z M432,27.312L468.688,64H432V27.312z M104,144c0-8.824,7.176-16,16-16
		h128c8.824,0,16,7.176,16,16v48h-16v-40c0-4.414-3.586-8-8-8H128c-4.414,0-8,3.586-8,8v40h-16V144z M296,240h-32
		c-4.414,0-8,3.586-8,8v8H112v-8c0-4.414-3.586-8-8-8H72c-4.414,0-8,3.586-8,8v8h-4.688L48,244.688V208h272v36.688L308.688,256H304
		v-8C304,243.586,300.414,240,296,240L296,240z M288,256v32h-16v-32H288z M96,256v32H80v-32H96z M232,192h-24v-32h24V192z M192,192
		h-56v-32h56V192z M352,480H16V208h16v40c0,2.121,0.84,4.16,2.344,5.656l16,16C51.84,271.16,53.879,272,56,272h8v24
		c0,4.426,3.586,8,8,8h32c4.414,0,8-3.574,8-8v-24h144v24c0,4.426,3.586,8,8,8h32c4.414,0,8-3.574,8-8v-24h8
		c2.121,0,4.16-0.84,5.656-2.344l16-16C335.16,252.16,336,250.121,336,248v-40h16V480z M480,400H368V200c0-4.414-3.586-8-8-8h-80
		v-48c0-17.648-14.352-32-32-32h-40V16h208v56c0,4.414,3.586,8,8,8h56V400z M480,400"/>
	<path d="M400,88V40c0-4.414-3.586-8-8-8H232c-4.414,0-8,3.586-8,8v48c0,4.414,3.586,8,8,8h160C396.414,96,400,92.414,400,88L400,88
		z M384,80H240V48h144V80z M384,80"/>
	<rect x="296" y="112" width="168" height="16"/>
	<rect x="296" y="144" width="168" height="16"/>
	<rect x="384" y="176" width="80" height="16"/>
	<rect x="384" y="208" width="80" height="16"/>
	<rect x="384" y="240" width="80" height="16"/>
	<rect x="384" y="272" width="80" height="16"/>
	<rect x="384" y="304" width="80" height="16"/>
	<rect x="384" y="336" width="80" height="16"/>
	<rect x="384" y="368" width="80" height="16"/>
</g>
</svg>
