<?xml version="1.0" encoding="iso-8859-1"?>
<!-- Generator: Adobe Illustrator 20.1.0, SVG Export Plug-In . SVG Version: 6.00 Build 0)  -->
<svg version="1.1" id="Capa_1" xmlns="http://www.w3.org/2000/svg" xmlns:xlink="http://www.w3.org/1999/xlink" x="0px" y="0px"
	 viewBox="-49 141 512 512" style="enable-background:new -49 141 512 512;" xml:space="preserve">
<path d="M359,349c-10.137,0.031-19.158,6.439-22.526,16H287v-32h32c4.417,0.001,7.999-3.579,8-7.996c0-0.001,0-0.003,0-0.004
	v-33.474c12.497-4.418,19.047-18.13,14.629-30.628c-4.418-12.497-18.13-19.047-30.628-14.629
	c-12.497,4.418-19.047,18.131-14.629,30.628c2.416,6.835,7.793,12.212,14.628,14.629V317h-24v-16c0.001-4.417-3.579-7.999-7.996-8
	c-0.001,0-0.003,0-0.004,0h-16v-41.474c12.497-4.418,19.047-18.13,14.629-30.628c-4.418-12.497-18.13-19.047-30.628-14.629
	c-12.497,4.418-19.047,18.13-14.629,30.628c2.416,6.835,7.793,12.212,14.628,14.629V293h-32V165.281
	c0.001-4.417-3.579-7.999-7.996-8c-0.001,0-0.003,0-0.004,0c-98.691,0-176,71.453-176,162.664
	c0,43.328,17.199,100.695,44.891,149.703c4.973,8.797,11.461,18.047,18.328,27.844c14.521,20.699,30.681,43.976,32.438,64.238
	c-6.15,4.347-9.749,11.458-9.61,18.988c0.023,5.409,1.891,10.649,5.295,14.853c-4.735,4.672-7.383,11.058-7.342,17.71
	c0.014,13.249,10.751,23.986,24,24h136c13.339-0.083,24.086-10.963,24.003-24.302c-0.001-0.087-0.002-0.174-0.003-0.261
	c-0.005-6.507-2.664-12.73-7.363-17.232c3.448-4.366,5.321-9.768,5.316-15.331c-0.024-12.671-10.315-22.923-22.986-22.899
	c-0.338,0.001-0.676,0.009-1.014,0.024H215V405h16v24c-0.001,4.417,3.579,7.999,7.996,8c0.001,0,0.003,0,0.004,0h24v9.474
	c-12.497,4.418-19.046,18.131-14.627,30.627c4.418,12.497,18.131,19.046,30.627,14.627c12.497-4.418,19.046-18.131,14.627-30.627
	c-2.416-6.835-7.793-12.211-14.627-14.627V429c0.001-4.417-3.579-7.999-7.996-8c-0.001,0-0.003,0-0.004,0h-24v-16h32
	c4.417,0.001,7.999-3.579,8-7.996c0-0.001,0-0.003,0-0.004v-16h49.475c4.442,12.464,18.146,18.967,30.61,14.525
	c12.464-4.442,18.967-18.146,14.525-30.61C378.204,355.358,369.146,348.982,359,349z M319,261c4.418,0,8,3.582,8,8s-3.582,8-8,8
	s-8-3.582-8-8C311.004,264.584,314.584,261.004,319,261z M107.32,488.305c-6.641-9.469-12.91-18.406-17.5-26.531
	C63.809,415.734,47,360.063,47,319.945c0-79.781,66.137-142.797,152-146.492v55.888c-2.124,0.159-4.291,0.352-6.609,0.636
	c-3.396,0.413-6.153,2.941-6.859,6.289l-2.438,11.594c-2.008,0.477-4.011,1.016-6.008,1.617l-7.973-8.891
	c-2.284-2.555-5.942-3.369-9.094-2.023c-8.954,3.861-17.405,8.796-25.168,14.695c-2.733,2.061-3.852,5.631-2.785,8.883l3.672,11.188
	c-1.512,1.422-2.984,2.898-4.41,4.406l-11.176-3.672c-3.251-1.053-6.813,0.062-8.883,2.781c-5.907,7.765-10.846,16.22-14.707,25.18
	c-1.344,3.152-0.53,6.809,2.023,9.094l8.895,7.969c-0.598,1.977-1.133,3.958-1.605,5.945l-12.441,2.484
	c-3.74,0.746-6.433,4.03-6.433,7.844v27.281c0,3.814,2.693,7.098,6.434,7.844l12.441,2.484c0.473,1.984,1.008,3.966,1.605,5.945
	l-8.898,7.969c-2.55,2.287-3.363,5.942-2.023,9.094c3.862,8.959,8.8,17.415,14.707,25.18c2.068,2.722,5.632,3.837,8.883,2.781
	l11.176-3.672c1.43,1.508,2.898,2.984,4.41,4.406l-3.672,11.172c-1.066,3.251,0.051,6.82,2.781,8.883
	c7.763,5.908,16.218,10.848,25.176,14.711c3.152,1.338,6.806,0.525,9.094-2.023l7.973-8.891c1.996,0.602,3.999,1.141,6.008,1.617
	l2.434,11.586c0.703,3.351,3.461,5.883,6.859,6.297c2.321,0.284,4.489,0.477,6.613,0.636v88.622h-56.69
	C139.041,533.705,122.341,509.721,107.32,488.305z M135,349c0.051,36.644,27.587,67.419,64,71.528v27.511l-1.324-6.297
	c-0.668-3.189-3.203-5.655-6.41-6.234c-4.742-0.863-9.404-2.12-13.937-3.758c-0.869-0.309-1.785-0.467-2.707-0.469
	c-2.274,0-4.441,0.969-5.957,2.664l-7.523,8.391c-4.169-2.083-8.192-4.446-12.043-7.07l3.473-10.57
	c1.017-3.098,0.054-6.502-2.434-8.609c-3.689-3.123-7.114-6.546-10.238-10.234c-2.113-2.471-5.506-3.427-8.598-2.422l-10.566,3.477
	c-2.626-3.852-4.989-7.877-7.074-12.047l8.398-7.523c2.422-2.175,3.288-5.599,2.191-8.664c-1.636-4.534-2.893-9.196-3.758-13.937
	c-0.584-3.233-3.086-5.78-6.309-6.422L103,356.078v-14.156l11.184-2.234c3.222-0.641,5.725-3.189,6.309-6.422
	c0.865-4.744,2.122-9.409,3.757-13.946c1.099-3.066,0.231-6.491-2.195-8.664l-8.391-7.515c2.087-4.168,4.449-8.193,7.07-12.047
	l10.57,3.477c3.092,1.004,6.484,0.049,8.598-2.422c3.132-3.691,6.559-7.121,10.246-10.258c2.478-2.103,3.436-5.498,2.422-8.586
	l-3.469-10.57c3.851-2.623,7.873-4.985,12.039-7.07l7.523,8.391c2.176,2.42,5.598,3.287,8.664,2.195
	c4.533-1.639,9.195-2.896,13.937-3.758c3.206-0.576,5.741-3.039,6.41-6.227l1.324-6.297v27.503
	C162.587,281.581,135.051,312.356,135,349z M199,293.639v110.722c-30.575-4.377-51.813-32.712-47.436-63.287
	C155.085,316.481,174.407,297.159,199,293.639z M275,621.281H139c-4.499-0.076-8.085-3.785-8.009-8.284
	c0.002-0.093,0.005-0.186,0.009-0.279c0.004-4.417,3.584-7.996,8-8h136c4.499,0.076,8.085,3.785,8.009,8.284
	c-0.002,0.093-0.005,0.186-0.009,0.279C282.996,617.698,279.416,621.277,275,621.281z M272.953,573.281
	c4.03-0.371,7.599,2.595,7.97,6.625c0.025,0.27,0.035,0.541,0.03,0.813c-0.004,4.416-3.584,7.996-8,8H141.047
	c-4.499-0.076-8.085-3.785-8.009-8.284c0.002-0.093,0.005-0.186,0.009-0.279c0.171-3.988,3.543-7.082,7.531-6.91
	c0.157,0.007,0.313,0.019,0.469,0.035H272.953z M271,461c4.418,0,8,3.582,8,8s-3.582,8-8,8s-8-3.582-8-8
	C263.004,464.584,266.584,461.004,271,461z M255,221c4.418,0,8,3.582,8,8s-3.582,8-8,8s-8-3.582-8-8
	C247.004,224.584,250.584,221.004,255,221z M271,389h-56v-80h56V389z M359,381c-4.418,0-8-3.582-8-8s3.582-8,8-8s8,3.582,8,8
	C366.996,377.416,363.416,380.996,359,381z"/>
<path d="M276.68,538.594l14.875,5.891c1.906-4.73,4.112-9.333,6.605-13.781l-14.008-7.734
	C281.331,528.012,278.835,533.231,276.68,538.594z"/>
<path d="M315.281,503.93l-13.133-9.141c-3.144,4.516-6.281,9.109-9.281,13.75l13.43,8.688
	C309.203,512.742,312.238,508.305,315.281,503.93z"/>
<path d="M333.887,476.688l-13.539-8.516c-2.699,4.281-5.707,8.711-8.859,13.258l13.141,9.125
	C327.93,485.805,331.07,481.172,333.887,476.688z"/>
<path d="M349.797,447.18l-14.438-6.891c-2.293,4.797-4.69,9.539-7.191,14.227l14.109,7.547
	C344.895,457.164,347.401,452.203,349.797,447.18z"/>
<path d="M362.832,416.555l-14.977-5.625c-1.859,4.945-3.84,9.898-5.934,14.812l14.727,6.266
	C358.828,426.875,360.889,421.724,362.832,416.555z"/>
<path d="M382.324,335.367c0.449-5.32,0.676-10.508,0.676-15.422l-0.008-1.594l-16,0.125l0.008,1.469
	c0,4.461-0.207,9.203-0.621,14.078L382.324,335.367z"/>
<path d="M363.34,287.938c1.169,5.001,2.058,10.064,2.664,15.164l15.891-1.891c-0.679-5.689-1.673-11.335-2.977-16.914
	L363.34,287.938z"/>
<path d="M353.035,258.969c2.249,4.621,4.242,9.363,5.969,14.203l15.07-5.359c-1.922-5.401-4.144-10.69-6.656-15.844L353.035,258.969
	z"/>
<path d="M336.586,232.953c3.202,4.032,6.188,8.23,8.945,12.578l13.523-8.547c-3.063-4.834-6.38-9.502-9.938-13.984L336.586,232.953z
	"/>
<path d="M314.945,210.914c3.977,3.29,7.783,6.782,11.402,10.461l11.406-11.219c-4.005-4.069-8.214-7.931-12.613-11.57
	L314.945,210.914z"/>
<path d="M311.449,188.344c-4.676-3.141-9.59-6.109-14.613-8.828l-7.609,14.078c4.57,2.469,9.043,5.172,13.293,8.031L311.449,188.344
	z"/>
<path d="M281.469,172.156c-5.152-2.195-10.535-4.18-15.992-5.914l-4.844,15.25c4.984,1.578,9.887,3.391,14.578,5.383
	L281.469,172.156z"/>
<path d="M249.047,161.828c-5.488-1.211-11.129-2.195-16.762-2.93l-2.047,15.875c5.16,0.664,10.324,1.562,15.348,2.68
	L249.047,161.828z"/>
<rect x="-17" y="589" width="16" height="16"/>
<rect x="-17" y="621" width="16" height="16"/>
<rect x="-1" y="605" width="16" height="16"/>
<rect x="-33" y="605" width="16" height="16"/>
<rect x="423" y="157" width="16" height="16"/>
<rect x="423" y="189" width="16" height="16"/>
<rect x="439" y="173" width="16" height="16"/>
<rect x="407" y="173" width="16" height="16"/>
</svg>
