<?xml version="1.0" encoding="iso-8859-1"?>
<!-- Generator: Adobe Illustrator 20.1.0, SVG Export Plug-In . SVG Version: 6.00 Build 0)  -->
<svg version="1.1" id="&#x421;&#x43B;&#x43E;&#x439;_1"
	 xmlns="http://www.w3.org/2000/svg" xmlns:xlink="http://www.w3.org/1999/xlink" x="0px" y="0px" viewBox="0 0 392.238 220.801"
	 style="enable-background:new 0 0 392.238 220.801;" xml:space="preserve">
<g>
	<path d="M307.84,62.398h6.48c10.641,0,19.2,8.641,19.2,19.204v30.16c0,1.918-0.961,3.679-2.559,4.718
		c-2.242,1.442-3.52,3.918-3.52,6.559v29.039c0,3.602,2,6.723,5.2,8.32c3.757,1.84,23.281,11.68,41.359,26.563
		c1.52,1.277,2.398,3.117,2.398,5.199v20.641c0,4.398,3.524,7.918,7.922,7.918c4.399,0,7.918-3.52,7.918-7.918V192.16
		c0-6.801-2.957-13.121-8.238-17.441c-15.922-13.117-32.961-22.559-40.801-26.641v-21.359c3.84-4,6.082-9.278,6.082-14.957v-30.16
		c0-19.364-15.761-35.043-35.043-35.043h-6.476c-19.364,0-35.043,15.761-35.043,35.043v30.16c0,5.679,2.242,10.957,6.082,14.957
		v10.32c0,4.402,3.519,7.922,7.918,7.922c4.402,0,7.922-3.52,7.922-7.922v-13.918c0-2.641-1.36-5.121-3.52-6.562
		c-1.601-1.039-2.562-2.797-2.562-4.719V81.68C288.559,71.039,297.199,62.398,307.84,62.398L307.84,62.398z M307.84,62.398"/>
	<path d="M8.238,174.801C3.039,179.121,0,185.441,0,192.238v20.641c0,4.402,3.52,7.922,7.922,7.922
		c4.398,0,7.918-3.52,7.918-7.922v-20.641c0-2,0.879-3.918,2.398-5.199C36.32,172.238,55.84,162.32,59.602,160.48
		c3.199-1.601,5.199-4.718,5.199-8.32v-29.039c0-2.641-1.36-5.121-3.52-6.562c-1.601-1.039-2.562-2.797-2.562-4.719V81.68
		c0-10.641,8.64-19.2,19.203-19.2h6.476c10.641,0,19.204,8.641,19.204,19.2v30.16c0,1.922-0.961,3.68-2.563,4.719
		c-2.238,1.441-3.519,3.921-3.519,6.562v14.559c0,4.398,3.519,7.922,7.921,7.922c4.399,0,7.918-3.524,7.918-7.922v-10.879
		c3.84-4,6.082-9.281,6.082-14.961V81.68c0-19.36-15.761-35.039-35.043-35.039h-6.476c-19.363,0-35.043,15.757-35.043,35.039v30.16
		c0,5.68,2.242,10.961,6.082,14.961v21.359C41.199,152.238,24.16,161.762,8.238,174.801L8.238,174.801z M8.238,174.801"/>
	<path d="M291.359,220.801c4.403,0,7.922-3.52,7.922-7.922V186.16c0-8.082-3.519-15.601-9.761-20.719
		c-21.36-17.601-44.239-30.082-53.598-34.882V100.48c4.957-4.8,7.84-11.359,7.84-18.402V43.039C243.762,19.281,224.398,0,200.719,0
		h-8.399c-23.761,0-43.039,19.359-43.039,43.039v39.039c0,7.043,2.879,13.602,7.84,18.402v30.079
		c-9.359,4.8-32.242,17.281-53.601,34.882c-6.239,5.118-9.758,12.637-9.758,20.719v26.719c0,4.402,3.519,7.922,7.918,7.922
		c4.398,0,7.922-3.52,7.922-7.922V186.16c0-3.281,1.437-6.398,4-8.48c23.597-19.36,49.117-32.239,54-34.641
		c3.359-1.598,5.437-4.961,5.437-8.641V96.801c0-2.641-1.359-5.121-3.519-6.563c-2.719-1.84-4.321-4.797-4.321-8.078V43.121
		c0-15.043,12.242-27.199,27.199-27.199h8.403C215.84,15.922,228,28.16,228,43.121V82.16c0,3.199-1.602,6.238-4.32,8.078
		c-2.239,1.442-3.52,3.922-3.52,6.563v37.597c0,3.68,2.078,7.043,5.442,8.723c4.878,2.399,30.398,15.277,54,34.641
		c2.558,2.078,4,5.199,4,8.476v26.723C283.441,217.281,286.961,220.801,291.359,220.801L291.359,220.801z M291.359,220.801"/>
</g>
</svg>
