<?xml version="1.0" encoding="iso-8859-1"?>
<!-- Generator: Adobe Illustrator 20.1.0, SVG Export Plug-In . SVG Version: 6.00 Build 0)  -->
<svg version="1.1" id="&#x421;&#x43B;&#x43E;&#x439;_1"
	 xmlns="http://www.w3.org/2000/svg" xmlns:xlink="http://www.w3.org/1999/xlink" x="0px" y="0px" viewBox="0 0 391.92 259.92"
	 style="enable-background:new 0 0 391.92 259.92;" xml:space="preserve">
<path  d="M0.789,134.48c0.961,1.922,2.559,3.359,4.559,4l50.082,17.199c0.879,0.321,1.679,0.403,2.558,0.403
	c3.282,0,6.403-2.082,7.52-5.364l39.281-114.636l2,0.718c10.16,3.602,21.52,2.961,31.199-1.761l4.883-2.399
	c5.84-2.801,12.637-3.281,18.719-1.121l91.359,31.52c-0.961,3.519-2.801,7.601-6,9.839c-3.679,2.563-9.359,2.563-16.801,0l-40.96-14
	c-2.079-0.718-4.399-0.476-6.317,0.563c-1.922,1.039-3.363,2.879-3.922,4.961c-0.078,0.238-5.84,21.359-23.601,30.879
	c-11.2,6-25.2,6.16-41.598,0.558c-4.16-1.437-8.641,0.801-10.082,4.961c-1.438,4.161,0.801,8.641,4.961,10.078
	c9.601,3.282,18.719,4.961,27.199,4.961c9.84,0,18.883-2.238,27.121-6.64c16-8.641,24.481-23.52,28.399-32.719L224.949,88
	c12.481,4.242,22.879,3.601,30.961-2c12.719-8.801,13.598-26,13.68-27.918c0.078-3.442-2.082-6.563-5.36-7.762l-97.601-33.68
	c-10.078-3.441-21.281-2.801-30.879,1.918l-4.879,2.403c-5.922,2.878-12.801,3.281-18.961,1.121l-8.082-2.883
	c-0.48-0.321-0.957-0.559-1.519-0.719L52.469,1.121c-4.16-1.442-8.641,0.8-10.078,4.961l-42,122.398
	C-0.25,130.402-0.09,132.558,0.789,134.48L0.789,134.48z M54.871,18.64l35.039,12L53.109,138.082l-35.039-12L54.871,18.64z
	 M54.871,18.64"/>
<path  d="M83.27,207.039c3.918,8,11.757,12.64,20.078,12.961c0,3.441,0.8,6.961,2.32,10.16
	c2.723,5.601,7.441,9.761,13.359,11.761c2.481,0.879,5.043,1.278,7.524,1.278c3.519,0,6.957-0.797,10.16-2.399l4.16-2.082
	c0.317,2.403,1.039,4.883,2.156,7.203c2.723,5.598,7.442,9.758,13.364,11.758c2.48,0.879,5.039,1.282,7.519,1.282
	c3.52,0,6.961-0.801,10.16-2.403L265.027,212c20.321-9.918,39.043-22.719,55.684-38l20.316-18.641l46.481-22.719
	c3.922-1.922,5.519-6.64,3.601-10.558L334.469,5.839c-0.961-1.918-2.559-3.359-4.559-4c-2-0.718-4.16-0.558-6.082,0.403
	l-47.519,23.277c-3.918,1.922-5.52,6.641-3.598,10.563l54.238,110.879l-16.801,15.441c-15.519,14.238-33.039,26.156-51.918,35.437
	l-90.96,44.563c-1.762,0.879-3.762,0.957-5.68,0.316c-1.84-0.636-3.36-2-4.242-3.757c-0.879-1.762-0.957-3.762-0.321-5.68
	c0.641-1.84,2-3.36,3.762-4.242l50.879-24.879c3.922-1.918,5.52-6.641,3.602-10.559c-1.922-3.922-6.641-5.519-10.559-3.601
	l-50.883,24.878l-24,11.762c-1.758,0.879-3.758,0.961-5.68,0.321c-1.839-0.641-3.359-2-4.238-3.762
	c-0.883-1.758-0.961-3.758-0.32-5.68c0.64-1.84,2-3.359,3.758-4.238l72.961-35.68c3.921-1.922,5.519-6.64,3.601-10.562
	c-1.922-3.918-6.64-5.52-10.562-3.598l-82,40.078c-3.68,1.762-8.078,0.242-9.918-3.359c-0.879-1.758-0.961-3.758-0.321-5.68
	c0.641-1.84,2-3.359,3.762-4.238l32.317-15.84l42-20.563c3.921-1.918,5.523-6.64,3.601-10.558c-1.918-3.922-6.641-5.52-10.559-3.602
	l-65.359,32c-3.683,1.762-8.082,0.242-9.922-3.359c-1.761-3.68-0.238-8.078,3.36-9.918l34.718-16.961
	c3.922-1.922,5.524-6.641,3.602-10.563c-1.918-3.917-6.641-5.519-10.559-3.597l-34.722,16.961
	c-11.52,5.597-16.321,19.597-10.637,31.117c1.598,3.281,3.84,5.922,6.559,8.082C80.469,189.921,79.348,199.121,83.27,207.039
	L83.27,207.039z M290.391,36.242l33.277-16.321l49.922,102l-33.281,16.321L290.391,36.242z M290.391,36.242"/>
<rect style="fill:none;" width="391.92" height="259.92"/>
</svg>
