<?xml version="1.0" encoding="iso-8859-1"?>
<!-- Generator: Adobe Illustrator 20.1.0, SVG Export Plug-In . SVG Version: 6.00 Build 0)  -->
<svg version="1.1" id="&#x421;&#x43B;&#x43E;&#x439;_1"
	 xmlns="http://www.w3.org/2000/svg" xmlns:xlink="http://www.w3.org/1999/xlink" x="0px" y="0px" viewBox="0 0 237.598 181.524"
	 style="enable-background:new 0 0 237.598 181.524;" xml:space="preserve">
<g>
	<path d="M36.344,0h-0.02c-2.246,0-4.359,0.875-5.957,2.469c-1.613,1.609-2.5,3.753-2.5,6.035v127.492
		c0,4.676,3.817,8.488,8.512,8.5c19.789,0.047,52.949,4.172,75.82,28.109V39.18c0-1.586-0.402-3.075-1.168-4.305
		C92.258,4.64,56.18,0.047,36.344,0L36.344,0z M36.344,0"/>
	<path d="M209.734,135.996V8.504c0-2.282-0.89-4.426-2.504-6.035C205.637,0.875,203.52,0,201.273,0h-0.019
		c-19.832,0.047-55.91,4.64-74.684,34.875c-0.765,1.23-1.168,2.719-1.168,4.305v133.421c22.871-23.933,56.028-28.058,75.821-28.105
		C205.914,144.48,209.734,140.668,209.734,135.996L209.734,135.996z M209.734,135.996"/>
	<path d="M229.098,29.402h-6.164v106.594c0,11.937-9.727,21.668-21.68,21.699c-16.789,0.039-44.465,3.324-64.066,21.875
		c33.902-8.301,69.64-2.906,90.007,1.738c2.543,0.579,5.172-0.019,7.207-1.644c2.032-1.621,3.196-4.043,3.196-6.641V37.902
		C237.602,33.215,233.785,29.402,229.098,29.402L229.098,29.402z M229.098,29.402"/>
	<path d="M14.664,135.996V29.402H8.5c-4.688,0-8.5,3.813-8.5,8.5v135.117c0,2.602,1.164,5.024,3.195,6.641
		c2.035,1.625,4.66,2.227,7.207,1.645c20.371-4.641,56.11-10.04,90.012-1.739c-19.602-18.551-47.281-21.832-64.066-21.871
		C24.391,157.664,14.664,147.933,14.664,135.996L14.664,135.996z M14.664,135.996"/>
</g>
</svg>
