<?xml version="1.0" encoding="iso-8859-1"?>
<!-- Generator: Adobe Illustrator 20.1.0, SVG Export Plug-In . SVG Version: 6.00 Build 0)  -->
<svg version="1.1" id="&#x421;&#x43B;&#x43E;&#x439;_1"
	 xmlns="http://www.w3.org/2000/svg" xmlns:xlink="http://www.w3.org/1999/xlink" x="0px" y="0px" viewBox="0 0 252 320"
	 style="enable-background:new 0 0 252 320;" xml:space="preserve">
<g>
	<g>
		<defs>
			<rect id="SVGID_1_" x="0" y="0.079" width="252" height="319.921"/>
		</defs>
		<clipPath id="SVGID_2_">
			<use xlink:href="#SVGID_1_"  style="overflow:visible;"/>
		</clipPath>
		<path style="clip-path:url(#SVGID_2_);" d="M199.863,189.293l-34.25-22.215c4.395-12.531,3.403-26.531-2.965-38.406l28.094-25.098
			c15.434,9.625,36,7.747,49.414-5.668c15.617-15.617,15.617-40.937,0-56.558c-15.617-15.613-40.937-15.613-56.554,0
			c-12.301,12.305-14.907,30.621-7.829,45.48l-28.097,25.102c-13.453-9.309-30.606-10.934-45.352-4.863L69.926,62.481
			c11.621-15.258,10.476-37.137-3.465-51.078c-15.203-15.204-39.856-15.204-55.059,0c-15.203,15.203-15.203,39.855,0,55.058
			c10.918,10.914,26.7,13.992,40.364,9.235l32.402,44.589c-16,18.77-15.148,46.985,2.594,64.727c0.34,0.34,0.691,0.66,1.043,0.992
			L56.41,241.102c-13.047-3.086-27.344,0.453-37.519,10.629c-15.618,15.617-15.618,40.941,0,56.554
			c15.617,15.618,40.937,15.618,56.554,0c15.453-15.453,15.606-40.402,0.473-56.054l31.394-55.094
			c15.762,4.527,33.387,0.781,46.059-11.227l34.281,22.231c-2.187,10.168,0.66,21.199,8.559,29.097
			c12.375,12.375,32.437,12.375,44.809,0c12.375-12.371,12.375-32.433,0-44.808C229.801,181.215,212.262,180.168,199.863,189.293
			L199.863,189.293z M32.441,271.125c-0.761,0.863-1.476,1.676-2.179,2.379c-0.875,0.875-2.071,1.938-3.555,2.399
			c-1.863,0.574-3.769,0.066-5.23-1.391c-3.817-3.82-2.356-11.039,3.398-16.793c5.754-5.758,12.973-7.219,16.793-3.398
			c1.461,1.457,1.965,3.363,1.391,5.23c-0.457,1.484-1.524,2.68-2.399,3.555c-0.699,0.699-1.515,1.418-2.379,2.175
			c-0.996,0.879-2.027,1.786-3.043,2.797C34.223,269.098,33.316,270.129,32.441,271.125L32.441,271.125z M189.586,47.336
			c5.754-5.758,12.973-7.215,16.793-3.398c1.457,1.461,1.965,3.363,1.391,5.23c-0.458,1.485-1.524,2.684-2.399,3.559
			c-0.699,0.699-1.516,1.414-2.379,2.176c-0.996,0.875-2.027,1.781-3.043,2.796c-1.015,1.016-1.922,2.047-2.801,3.043
			c-0.757,0.864-1.476,1.68-2.175,2.379c-0.875,0.875-2.071,1.942-3.555,2.399c-1.867,0.578-3.77,0.07-5.23-1.391
			C182.371,60.313,183.828,53.09,189.586,47.336L189.586,47.336z M24.594,30.281c-0.742,0.84-1.438,1.633-2.117,2.317
			c-0.852,0.851-2.016,1.887-3.465,2.336c-1.813,0.558-3.668,0.066-5.09-1.356c-3.719-3.715-2.293-10.746,3.308-16.347
			c5.602-5.602,12.629-7.028,16.348-3.309c1.422,1.422,1.914,3.277,1.356,5.09c-0.45,1.445-1.485,2.613-2.336,3.465
			c-0.684,0.683-1.477,1.379-2.317,2.117c-0.969,0.852-1.972,1.734-2.961,2.727C26.332,28.309,25.445,29.313,24.594,30.281
			L24.594,30.281z M93.91,124.61c6.875-6.875,15.496-8.622,20.059-4.063c1.746,1.746,2.351,4.024,1.664,6.25
			c-0.551,1.774-1.824,3.203-2.867,4.246c-0.836,0.84-1.813,1.692-2.84,2.602c-1.192,1.047-2.422,2.129-3.637,3.343
			c-1.215,1.215-2.297,2.446-3.344,3.637c-0.906,1.028-1.761,2.004-2.597,2.84c-1.047,1.047-2.477,2.316-4.25,2.863
			c-2.227,0.688-4.504,0.082-6.246-1.66C85.289,140.106,87.035,131.481,93.91,124.61L93.91,124.61z M205.223,209.68
			c-0.692,0.695-1.641,1.539-2.817,1.902c-1.476,0.457-2.984,0.055-4.144-1.101c-3.024-3.024-1.867-8.746,2.691-13.305
			c4.563-4.563,10.281-5.719,13.309-2.691c1.156,1.156,1.554,2.664,1.101,4.144c-0.363,1.176-1.211,2.125-1.902,2.817
			c-0.555,0.554-1.199,1.121-1.883,1.722c-0.789,0.695-1.605,1.414-2.41,2.219c-0.805,0.805-1.527,1.621-2.219,2.414
			C206.348,208.481,205.777,209.129,205.223,209.68L205.223,209.68z M205.223,209.68"/>
	</g>
</g>
</svg>
