<?xml version="1.0" encoding="iso-8859-1"?>
<!-- Generator: Adobe Illustrator 20.1.0, SVG Export Plug-In . SVG Version: 6.00 Build 0)  -->
<svg version="1.1" id="&#x421;&#x43B;&#x43E;&#x439;_1"
	 xmlns="http://www.w3.org/2000/svg" xmlns:xlink="http://www.w3.org/1999/xlink" x="0px" y="0px" viewBox="0 0 223.998 355"
	 style="enable-background:new 0 0 223.998 355;" xml:space="preserve">
<path style="fill:#6376E3;" d="M133.578,114.586l-20.394,20.281h-0.012l8.605,57.543h76.422
	c-4.617-20.019-15.816-46.683-15.816-46.683c-1.699-4.067-5.793-6.672-9.703-8.278l-26.414-12.16L133.578,114.586z M133.578,114.586
	"/>
<path style="fill:#6376E3;" d="M110.828,134.867h-0.016l-20.39-20.281l-12.688,10.703l-26.418,12.16
	c-3.906,1.606-7.746,4.039-9.699,8.278c0,0-11.199,26.664-15.816,46.683h76.418L110.828,134.867z M110.828,134.867"/>
<path style="fill:#3A2C51;" d="M111.168,114.199c20.148,0,47.176-25.172,47.633-67.379C159.094,17.527,145.145,0,111.168,0
	c-33.98,0-47.93,17.527-47.633,46.82C63.992,89.027,87.586,114.199,111.168,114.199L111.168,114.199z M101.594,58.582
	c24.633,2.625,46.109-31.828,45.761-0.98c-0.207,18.464-17.335,46.347-36.183,46.347c-19.781,0-33.43-23.172-36.184-46.336
	C72,32.488,118.113,38.215,101.594,58.582L101.594,58.582z M101.594,58.582"/>
<path style="fill:#7452AC;" d="M100.234,292.195c-2.074-1.547-4.121-3.144-6.101-4.761c0.492,4.879,1.355,9.457,2.578,13.64
	c2.906-1.461,5.918-3.136,8.969-4.988C103.84,294.824,102.012,293.516,100.234,292.195L100.234,292.195z M100.234,292.195"/>
<path style="fill:#7452AC;" d="M87.633,281.824c-3.676,3.629-6.813,7.172-9.332,10.543c-6.254,8.379-6.383,12.684-5.473,13.906
	c0.574,0.77,1.969,1.192,3.934,1.192c3.664,0,8.789-1.383,14.847-4c-1.921-6.297-3.101-13.59-3.421-21.141
	C88,282.156,87.816,281.992,87.633,281.824L87.633,281.824z M87.633,281.824"/>
<path style="fill:#7452AC;" d="M105.68,259.883c-3.051-1.852-6.067-3.528-8.973-4.988c-1.219,4.183-2.082,8.761-2.574,13.636
	c1.976-1.613,4.027-3.211,6.101-4.758C102.012,262.453,103.84,261.145,105.68,259.883L105.68,259.883z M105.68,259.883"/>
<path style="fill:#7452AC;" d="M123.094,249.582c-0.239-0.586-0.477-1.148-0.719-1.68c-3.238-7.175-7.453-11.293-11.559-11.293
	c-4.101,0-8.316,4.118-11.554,11.293c-0.242,0.532-0.481,1.094-0.719,1.68c3.961,1.949,8.086,4.277,12.273,6.922
	C115.004,253.859,119.133,251.531,123.094,249.582L123.094,249.582z M123.094,249.582"/>
<path style="fill:#7452AC;" d="M84.387,252.227c-2.246,0-4.262-1.434-5.016-3.524c-0.953-0.137-1.832-0.203-2.609-0.203
	c-1.965,0-3.364,0.426-3.934,1.191c-0.91,1.223-0.781,5.532,5.473,13.907c2.515,3.371,5.656,6.918,9.332,10.547
	c0.183-0.168,0.367-0.336,0.551-0.504c0.324-7.547,1.504-14.844,3.421-21.137c-1.285-0.559-2.558-1.066-3.8-1.524
	C86.848,251.789,85.641,252.227,84.387,252.227L84.387,252.227z M84.387,252.227"/>
<path style="fill:#7452AC;" d="M121.398,263.773c2.079,1.547,4.125,3.145,6.102,4.758c-0.492-4.875-1.355-9.457-2.574-13.636
	c-2.906,1.46-5.918,3.132-8.969,4.988C117.797,261.145,119.625,262.453,121.398,263.773L121.398,263.773z M121.398,263.773"/>
<path style="fill:#7452AC;" d="M98.543,306.387c0.238,0.586,0.477,1.148,0.715,1.676c3.242,7.179,7.453,11.296,11.558,11.296
	c4.106,0,8.317-4.117,11.559-11.296c0.242-0.528,0.48-1.094,0.715-1.676c-3.957-1.953-8.082-4.282-12.274-6.922
	C106.629,302.105,102.504,304.434,98.543,306.387L98.543,306.387z M98.543,306.387"/>
<g>
	<defs>
		<rect id="SVGID_1_" x="0" width="223.92" height="355"/>
	</defs>
	<clipPath id="SVGID_2_">
		<use xlink:href="#SVGID_1_"  style="overflow:visible;"/>
	</clipPath>
	<path style="clip-path:url(#SVGID_2_);fill:#7452AC;" d="M115.957,296.086c3.047,1.852,6.063,3.523,8.969,4.988
		c1.219-4.183,2.082-8.761,2.574-13.64c-1.977,1.613-4.023,3.211-6.102,4.757C119.625,293.516,117.797,294.82,115.957,296.086
		L115.957,296.086z M115.957,296.086"/>
	<path style="clip-path:url(#SVGID_2_);fill:#7452AC;" d="M221.707,208.051c-1.672-1.84-4.043-2.887-6.527-2.887H8.816
		c-2.484,0-4.851,1.047-6.523,2.887c-1.672,1.84-2.488,4.297-2.254,6.769l17.637,131.489c0.433,4.523,4.234,7.98,8.777,7.98h171.09
		c4.547,0,8.348-3.453,8.781-7.98l17.633-131.489C224.195,212.348,223.379,209.891,221.707,208.051L221.707,208.051z
		 M151.898,264.012c0,2.941-2.394,5.336-5.336,5.336c-0.195,0-0.394-0.016-0.609-0.039c-2.277,2.816-4.933,5.73-7.906,8.675
		c3.828,3.786,7.109,7.504,9.754,11.047c6.812,9.125,8.707,16.239,5.476,20.574c-1.695,2.282-4.523,3.434-8.402,3.434
		c-4.297,0-10.07-1.492-16.715-4.316c-0.234,0.574-0.469,1.121-0.703,1.636c-4.242,9.399-10.152,14.575-16.641,14.575
		c-6.484,0-12.394-5.176-16.636-14.575c-0.235-0.515-0.473-1.066-0.707-1.636c-6.641,2.824-12.411,4.316-16.711,4.316
		c-3.879,0-6.707-1.152-8.407-3.434c-3.226-4.335-1.332-11.449,5.481-20.574c2.644-3.543,5.926-7.258,9.754-11.047
		c-3.828-3.789-7.11-7.507-9.754-11.05c-6.813-9.121-8.707-16.235-5.481-20.571c1.7-2.281,4.528-3.437,8.407-3.437
		c1.133,0,2.39,0.105,3.742,0.316c1.008-1.07,2.406-1.679,3.883-1.679c2.504,0,4.644,1.722,5.191,4.14
		c1.258,0.461,2.567,0.977,3.895,1.543c0.234-0.574,0.472-1.121,0.707-1.637c4.242-9.398,10.152-14.578,16.636-14.578
		c6.489,0,12.399,5.18,16.641,14.578c0.234,0.516,0.469,1.063,0.703,1.637c6.645-2.824,12.418-4.32,16.715-4.32
		c3.879,0,6.707,1.156,8.402,3.437c2.59,3.477,1.938,8.617-1.941,15.278C151.703,262.375,151.898,263.191,151.898,264.012
		L151.898,264.012z M151.898,264.012"/>
</g>
<path style="fill:#7452AC;" d="M144.875,248.5c-3.664,0-8.793,1.387-14.848,4.004c1.918,6.293,3.102,13.59,3.422,21.137
	c0.184,0.168,0.367,0.336,0.551,0.504c2.852-2.813,5.395-5.594,7.566-8.274c-0.226-0.598-0.336-1.219-0.336-1.859
	c0-2.942,2.391-5.332,5.332-5.332h0.043c2.852-4.973,2.977-7.946,2.2-8.989C148.234,248.926,146.836,248.5,144.875,248.5
	L144.875,248.5z M144.875,248.5"/>
<path style="fill:#7452AC;" d="M118.07,268.246c-2.371-1.769-4.812-3.484-7.254-5.101c-2.437,1.617-4.878,3.332-7.25,5.101
	c-3.453,2.57-6.777,5.25-9.882,7.965c-0.012,0.605-0.016,1.199-0.016,1.773c0,0.571,0.004,1.164,0.016,1.77
	c3.105,2.719,6.429,5.398,9.882,7.969c2.375,1.769,4.813,3.484,7.254,5.097c2.438-1.617,4.879-3.332,7.25-5.097
	c3.453-2.571,6.778-5.25,9.883-7.969c0.012-0.606,0.016-1.199,0.016-1.77c0-0.574-0.004-1.168-0.016-1.773
	C124.848,273.496,121.523,270.816,118.07,268.246L118.07,268.246z M110.816,286.469c-4.675,0-8.484-3.809-8.484-8.485
	c0-4.679,3.809-8.484,8.484-8.484c4.68,0,8.485,3.805,8.485,8.484C119.301,282.66,115.496,286.469,110.816,286.469L110.816,286.469z
	 M110.816,286.469"/>
<path style="fill:#7452AC;" d="M133.449,282.324c-0.32,7.551-1.504,14.844-3.422,21.141c6.059,2.617,11.184,4,14.848,4
	c1.965,0,3.359-0.422,3.93-1.192c0.914-1.222,0.785-5.527-5.473-13.906c-2.516-3.371-5.652-6.914-9.328-10.543
	C133.82,281.992,133.637,282.156,133.449,282.324L133.449,282.324z M133.449,282.324"/>
</svg>
