<?xml version="1.0" encoding="iso-8859-1"?>
<!-- Generator: Adobe Illustrator 20.1.0, SVG Export Plug-In . SVG Version: 6.00 Build 0)  -->
<svg version="1.1" id="&#x421;&#x43B;&#x43E;&#x439;_1"
	 xmlns="http://www.w3.org/2000/svg" xmlns:xlink="http://www.w3.org/1999/xlink" x="0px" y="0px" viewBox="0 0 246.985 247"
	 style="enable-background:new 0 0 246.985 247;" xml:space="preserve">
<path style="fill:#7452AC;" d="M123.855,163.266c0.948,2.058,3.382,2.959,5.443,2.017c1.588-0.723,3.132-1.543,4.672-2.441
	c0.34,0.339,0.685,0.673,1.05,0.968c8.372,6.932,20.695,6.138,28.109-1.811c7.413-7.948,7.347-20.296-0.149-28.164
	c0.864-1.508,1.665-3.046,2.416-4.592c0.644-1.319,0.533-2.881-0.288-4.098c-0.825-1.216-2.232-1.903-3.697-1.799
	c-1.465,0.105-2.762,0.98-3.405,2.301c-0.586,1.2-1.232,2.393-1.886,3.567c-0.229-0.093-0.429-0.245-0.668-0.333
	c-2.318-0.873-4.773-1.326-7.252-1.338c-1.846-0.003-3.687,0.249-5.464,0.75c-2.068,0.581-4.034,1.49-5.819,2.687l-3.182-3.182
	c-1.603-1.603-4.202-1.606-5.809-0.002c-1.603,1.603-1.605,4.204-0.002,5.807l3.238,3.233c-3.765,5.687-4.457,12.87-1.855,19.17
	c-1.136,0.641-2.271,1.262-3.436,1.8c-0.993,0.453-1.766,1.287-2.142,2.31C123.351,161.141,123.397,162.276,123.855,163.266
	L123.855,163.266z M123.855,163.266"/>
<path style="fill:#7452AC;" d="M244.137,40.852c-1.764-0.664-3.751-0.03-4.804,1.532L204.619,7.67
	c1.568-1.05,2.202-3.043,1.529-4.804c-0.397-1.019-1.185-1.84-2.187-2.275c-1.001-0.438-2.136-0.457-3.152-0.054
	c-1.696,0.679-3.357,1.445-4.976,2.291c-6.185,3.102-11.884,7.092-16.913,11.841c-0.074,0.063-0.17,0.087-0.239,0.157
	c-0.069,0.071-0.062,0.116-0.107,0.164c-0.539,0.511-1.104,0.983-1.642,1.511c-16.995,16.986-24.097,39.899-19.11,59.458
	c-19.873-4.672-43.397,3.042-61.05,20.698c-17.65,17.656-25.354,41.181-20.686,61.051c-19.553-4.985-42.444,2.117-59.458,19.107
	c-0.527,0.527-1.001,1.093-1.511,1.642c-0.048,0.045-0.114,0.062-0.164,0.107c-0.048,0.045-0.094,0.164-0.155,0.239
	c-4.737,5.014-8.718,10.69-11.817,16.851c-1.001,1.967-1.74,3.573-2.318,5.047c-0.497,1.266-0.336,2.691,0.429,3.813
	c0.768,1.123,2.038,1.793,3.397,1.793c1.338-0.015,2.583-0.68,3.342-1.782l34.679,34.68c-1.565,1.049-2.199,3.041-1.531,4.803
	c0.615,1.576,2.136,2.613,3.828,2.612c0.512,0,1.018-0.095,1.495-0.279c1.474-0.58,3.08-1.319,4.996-2.295
	c6.187-3.102,11.884-7.092,16.914-11.842c0.075-0.063,0.168-0.087,0.236-0.156c0.071-0.072,0.063-0.117,0.108-0.165
	c0.538-0.509,1.106-0.981,1.642-1.511c17.01-17.008,24.117-39.948,19.098-59.518c3.834,0.899,7.759,1.354,11.699,1.361
	c3.859-0.009,7.71-0.392,11.495-1.139c1.07-0.208,2.012-0.832,2.621-1.734c0.61-0.905,0.834-2.013,0.625-3.081
	c-0.145-0.665-0.458-1.284-0.909-1.796c-0.137-0.77-0.497-1.484-1.037-2.052l-29.076-29.076c1.012-3.96,2.411-7.81,4.18-11.495
	l17.159,17.16c1.61,1.556,4.172,1.534,5.756-0.051c1.584-1.584,1.606-4.144,0.05-5.755l-18.814-18.817
	c2.008-3.138,4.264-6.116,6.743-8.9l16.526,16.564c0.789,0.772,1.845,1.206,2.949,1.203c1.034-0.005,2.029-0.407,2.777-1.121
	c-13.336,13.467-14.355,34.829-2.36,49.505c11.997,14.672,33.136,17.921,48.984,7.531c0.283-0.254,0.604-0.467,0.95-0.63
	c1.758-1.222,3.406-2.597,4.927-4.103c10.541-10.568,13.723-26.421,8.077-40.239c-5.643-13.815-19.017-22.905-33.943-23.066h-0.256
	c-5.139-0.009-10.223,1.058-14.929,3.134c-4.204,1.821-8.026,4.421-11.265,7.66c0.76-0.801,1.16-1.877,1.112-2.981
	c-0.05-1.103-0.548-2.142-1.376-2.87l-16.377-16.425c2.791-2.479,5.771-4.732,8.917-6.74l18.848,18.85
	c1.023,1.096,2.562,1.548,4.013,1.177c1.452-0.369,2.588-1.498,2.964-2.949c0.376-1.449-0.068-2.989-1.158-4.017l-17.2-17.202
	c3.687-1.764,7.537-3.162,11.497-4.175l29.111,29.112c0.558,0.53,1.255,0.887,2.01,1.031c0.721,0.614,1.632,0.959,2.578,0.974
	c2.001-0.002,3.71-1.448,4.045-3.421c1.562-7.66,1.482-15.564-0.229-23.191c4.156,1.079,8.432,1.632,12.728,1.641
	c17.709-0.47,34.521-7.896,46.797-20.668c0.53-0.529,1.004-1.099,1.514-1.642c0.05-0.042,0.107-0.054,0.152-0.099
	c0.052-0.072,0.104-0.148,0.149-0.226c4.742-5.02,8.726-10.703,11.828-16.872c0.995-1.951,1.734-3.552,2.322-5.052
	C247.292,44.056,246.25,41.676,244.137,40.852L244.137,40.852z M127.934,127.74c10.984-10.923,28.655-11.154,39.92-0.521
	c11.265,10.636,12.051,28.291,1.776,39.885c-10.275,11.593-27.898,12.935-39.809,3.031c-0.658-0.542-1.29-1.117-1.887-1.723
	c-10.711-10.716-11.266-27.905-1.267-39.289c0.329-0.426,0.766-0.903,1.248-1.383H127.934z M229.058,59.384l-41.437-41.442
	c2.91-2.393,6.03-4.518,9.321-6.35l38.491,38.487C233.59,53.363,231.457,56.477,229.058,59.384L229.058,59.384z M181.592,23.545
	l41.882,41.881c-2.693,2.571-5.599,4.906-8.69,6.981l-40.162-40.159C176.694,29.154,179.028,26.241,181.592,23.545L181.592,23.545z
	 M195.926,80.845l-29.77-29.77c1.006-3.959,2.419-7.801,4.218-11.468l37.022,37.021C203.73,78.426,199.885,79.838,195.926,80.845
	L195.926,80.845z M79.484,167.516c2.326,5.762,3.345,11.965,2.982,18.166L61.324,164.54
	C67.522,164.173,73.729,165.191,79.484,167.516L79.484,167.516z M76.754,207.267l-37.016-37.021
	c3.667-1.791,7.508-3.201,11.465-4.204l29.769,29.766C79.966,199.762,78.553,203.605,76.754,207.267L76.754,207.267z
	 M50.196,235.283l-38.484-38.487c1.838-3.286,3.966-6.399,6.358-9.304l41.472,41.472c-2.917,2.381-6.041,4.498-9.339,6.319H50.196z
	 M65.528,223.332l-41.881-41.882c2.694-2.571,5.601-4.907,8.691-6.98l40.159,40.158c-2.068,3.093-4.397,6.006-6.962,8.705H65.528z
	 M103.675,163.924c-6.077,0.396-12.17-0.522-17.858-2.697c-2.175-5.681-3.087-11.765-2.672-17.834L103.675,163.924z M143.504,83.034
	c6.067-0.412,12.152,0.503,17.832,2.672c2.178,5.69,3.097,11.781,2.697,17.858L143.504,83.034z M167.627,79.374
	c-2.324-5.76-3.343-11.965-2.982-18.165l21.144,21.142c-6.195,0.358-12.394-0.664-18.145-2.993L167.627,79.374z M167.627,79.374"/>
<rect style="fill:none;" width="246.985" height="247"/>
<path style="fill:#34254D;" d="M201.271,185.801l-15.367,15.369l34.155,34.158c2.746,2.746,6.748,3.82,10.499,2.813
	c3.752-1.004,6.683-3.935,7.686-7.687c1.006-3.749-0.066-7.753-2.812-10.499L201.271,185.801z M201.271,185.801"/>
<path style="fill:#FFD42B;" d="M183.118,174.891c-1.178,1.353-2.349,2.719-3.635,3.999c-1.283,1.281-2.615,2.459-3.985,3.633
	l12.05,12.045l7.625-7.62L183.118,174.891z M183.118,174.891"/>
</svg>
