<?xml version="1.0" encoding="iso-8859-1"?>
<!-- Generator: Adobe Illustrator 20.1.0, SVG Export Plug-In . SVG Version: 6.00 Build 0)  -->
<svg version="1.1" id="&#x421;&#x43B;&#x43E;&#x439;_1"
	 xmlns="http://www.w3.org/2000/svg" xmlns:xlink="http://www.w3.org/1999/xlink" x="0px" y="0px" viewBox="0 0 247.92 248"
	 style="enable-background:new 0 0 247.92 248;" xml:space="preserve">
<path style="fill:#34254D;" d="M24.062,138.332c18.958-27.285,30.106-44.863,38.235-57.855
	c-31.242,2.761-61.188,41.636-61.188,41.636l20.621,20.622C22.328,141.211,23.094,139.731,24.062,138.332L24.062,138.332z
	 M24.062,138.332"/>
<path style="fill:#34254D;" d="M104.578,225.582l20.61,20.61c0,0,38.871-29.946,41.636-61.188
	c-12.988,8.129-30.562,19.273-57.855,38.234C107.586,224.195,106.113,224.981,104.578,225.582L104.578,225.582z M104.578,225.582"/>
<path style="fill:#FFD42B;" d="M73.238,214.93c-3.539,1.43-7.015,2.945-10.64,4.16c-9.68,3.234-19.653,5.422-29.762,6.816
	c-4.238,0.586-8.512,1.082-12.797,1.407c0.039-0.532,0.078-1.059,0.125-1.586c0.883-10.301,2.449-20.551,4.984-30.582
	c1.219-4.84,2.774-9.543,4.446-14.243c1.039-2.921,2.336-5.718,3.644-8.515l-2.265-2.266c-5.043,3.387-9.43,7.668-13.153,12.512
	c-5.508,7.168-9.636,15.293-12.523,23.852c-3.102,9.191-4.953,18.925-5.242,28.628c-0.039,1.364-0.133,2.758,0.078,4.11
	c0.273,1.746,1.039,3.402,2.191,4.742c1.141,1.324,2.645,2.324,4.309,2.863c1.394,0.449,2.801,0.457,4.25,0.446
	c8.808-0.075,17.754-1.602,26.187-4.11c15.422-4.582,30.992-13.203,40.121-26.824l-2.207-2.207
	C74.406,214.406,73.824,214.672,73.238,214.93L73.238,214.93z M73.238,214.93"/>
<rect style="fill:none;" width="247.92" height="248"/>
<path style="fill:#7452AC;" d="M244.801,2.504L244.801,2.504C243.195,0.899,241.02,0,238.754,0c-0.055,0-0.109,0-0.168,0
	c-27.527,0.543-95.445,5.692-131.516,41.762C90.699,58.133,85.379,66.656,73.715,85.336c-8.403,13.449-19.903,31.867-40.918,62.121
	c-2.363,3.399-1.953,8,0.976,10.926l55.141,55.144c1.656,1.653,3.848,2.504,6.051,2.504c1.695,0,3.398-0.5,4.879-1.527
	c30.261-21.023,48.676-32.519,62.117-40.918c18.676-11.66,27.203-16.984,43.578-33.359c36.133-36.137,41.246-104.008,41.766-131.512
	C247.348,6.391,246.445,4.149,244.801,2.504L244.801,2.504z M180.949,106.551c-11.101,11.101-29.097,11.101-40.199,0
	c-11.105-11.102-11.102-29.098,0-40.199c11.102-11.102,29.098-11.102,40.199-0.004C192.047,77.449,192.051,95.449,180.949,106.551
	L180.949,106.551z M180.949,106.551"/>
</svg>
