<?xml version="1.0" encoding="iso-8859-1"?>
<!-- Generator: Adobe Illustrator 20.1.0, SVG Export Plug-In . SVG Version: 6.00 Build 0)  -->
<svg version="1.1" id="&#x421;&#x43B;&#x43E;&#x439;_1"
	 xmlns="http://www.w3.org/2000/svg" xmlns:xlink="http://www.w3.org/1999/xlink" x="0px" y="0px" viewBox="0 0 392 348"
	 style="enable-background:new 0 0 392 348;" xml:space="preserve">
<path d="M136.398,218.961c-7.597,6.238-12,15.598-12,25.519v35.442c0,4.398,3.524,7.918,7.922,7.918c4.399,0,7.918-3.52,7.918-7.918
	V244.48c0-5.199,2.242-10,6.242-13.281c31.442-25.84,65.598-43.039,72.079-46.238c3.519-1.68,5.761-5.281,5.761-9.199V125.84
	c0-2.641-1.359-5.121-3.519-6.559c-4.321-2.883-6.879-7.679-6.879-12.801V54.719c0-21.36,17.359-38.719,38.719-38.719h11.121
	c21.359,0,38.718,17.359,38.718,38.719v51.761c0,5.122-2.558,9.918-6.878,12.801c-2.243,1.438-3.524,3.918-3.524,6.559v49.84
	c0,3.922,2.242,7.519,5.762,9.199c6.558,3.199,40.64,20.402,72.082,46.242c3.918,3.277,6.238,8.078,6.238,13.277v35.442
	c0,4.398,3.52,7.922,7.918,7.922c4.402,0,7.922-3.524,7.922-7.922v-35.442c0-9.918-4.398-19.199-12-25.519
	c-29.281-24.078-60.801-40.957-72.078-46.719v-42.558c6.558-5.922,10.398-14.321,10.398-23.282V54.559
	C318.32,24.48,293.84,0,263.762,0h-11.121c-30.082,0-54.563,24.48-54.563,54.559v51.761c0,8.961,3.844,17.36,10.402,23.282v42.558
	C197.199,177.922,165.762,194.879,136.398,218.961L136.398,218.961z M136.398,218.961"/>
<path d="M114.961,50.559h-9.039C80.641,50.559,60,71.121,60,96.48v42.161c0,7.519,3.121,14.558,8.48,19.597v33.121
	c-9.839,5.039-34.878,18.641-58.16,37.762C3.762,234.48,0,242.48,0,251.039v28.883c0,4.398,3.52,7.918,7.922,7.918
	c4.398,0,7.918-3.52,7.918-7.918v-28.883c0-3.758,1.68-7.277,4.558-9.68c25.524-20.961,53.122-34.879,58.481-37.519
	c3.359-1.602,5.519-5.121,5.519-8.801v-40.641c0-2.636-1.359-5.117-3.519-6.558c-3.117-2.078-4.957-5.52-4.957-9.199V96.48
	c0-16.558,13.519-30.082,30.078-30.082h9.039c16.563,0,30.082,13.524,30.082,30.082v42.161c0,3.679-1.84,7.121-4.961,9.199
	c-2.238,1.441-3.519,3.922-3.519,6.558v33.364c0,4.398,3.519,7.918,7.918,7.918c4.402,0,7.921-3.52,7.921-7.918v-29.524
	c5.36-5.039,8.481-12.078,8.481-19.597V96.48C160.879,71.121,140.32,50.559,114.961,50.559L114.961,50.559z M114.961,50.559"/>
<path d="M275.359,182.078c-4.398,0-7.918,3.524-7.918,7.922c0,5.121-4.16,9.199-9.203,9.199c-1.918,0-3.679-0.558-5.117-1.597
	c-0.32-0.321-0.723-0.641-1.121-0.883c-1.84-1.68-2.961-4.078-2.961-6.797c0-4.402-3.519-7.922-7.918-7.922
	c-4.402,0-7.922,3.52-7.922,7.922c0,6.398,2.403,12.156,6.321,16.637l-5.36,118.082c-0.082,2.398,0.879,4.64,2.641,6.238
	l16.719,15.043c1.519,1.359,3.441,2.078,5.281,2.078c1.918,0,3.758-0.641,5.277-2l16.481-14.801c1.761-1.597,2.722-3.84,2.64-6.238
	l-5.121-119.52c3.363-4.242,5.363-9.601,5.363-15.363C283.281,185.68,279.68,182.078,275.359,182.078L275.359,182.078z
	 M258.719,329.52l-8.641-7.758l4.801-106.801c1.043,0.16,2.16,0.238,3.199,0.238c1.442,0,2.883-0.16,4.32-0.398L267.039,322
	L258.719,329.52z M258.719,329.52"/>
</svg>
