<?xml version="1.0" encoding="iso-8859-1"?>
<!-- Generator: Adobe Illustrator 20.1.0, SVG Export Plug-In . SVG Version: 6.00 Build 0)  -->
<svg version="1.1" id="&#x421;&#x43B;&#x43E;&#x439;_1"
	 xmlns="http://www.w3.org/2000/svg" xmlns:xlink="http://www.w3.org/1999/xlink" x="0px" y="0px" viewBox="0 0 392.16 346.719"
	 style="enable-background:new 0 0 392.16 346.719;" xml:space="preserve">
<path d="M126.48,121.762c-5.039,4.16-7.921,10.316-7.921,16.797v19.601c0,4.399,3.519,7.918,7.921,7.918
	c4.399,0,7.918-3.519,7.918-7.918v-19.601c0-1.758,0.801-3.438,2.161-4.559c17.121-14,35.601-23.359,39.203-25.121
	c3.117-1.52,5.199-4.801,5.199-8.238V73.039c0-2.641-1.359-5.117-3.52-6.559c-1.363-0.96-2.242-2.48-2.242-4.16V33.68
	c0-9.84,8-17.84,17.84-17.84h6.16c9.84,0,17.84,8,17.84,17.84v28.64c0,1.68-0.801,3.2-2.238,4.16
	c-2.242,1.442-3.52,3.918-3.52,6.559v27.602c0,3.519,2,6.718,5.117,8.238C219.922,110.641,238.48,120,255.602,134
	c1.359,1.121,2.16,2.801,2.16,4.559v19.601c0,4.399,3.519,7.918,7.918,7.918c4.398,0,7.922-3.519,7.922-7.918v-19.601
	c0-6.559-2.883-12.719-7.922-16.797c-15.039-12.321-31.039-21.282-38.559-25.203V76.641c3.68-3.84,5.758-8.961,5.758-14.403V33.68
	c0-18.559-15.117-33.68-33.68-33.68h-6.16c-18.559,0-33.68,15.121-33.68,33.68v28.64c0,5.442,2.082,10.559,5.762,14.399v19.84
	C157.52,100.48,141.52,109.441,126.48,121.762L126.48,121.762z M126.48,121.762"/>
<path d="M384.238,346.719c4.403,0,7.922-3.52,7.922-7.918v-19.602c0-6.558-2.879-12.719-7.922-16.801
	c-15.039-12.32-31.039-21.277-38.558-25.199v-19.918c3.679-3.84,5.761-8.961,5.761-14.402v-28.641
	c0-18.558-15.121-33.679-33.679-33.679h-6.16c-18.563,0-33.68,15.121-33.68,33.679v28.641c0,5.441,2.078,10.562,5.758,14.402v19.918
	c-7.52,3.922-23.52,12.879-38.559,25.199c-5.043,4.161-7.922,10.243-7.922,16.801v19.602c0,4.398,3.52,7.918,7.922,7.918
	c4.399,0,7.918-3.52,7.918-7.918v-19.602c0-1.758,0.801-3.437,2.16-4.558c17.121-14.082,35.602-23.442,39.199-25.121
	c3.122-1.52,5.122-4.801,5.122-8.239V253.68c0-2.641-1.36-5.121-3.52-6.559c-1.359-0.961-2.238-2.48-2.238-4.16V214.32
	c0-9.84,8-17.84,17.84-17.84h6.16c9.84,0,17.84,8,17.84,17.84v28.641c0,1.68-0.801,3.199-2.243,4.16
	c-2.238,1.438-3.519,3.918-3.519,6.559v27.601c0,3.52,2,6.719,5.121,8.239c3.519,1.761,22.078,11.121,39.199,25.121
	c1.36,1.121,2.16,2.8,2.16,4.558v19.602C376.32,343.199,379.922,346.719,384.238,346.719L384.238,346.719z M384.238,346.719"/>
<path d="M147.039,302.398C132,290.078,116,281.121,108.48,277.199v-19.918c3.68-3.84,5.758-8.961,5.758-14.402v-28.641
	c0-18.558-15.117-33.679-33.679-33.679h-6.161c-18.558,0-33.679,15.121-33.679,33.679v28.641c0,5.441,2.082,10.562,5.761,14.402
	v19.918c-7.519,3.922-23.519,12.879-38.558,25.199C2.879,306.559,0,312.641,0,319.199v19.602c0,4.398,3.52,7.918,7.922,7.918
	c4.398,0,7.918-3.52,7.918-7.918v-19.602c0-1.758,0.801-3.437,2.16-4.558c17.121-14.082,35.602-23.442,39.199-25.121
	c3.121-1.52,5.121-4.801,5.121-8.239V253.68c0-2.641-1.359-5.121-3.519-6.559c-1.36-0.961-2.242-2.48-2.242-4.16V214.32
	c0-9.84,8-17.84,17.839-17.84h6.161c9.839,0,17.839,8,17.839,17.84v28.641c0,1.68-0.796,3.199-2.238,4.16
	c-2.238,1.438-3.519,3.918-3.519,6.559v27.601c0,3.52,2,6.719,5.121,8.239c3.519,1.761,22.078,11.039,39.199,25.121
	c1.359,1.121,2.16,2.8,2.16,4.558v19.602c0,4.398,3.52,7.918,7.918,7.918c4.402,0,7.922-3.52,7.922-7.918v-19.602
	C154.961,312.641,152.078,306.48,147.039,302.398L147.039,302.398z M147.039,302.398"/>
<path d="M241.121,255.121c1.277,0.719,2.641,1.039,3.918,1.039c2.723,0,5.441-1.441,6.883-4c2.156-3.762,0.879-8.64-2.883-10.801
	l-44.398-25.597V164.48c0-4.402-3.52-7.921-7.922-7.921c-4.399,0-7.918,3.519-7.918,7.921v51.282l-44.403,25.679
	c-3.757,2.161-5.117,7.039-2.878,10.797c1.441,2.563,4.16,4,6.878,4c1.364,0,2.723-0.316,3.922-1.039l44.399-25.679L241.121,255.121
	z M241.121,255.121"/>
</svg>
