<?xml version="1.0" encoding="iso-8859-1"?>
<!-- Generator: Adobe Illustrator 20.1.0, SVG Export Plug-In . SVG Version: 6.00 Build 0)  -->
<svg version="1.1" id="&#x421;&#x43B;&#x43E;&#x439;_1"
	 xmlns="http://www.w3.org/2000/svg" xmlns:xlink="http://www.w3.org/1999/xlink" x="0px" y="0px" viewBox="0 0 391.96 389.76"
	 style="enable-background:new 0 0 391.96 389.76;" xml:space="preserve">
<path d="M191.922,1.919l-19.602,8.082c-10.48,4.32-15.441,16.398-11.121,26.8l5.039,12.161c-9.84,7.277-18.398,15.918-25.758,25.757
	l-12.16-5.039c-5.039-2.082-10.64-2.082-15.679,0c-5.039,2.078-9.039,6.078-11.121,11.121l-8.161,19.598
	C89.039,110.88,94,122.88,104.48,127.2l18,7.441c4.079,1.68,8.641-0.242,10.321-4.32c1.679-4.082-0.242-8.641-4.321-10.32l-18-7.442
	c-2.402-0.961-3.519-3.758-2.558-6.16l8.156-19.598c0.481-1.121,1.363-2.082,2.563-2.562c1.121-0.481,2.398-0.481,3.597,0l18,7.441
	c3.524,1.442,7.524,0.239,9.602-2.879c8.082-12.16,18.32-22.402,30.48-30.48c3.121-2.082,4.399-6.16,2.961-9.602l-7.441-18
	c-0.961-2.398,0.16-5.121,2.558-6.16L198,16.481c1.121-0.48,2.398-0.48,3.602,0c1.117,0.481,2.078,1.359,2.558,2.559l7.442,18
	c1.437,3.519,5.117,5.519,8.878,4.718c14.239-2.878,28.801-2.796,43.04,0c3.679,0.723,7.441-1.277,8.878-4.718l7.442-18
	c0.961-2.399,3.762-3.52,6.16-2.559l19.602,8.16c1.117,0.481,2.078,1.36,2.558,2.559c0.481,1.121,0.481,2.398,0,3.601l-7.441,18
	c-1.438,3.52-0.239,7.52,2.883,9.598c12.16,8.082,22.398,18.32,30.476,30.481c2.082,3.121,6.16,4.402,9.602,2.96l18-7.441
	c1.199-0.48,2.398-0.48,3.601,0c1.117,0.481,2.078,1.359,2.559,2.563l8.082,19.597c0.476,1.121,0.476,2.403,0,3.602
	c-0.481,1.121-1.363,2.078-2.563,2.558l-18,7.442c-3.519,1.437-5.437,5.121-4.718,8.879c2.879,14.242,2.8,28.8,0,43.039
	c-0.719,3.679,1.281,7.441,4.718,8.883l18,7.437c2.403,0.961,3.52,3.762,2.563,6.16l-8.16,19.602
	c-0.961,2.398-3.762,3.519-6.16,2.558l-18-7.437c-3.524-1.442-7.524-0.242-9.602,2.879c-8.078,12.16-18.32,22.398-30.48,30.48
	c-3.122,2.078-4.399,6.16-2.961,9.598l7.441,18c0.48,1.121,0.48,2.402,0,3.601c-0.48,1.122-1.359,2.079-2.559,2.559l-19.601,8.082
	c-1.121,0.481-2.399,0.481-3.602,0c-1.117-0.48-2.078-1.359-2.558-2.562l-7.442-18c-1.679-4.079-6.316-6-10.316-4.321
	c-4.082,1.684-6,6.321-4.32,10.321l7.437,18c2.082,5.043,6.082,9.043,11.121,11.121c2.559,1.039,5.199,1.601,7.84,1.601
	c2.641,0,5.359-0.562,7.84-1.601l19.601-8.078c5.039-2.082,9.039-6.082,11.118-11.122c2.082-5.039,2.082-10.64,0-15.679
	l-5.039-12.16c9.839-7.282,18.402-15.922,25.761-25.762l12.16,5.043c10.481,4.316,22.481-0.641,26.797-11.121l8.16-19.602
	c4.321-10.48-0.636-22.48-11.117-26.801l-12.16-5.039c1.758-12.078,1.758-24.32,0-36.398l12.16-5.039
	c5.039-2.082,9.039-6.082,11.117-11.121c2.082-5.039,2.082-10.641,0-15.68L382.32,80.88c-2.082-5.04-6.082-9.04-11.121-11.122
	c-5.039-2.078-10.64-2.078-15.679,0l-12.161,5.043c-7.281-9.839-15.918-18.48-25.679-25.761l5.039-12.16
	c2.082-5.04,2.082-10.641,0-15.68c-2.078-5.039-6.078-9.039-11.117-11.121L292,1.919c-10.48-4.321-22.48,0.64-26.801,11.121
	L260.16,25.2c-12.082-1.762-24.32-1.762-36.398,0l-5.043-12.16c-2.078-5.039-6.078-9.039-11.117-11.121
	C202.559-0.16,196.961-0.16,191.922,1.919L191.922,1.919z M191.922,1.919"/>
<rect style="fill:none;" width="391.92" height="389.76"/>
<path d="M306.32,150.001c-0.242-35.36-29.121-63.922-64.398-63.922h-0.481c-17.203,0.16-33.363,6.961-45.441,19.203
	c-12.078,12.238-18.641,28.476-18.559,45.68c0,4.32,3.598,7.839,7.918,7.839h0.082c4.399,0,7.918-3.601,7.84-8
	c-0.082-12.961,4.879-25.203,14-34.48c9.117-9.281,21.278-14.402,34.239-14.481h0.32c26.64,0,48.398,21.598,48.558,48.239
	c0.161,26.801-21.437,48.722-48.238,48.961c-4.398,0-7.922,3.601-7.84,8c0,4.32,3.602,7.84,7.918,7.84h0.082
	C277.922,214.641,306.559,185.52,306.32,150.001L306.32,150.001z M306.32,150.001"/>
<path d="M108.238,388.801h15.442c9.441,0,17.121-7.679,17.121-17.121v-7.922c7.679-2.078,15.039-5.117,21.918-9.117l5.601,5.598
	c3.2,3.199,7.52,5.043,12.078,5.043c4.563,0,8.883-1.762,12.082-5.043l10.879-10.879c3.2-3.199,5.039-7.52,5.039-12.078
	c0-4.563-1.757-8.883-5.039-12.082l-5.597-5.602c4-6.879,7.039-14.238,9.117-21.918h7.922c9.437,0,17.121-7.679,17.121-17.121
	v-15.437c0-9.442-7.684-17.121-17.121-17.121h-7.922c-2.078-7.68-5.117-15.039-9.117-21.922l5.597-5.598
	c3.2-3.199,5.039-7.519,5.039-12.082c0-4.559-1.757-8.879-5.039-12.078l-10.879-10.883c-3.199-3.199-7.519-5.039-12.082-5.039
	c-4.558,0-8.878,1.762-12.078,5.039l-5.601,5.602c-6.879-4-14.239-7.039-21.918-9.121v-7.918c0-9.442-7.68-17.121-17.121-17.121
	h-15.442c-9.437,0-17.117,7.679-17.117,17.121v7.918c-7.68,2.082-15.043,5.121-21.922,9.121l-5.597-5.602
	c-3.204-3.199-7.524-5.039-12.082-5.039c-4.559,0-8.879,1.762-12.079,5.039l-10.882,10.883c-6.637,6.641-6.637,17.519,0,24.16
	l5.601,5.598c-4,6.883-7.039,14.242-9.121,21.922h-7.918C7.68,248.001,0,255.68,0,265.122v15.437c0,9.442,7.68,17.121,17.121,17.121
	h7.918c2.082,7.68,5.121,15.039,9.121,21.918l-5.601,5.602c-6.637,6.64-6.637,17.519,0,24.16l10.882,10.879
	c3.2,3.199,7.52,5.043,12.079,5.043c4.558,0,8.878-1.762,12.082-5.043l5.597-5.598c6.879,4,14.242,7.039,21.922,9.117v7.922
	C91.199,381.122,98.879,388.801,108.238,388.801L108.238,388.801z M72.48,338.079c-1.359-0.879-2.878-1.36-4.402-1.36
	c-2.078,0-4.078,0.801-5.598,2.321l-10,10c-0.32,0.32-0.64,0.398-0.878,0.398c-0.243,0-0.563-0.078-0.883-0.398L39.84,338.161
	c-0.481-0.481-0.481-1.281,0-1.762l10-10c2.64-2.641,3.121-6.879,0.961-10c-5.762-8.559-9.68-18.078-11.68-28.16
	c-0.723-3.68-4-6.399-7.762-6.399h-14.16c-0.719,0-1.277-0.558-1.277-1.281v-15.437c0-0.723,0.558-1.282,1.277-1.282h14.16
	c3.762,0,7.039-2.64,7.762-6.402c2-10.078,5.918-19.598,11.68-28.156c2.078-3.121,1.679-7.363-0.961-10l-10-10
	c-0.481-0.481-0.481-1.281,0-1.762l10.879-10.879c0.32-0.32,0.64-0.402,0.883-0.402c0.238,0,0.558,0.082,0.878,0.402l10,10.16
	c2.641,2.637,6.879,3.118,10,0.957c8.559-5.757,18.079-9.679,28.161-11.679c3.679-0.719,6.398-4,6.398-7.758v-14.16
	c0-0.723,0.563-1.281,1.281-1.281h15.442c0.718,0,1.277,0.558,1.277,1.281v14.16c0,3.758,2.641,7.039,6.402,7.758
	c10.079,2,19.598,5.922,28.161,11.679c3.117,2.082,7.359,1.68,10-0.957l10-10c0.32-0.32,0.636-0.402,0.878-0.402
	c0.239,0,0.559,0.082,0.879,0.402l10.879,10.879c0.321,0.321,0.403,0.641,0.403,0.879c0,0.242-0.082,0.563-0.403,0.879l-10,10
	c-2.636,2.641-3.117,6.883-0.957,10c5.758,8.563,9.68,18.082,11.68,28.16c0.719,3.684,4,6.403,7.758,6.403h14.16
	c0.723,0,1.281,0.558,1.281,1.281v15.437c0,0.719-0.558,1.282-1.281,1.282h-14.16c-3.758,0-7.039,2.64-7.758,6.398
	c-2,10.082-5.922,19.602-11.68,28.16c-2.082,3.121-1.679,7.36,0.957,10l10,10c0.321,0.321,0.403,0.641,0.403,0.879
	c0,0.242-0.082,0.563-0.403,0.883L181.359,349.2c-0.32,0.32-0.64,0.398-0.879,0.398c-0.242,0-0.558-0.078-0.878-0.398l-10-10
	c-2.641-2.641-6.883-3.121-10-0.961c-8.563,5.762-18.082,9.68-28.161,11.68c-3.679,0.722-6.402,4-6.402,7.761v14.16
	c0,0.719-0.559,1.282-1.277,1.282H108.32c-0.718,0-1.281-0.563-1.281-1.282v-14.16c0-3.761-2.641-7.039-6.398-7.761
	C90.559,347.758,81.039,343.84,72.48,338.079L72.48,338.079z M72.48,338.079"/>
<path d="M162.961,272.962c0-25.922-21.121-47.043-47.039-47.043c-25.922,0-46.961,21.121-46.961,47.043
	c0,25.918,21.117,47.039,47.039,47.039S162.961,298.88,162.961,272.962L162.961,272.962z M84.801,272.962
	c0-17.204,14-31.204,31.199-31.204s31.199,14,31.199,31.204c0,17.199-14,31.199-31.199,31.199S84.801,290.079,84.801,272.962
	L84.801,272.962z M84.801,272.962"/>
</svg>
