<?xml version="1.0" encoding="iso-8859-1"?>
<!-- Generator: Adobe Illustrator 20.1.0, SVG Export Plug-In . SVG Version: 6.00 Build 0)  -->
<svg version="1.1" id="&#x421;&#x43B;&#x43E;&#x439;_1"
	 xmlns="http://www.w3.org/2000/svg" xmlns:xlink="http://www.w3.org/1999/xlink" x="0px" y="0px" viewBox="0 0 391.92 356.88"
	 style="enable-background:new 0 0 391.92 356.88;" xml:space="preserve">
<path d="M7.309,355.922H384.59c4,0,7.277-3.282,7.277-7.282c0-1.359-0.398-2.718-1.039-3.761l-36.558-74.16V70.961
	c0-4-3.282-7.281-7.282-7.281H266.59c-4,0-7.281,3.281-7.281,7.281c0,4,3.281,7.277,7.281,7.277h73.199v186.961H52.59V78.238h71.359
	c4,0,7.281-3.277,7.281-7.277c0-4-3.281-7.281-7.281-7.281H45.23c-4,0-7.281,3.281-7.281,7.281v199.758L0.75,345.441
	c-1.121,2.239-0.961,4.879,0.32,7.039C2.43,354.64,4.828,355.922,7.309,355.922L7.309,355.922z M145.949,341.441l6.399-12.801
	h87.359l6.32,12.801H145.949z M49.707,279.68H342.43l30.398,61.679H262.109l-11.441-23.277c-1.199-2.481-3.758-4.082-6.48-4.082
	h-96.399c-2.719,0-5.281,1.519-6.48,4l-11.602,23.281H18.988L49.707,279.68z M49.707,279.68"/>
<rect style="fill:none;" width="391.92" height="356.88"/>
<path d="M237.309,26.32c0-14.398-11.68-26.16-26.161-26.16H180.91c-14.402,0-26.16,11.68-26.16,26.16v19.84
	c0,0.48,0.078,0.879,0.16,1.281c-0.082,0.399-0.16,0.879-0.16,1.278V191.84c0,0.32,0.078,0.718,0.078,1.039
	c0,0.082,0,0.16,0.082,0.32c0.078,0.402,0.238,0.801,0.399,1.199c0.082,0.082,0.082,0.16,0.16,0.321c0.16,0.32,0.32,0.562,0.48,0.8
	c0.078,0.082,0.16,0.243,0.239,0.321c0.082,0.082,0.082,0.16,0.16,0.242l34,44.558c1.359,1.758,3.519,2.879,5.761,2.879
	c2.239,0,4.399-1.039,5.758-2.879l34-44.558c0.082-0.082,0.082-0.16,0.16-0.242c0.082-0.078,0.161-0.239,0.243-0.321
	c0.16-0.238,0.32-0.558,0.48-0.8c0.078-0.079,0.078-0.161,0.16-0.321c0.16-0.398,0.238-0.797,0.399-1.199c0-0.078,0-0.16,0.082-0.32
	c0.078-0.321,0.078-0.719,0.078-1.039V48.48c0-0.398-0.078-0.8-0.078-1.199c0.078-0.402,0.078-0.801,0.078-1.199V26.32H237.309z
	 M169.391,53.441h19.519v130.957h-19.519V53.441z M203.391,53.441h19.519v130.957h-19.519V53.441z M169.391,26.32
	c0-6.398,5.199-11.601,11.597-11.601h30.242c6.399,0,11.598,5.203,11.598,11.601v12.559h-53.437V26.32z M196.109,224.32
	l-19.359-25.359h38.641L196.109,224.32z M196.109,224.32"/>
</svg>
