<?xml version="1.0" encoding="iso-8859-1"?>
<!-- Generator: Adobe Illustrator 20.1.0, SVG Export Plug-In . SVG Version: 6.00 Build 0)  -->
<svg version="1.1" id="&#x421;&#x43B;&#x43E;&#x439;_1"
	 xmlns="http://www.w3.org/2000/svg" xmlns:xlink="http://www.w3.org/1999/xlink" x="0px" y="0px" viewBox="0 0 375.182 403.078"
	 style="enable-background:new 0 0 375.182 403.078;" xml:space="preserve">
<path d="M285.678,224.154c3.872-4.218,7.739-8.49,11.543-12.897c73.045-84.638,77.792-198.253,77.961-203.045
	c-0.012-2.384-1.056-4.647-2.86-6.204c-1.807-1.56-4.198-2.261-6.559-1.925C361.04,0.945,249.35,22.265,176.305,106.904
	c-3.803,4.407-7.466,8.855-11.072,13.303c-43.911-13.619-110.478,17.536-161.45,76.598l-1.842,2.135
	c-2.346,2.712-2.589,6.666-0.597,9.649c0.401,0.599,0.882,1.143,1.426,1.612c2.12,1.829,5.049,2.418,7.712,1.538
	c31.355-10.664,65.227-11.426,97.031-2.182c-3.731,7.827-7.105,15.569-9.887,23.018c-0.036,0.042-0.007,0.123-0.031,0.186
	c-0.06,0.236-0.111,0.476-0.146,0.719c-0.174,0.681-0.258,1.377-0.25,2.071c0.015,0.306,0.051,0.611,0.1,0.912
	c0.093,0.641,0.262,1.263,0.5,1.861c0.123,0.277,0.224,0.554,0.354,0.816c0.444,0.843,1.035,1.605,1.746,2.245l75.587,65.234
	c1.702,1.155,3.706,1.785,5.764,1.811c0.39-0.081,0.778-0.185,1.154-0.31c0.617-0.117,1.224-0.306,1.806-0.556
	c0.036-0.042,0.104-0.024,0.155-0.048c6.981-3.82,14.129-8.312,21.327-13.142c13.796,30.104,17.997,63.729,12.029,96.303
	c-0.448,2.756,0.574,5.541,2.696,7.357c0.542,0.473,1.146,0.866,1.801,1.172c3.245,1.537,7.117,0.715,9.46-2l1.842-2.135
	C284.496,336.004,305.573,265.6,285.678,224.154L285.678,224.154z M114.675,233.04c1.976-4.997,4.206-10.111,6.677-15.33
	l74.298,64.121c-4.814,3.198-9.545,6.152-14.195,8.842L114.675,233.04z M358.397,18.142C355.391,47.89,342,134.923,285.128,200.821
	c-22.683,26.517-48.17,50.501-76.015,71.531l-80.36-69.352c16.728-30.624,36.729-59.342,59.643-85.66
	C245.27,51.441,329.406,25.464,358.397,18.142L358.397,18.142z M32.223,189.848c40.965-40.011,89.113-62.093,122.244-55.893
	c-14.811,19.296-28.067,39.738-39.653,61.126C88.117,186.663,59.768,184.87,32.223,189.848L32.223,189.848z M218.988,284.975
	c19.463-14.595,37.752-30.704,54.68-48.178c10.968,31.88-3.84,82.746-37.411,129.108
	C237.153,337.926,231.225,310.149,218.988,284.975L218.988,284.975z M218.988,284.975"/>
<path d="M231.546,165.126c16.694,14.407,41.907,12.555,56.317-4.141c14.407-16.694,12.551-41.907-4.142-56.314
	c-16.697-14.41-41.908-12.556-56.315,4.138C213.022,125.512,214.876,150.703,231.546,165.126L231.546,165.126z M273.287,116.76
	c10.016,8.644,11.128,23.773,2.484,33.789c-8.645,10.017-23.776,11.131-33.792,2.487c-10.02-8.647-11.126-23.776-2.482-33.792
	C248.142,109.228,263.268,108.113,273.287,116.76L273.287,116.76z M273.287,116.76"/>
<path d="M127.193,286.041c-3.339-2.881-8.38-2.511-11.261,0.827l-57.393,66.503c-2.881,3.339-2.513,8.383,0.826,11.264
	c3.339,2.881,8.382,2.508,11.263-0.831l57.393-66.503C130.902,293.963,130.532,288.923,127.193,286.041L127.193,286.041z
	 M127.193,286.041"/>
<path d="M97.955,260.988c-1.316-1.656-3.242-2.72-5.344-2.95c-2.105-0.227-4.211,0.39-5.858,1.719l-69.486,56.066
	c-3.43,2.773-3.963,7.797-1.196,11.227c0.291,0.386,0.614,0.741,0.972,1.061c2.925,2.519,7.226,2.588,10.227,0.168l69.485-56.066
	C100.179,269.441,100.725,264.42,97.955,260.988L97.955,260.988z M97.955,260.988"/>
<path d="M156.251,311.298c-3.797-2.214-8.671-0.936-10.903,2.851l-45.3,76.938c-1.951,3.312-1.263,7.542,1.637,10.072
	c0.358,0.315,0.756,0.595,1.175,0.833c3.798,2.211,8.669,0.939,10.899-2.848l45.302-76.938c1.087-1.817,1.398-3.994,0.874-6.041
	C159.404,314.119,158.079,312.366,156.251,311.298L156.251,311.298z M156.251,311.298"/>
</svg>
