<?xml version="1.0" encoding="iso-8859-1"?>
<!-- Generator: Adobe Illustrator 20.1.0, SVG Export Plug-In . SVG Version: 6.00 Build 0)  -->
<svg version="1.1" id="Layer_1" xmlns="http://www.w3.org/2000/svg" xmlns:xlink="http://www.w3.org/1999/xlink" x="0px" y="0px"
	 viewBox="0 0 124.263 93.438" style="enable-background:new 0 0 124.263 93.438;" xml:space="preserve">
<g>
	<path d="M13.991,79.113c-0.341-1.244-1.02-3.652-4.549-3.652c-2.063,0-5.175,1.47-5.175,7.266c0,3.673,1.559,7.095,5.175,7.095
		c2.373,0,4.041-1.438,4.549-3.96h4.272c-0.849,4.471-3.761,7.576-8.905,7.576C3.904,93.438,0,89.737,0,82.67
		c0-7.18,4.127-10.824,9.414-10.824c6.135,0,8.615,4.242,8.849,7.268H13.991z"/>
	<polygon points="23.492,83.46 28.522,77.698 33.415,77.698 28.07,83.579 33.554,92.908 28.776,92.908 25.158,86.372 23.492,88.097 
		23.492,92.908 19.509,92.908 19.509,77.698 23.492,77.698 	"/>
	<path d="M48.145,85.27c0,5.483-3.68,8.031-7.747,8.031c-4.069,0-7.77-2.516-7.77-8.004c0-5.484,3.7-7.995,7.77-7.995
		C44.465,77.302,48.145,79.787,48.145,85.27 M36.72,85.27c0,1.95,0.597,4.666,3.678,4.666c3.079,0,3.646-2.685,3.646-4.639
		c0-1.946-0.567-4.63-3.646-4.63C37.316,80.667,36.72,83.319,36.72,85.27"/>
	<path d="M63.128,77.698v15.21h-3.984V80.895h-4.266v4.691c0,5.821-1.754,7.657-4.553,7.657c-0.703,0-1.837-0.113-2.429-0.335
		v-2.971c0.083,0.057,0.592,0.111,1.183,0.111c1.188,0,1.81-0.595,1.81-5.229v-7.122H63.128z"/>
	<polygon points="69.153,83.46 74.185,77.698 79.075,77.698 73.732,83.579 79.22,92.908 74.44,92.908 70.821,86.372 69.153,88.097 
		69.153,92.908 65.171,92.908 65.171,77.698 69.153,77.698 	"/>
	<path d="M93.811,85.27c0,5.483-3.678,8.031-7.751,8.031c-4.068,0-7.766-2.516-7.766-8.004c0-5.484,3.697-7.995,7.766-7.995
		C90.133,77.302,93.811,79.787,93.811,85.27 M82.389,85.27c0,1.95,0.591,4.666,3.671,4.666c3.085,0,3.649-2.685,3.649-4.639
		c0-1.946-0.564-4.63-3.649-4.63C82.979,80.667,82.389,83.319,82.389,85.27"/>
	<path d="M95.096,77.696h6.866c3.391,0,5.879,1.388,5.879,3.93c0,1.755-1.244,2.878-2.825,3.278c1.549,0.365,3.28,1.356,3.28,3.844
		c0,2.825-2.123,4.16-5.568,4.16h-7.632V77.696z M99.083,83.859h2.597c1.328,0,2.261-0.54,2.261-1.721
		c0-1.251-0.902-1.702-2.229-1.702h-2.629V83.859z M99.083,90.163h2.938c1.465,0,2.369-0.453,2.369-1.952
		c0-1.329-0.961-1.95-2.429-1.95h-2.879V90.163z"/>
	<path d="M124.263,85.27c0,5.483-3.677,8.031-7.742,8.031c-4.073,0-7.782-2.516-7.782-8.004c0-5.484,3.709-7.995,7.782-7.995
		C120.586,77.302,124.263,79.787,124.263,85.27 M112.839,85.27c0,1.95,0.598,4.666,3.682,4.666c3.071,0,3.644-2.685,3.644-4.639
		c0-1.946-0.572-4.63-3.644-4.63C113.437,80.667,112.839,83.319,112.839,85.27"/>
	<path d="M28.989,68.409c3.399,0,11.764-0.602,18.017-5.165v3.468H59.63l0.002-15.224l5.283-5.464l11.458,20.688H91.51
		l-17.369-29.55l16.922-18.628H75.569L59.632,36.807V1.7H47.01v5.552C43.156,3.135,36.922,0,27.205,0
		C6.164,0,2.221,12.807,2.221,19.968c0,9.851,5.284,15.317,14.508,17.555l13.072,3.219c6.895,1.7,11.821,2.955,11.821,8.063
		c0,6.808-7.167,8.416-13.613,8.416c-11.819,0-13.791-6.895-13.791-10.569H1.238C1.238,54.71,5.354,68.409,28.989,68.409
		 M37.589,29.644l-15.843-3.854c-2.688-0.625-6.896-1.7-6.896-6.802c0-5.825,6.175-7.791,11.371-7.791
		c11.82,0,12.896,6.897,13.25,9.847h7.54v12.121C44.247,31.546,40.975,30.498,37.589,29.644"/>
</g>
</svg>
