<?xml version="1.0" encoding="iso-8859-1"?>
<!-- Generator: Adobe Illustrator 20.1.0, SVG Export Plug-In . SVG Version: 6.00 Build 0)  -->
<svg version="1.1" id="Layer_1" xmlns="http://www.w3.org/2000/svg" xmlns:xlink="http://www.w3.org/1999/xlink" x="0px" y="0px"
	 viewBox="15 140.999 384 512.001" style="enable-background:new 15 140.999 384 512.001;" xml:space="preserve">
<path d="M373.243,571.197C389.818,544.346,399,514.08,399,482.334c0-73.952-46.664-138.103-116.374-161.483
	c-9.379-15.152-24.776-26.092-42.94-29.37l9.98-19.96c2.635-5.271,0.5-11.677-4.771-14.313l9.542-19.083
	c5.271,2.615,11.656,0.5,14.312-4.771l22.458-44.917c2.635-5.271,0.5-11.677-4.771-14.313l-64-32
	c-5.281-2.625-11.667-0.51-14.313,4.771l-22.458,44.917c-2.635,5.271-0.5,11.677,4.771,14.313l-9.542,19.083
	c-5.26-2.615-11.677-0.5-14.313,4.771L80.125,402.897c-2.635,5.271-0.5,11.677,4.771,14.313l64,32
	c1.531,0.76,3.156,1.125,4.76,1.125c3.917,0,7.677-2.156,9.552-5.896l21.694-43.382c11.431,10.632,26.625,17.277,43.431,17.277
	c14.004,0,26.863-4.65,37.411-12.307c29.22,14.289,47.922,43.49,47.922,76.307c0,47.052-38.281,85.333-85.333,85.333H143v-21.333h32
	c5.896,0,10.667-4.771,10.667-10.667c0-5.896-4.771-10.667-10.667-10.667h-42.667h-64H25.667c-5.896,0-10.667,4.771-10.667,10.667
	c0,5.896,4.771,10.667,10.667,10.667h32v21.333C34.135,567.667,15,586.803,15,610.334v32c0,5.896,4.771,10.667,10.667,10.667
	h362.667c5.896,0,10.667-4.771,10.667-10.667v-32C399,592.814,388.375,577.761,373.243,571.197z M228.333,375.667
	c-11.76,0-21.333-9.573-21.333-21.333s9.573-21.333,21.333-21.333s21.333,9.573,21.333,21.333S240.094,375.667,228.333,375.667z"/>
</svg>
