<?xml version="1.0" encoding="iso-8859-1"?>
<!-- Generator: Adobe Illustrator 20.1.0, SVG Export Plug-In . SVG Version: 6.00 Build 0)  -->
<svg version="1.1" id="&#x421;&#x43B;&#x43E;&#x439;_1"
	 xmlns="http://www.w3.org/2000/svg" xmlns:xlink="http://www.w3.org/1999/xlink" x="0px" y="0px" viewBox="0 0 395.824 287.488"
	 style="enable-background:new 0 0 395.824 287.488;" xml:space="preserve">
<path d="M359.743,174.524c-4.496-2.484-10.203-1.937-15.66,1.496l-100.758,63.45c-2.801,1.765-3.645,5.468-1.879,8.273
	c1.766,2.805,5.473,3.645,8.273,1.879l100.758-63.445c2.129-1.34,3.293-1.243,3.465-1.149c0.176,0.098,0.879,1.027,0.879,3.543
	c0,6.758-5.016,15.848-10.738,19.449l-97.676,61.508c-5.195,3.27-9.945,4.168-13.028,2.469c-3.085-1.703-4.855-6.203-4.855-12.34
	c0-15.551,11.117-35.687,24.277-43.973l111.219-70.035c1.742-1.097,2.801-3.015,2.801-5.078c0-2.058-1.059-3.976-2.801-5.078
	L150.313,0.923c-1.957-1.231-4.441-1.231-6.394,0L40.422,62.602c-15.996,10.075-28.527,32.774-28.527,51.676v3.199
	c0,18.907,12.531,41.606,28.527,51.676L226.985,282.15c2.805,1.765,6.508,0.926,8.273-1.879c1.766-2.805,0.926-6.508-1.879-8.274
	L46.817,159.001c-12.426-7.824-22.922-26.84-22.922-41.524v-3.199c0-14.683,10.496-33.695,22.922-41.519l100.297-59.668
	l202.445,127.48l-103.152,64.957c-16.758,10.551-29.883,34.328-29.883,54.129c0,10.797,3.926,18.91,11.055,22.844
	c2.863,1.582,6.019,2.363,9.367,2.363c4.984,0,10.387-1.738,15.851-5.18l97.68-61.507c9.164-5.774,16.344-18.774,16.344-29.606
	C366.821,182.126,364.243,177.009,359.743,174.524L359.743,174.524z M359.743,174.524"/>
<polygon style="fill:none;" points="0,4.132 367.617,0.001 395.824,283.357 28.207,287.488 "/>
<path d="M285.747,146.571c1.996,0,3.945-0.992,5.086-2.801c1.765-2.804,0.922-6.511-1.883-8.277L150.313,48.192
	c-2.805-1.765-6.512-0.922-8.277,1.883c-1.766,2.805-0.922,6.508,1.883,8.273l138.636,87.301
	C283.551,146.274,284.657,146.571,285.747,146.571L285.747,146.571z M285.747,146.571"/>
<path d="M261.762,162.497c1.996,0,3.95-1,5.086-2.817c1.762-2.804,0.914-6.507-1.894-8.269l-58.571-36.723
	c-2.808-1.761-6.507-0.91-8.269,1.895c-1.762,2.808-0.91,6.512,1.898,8.269l58.567,36.727
	C259.571,162.2,260.672,162.497,261.762,162.497L261.762,162.497z M261.762,162.497"/>
<path d="M181.938,130.477c-2.809-1.754-6.512-0.898-8.266,1.914c-1.753,2.813-0.898,6.512,1.911,8.266l59.019,36.852
	c0.988,0.617,2.086,0.91,3.172,0.91c2,0,3.957-1,5.098-2.824c1.754-2.809,0.898-6.512-1.914-8.266L181.938,130.477z
	 M181.938,130.477"/>
<path d="M118.985,63.895L69.122,95.298c-1.75,1.101-2.809,3.027-2.805,5.093c0.008,2.071,1.078,3.989,2.832,5.082l59.469,36.973
	c0.969,0.606,2.07,0.906,3.168,0.906c1.133,0,2.265-0.32,3.258-0.961l38.773-25.057c2.785-1.797,3.582-5.512,1.785-8.293
	c-1.801-2.785-5.516-3.582-8.297-1.785l-35.582,22.991l-48.094-29.902l38.559-24.286l47.395,29.719l-5.524,3.57
	c-2.785,1.801-3.582,5.512-1.781,8.297c1.797,2.782,5.512,3.578,8.293,1.782l13.441-8.688c1.723-1.113,2.758-3.027,2.743-5.082
	c-0.012-2.047-1.075-3.949-2.813-5.039l-58.574-36.727C123.415,62.665,120.934,62.669,118.985,63.895L118.985,63.895z
	 M118.985,63.895"/>
<path d="M218.887,191.509c1.75-2.817,0.887-6.516-1.925-8.262l-59.469-36.977c-2.817-1.754-6.516-0.89-8.266,1.926
	c-1.75,2.813-0.887,6.512,1.93,8.262l59.469,36.976c0.984,0.614,2.082,0.907,3.16,0.907
	C215.794,194.341,217.751,193.337,218.887,191.509L218.887,191.509z M218.887,191.509"/>
<path d="M45.637,114.723c-1.75,2.813-0.886,6.512,1.93,8.262l146.781,91.266c0.985,0.613,2.082,0.906,3.164,0.906
	c2.004,0,3.965-1.004,5.098-2.832c1.75-2.816,0.887-6.516-1.926-8.266L53.903,112.794C51.087,111.044,47.387,111.907,45.637,114.723
	L45.637,114.723z M45.637,114.723"/>
</svg>
