<?xml version="1.0" encoding="iso-8859-1"?>
<!-- Generator: Adobe Illustrator 20.1.0, SVG Export Plug-In . SVG Version: 6.00 Build 0)  -->
<svg version="1.1" id="&#x420;&#x435;&#x436;&#x438;&#x43C;_&#x438;&#x437;&#x43E;&#x43B;&#x44F;&#x446;&#x438;&#x438;"
	 xmlns="http://www.w3.org/2000/svg" xmlns:xlink="http://www.w3.org/1999/xlink" x="0px" y="0px" viewBox="0 0 371.441 348.727"
	 style="enable-background:new 0 0 371.441 348.727;" xml:space="preserve">
<path d="M332.512,66.805h-7.496V6c0-3.312-2.688-6-6-6H230.48c-3.312,0-6,2.688-6,6v60.805h-34.75
	c-20.171,0-26.128,6.648-39.183,21.215c-3.074,3.429-6.508,7.265-10.719,11.715h-9.363v-13.43c0-7.059-5.742-12.797-12.801-12.797
	H73.379c-7.059,0-12.801,5.738-12.801,12.797v13.43h-9.816C22.77,99.735,0,122.504,0,150.492v155.954
	c0,11.304,4.281,21.906,12.059,29.851c7.843,8.016,18.379,12.43,29.664,12.43h287.441c23.313,0,42.277-18.969,42.277-42.281V105.735
	C371.441,84.27,353.977,66.805,332.512,66.805L332.512,66.805z M236.48,12h76.536v30.399H236.48V12z M236.48,54.399h76.536v12.406
	H236.48V54.399z M72.578,86.305c0-0.442,0.36-0.797,0.801-0.797h44.285c0.441,0,0.797,0.355,0.797,0.797v13.43H72.578V86.305z
	 M50.762,111.735c21.371,0,38.758,17.386,38.758,38.757c0,21.375-17.387,38.762-38.758,38.762C29.387,189.254,12,171.867,12,150.492
	C12,129.121,29.387,111.735,50.762,111.735L50.762,111.735z M359.441,306.446c0,16.695-13.582,30.281-30.277,30.281H41.723
	C25.055,336.727,12,323.426,12,306.446V183.219c9.32,11.019,23.234,18.035,38.762,18.035c15.527,0,29.441-7.016,38.758-18.035V340
	c0,3.312,2.687,6,6,6c3.316,0,6-2.688,6-6V150.492c0-15.527-7.016-29.441-18.036-38.757h58.914c1.637,0,3.2-0.668,4.332-1.848
	c5.168-5.395,9.375-10.09,12.754-13.859c12.774-14.258,15.43-17.223,30.243-17.223h142.785c14.847,0,26.929,12.082,26.929,26.93
	V306.446z M359.441,306.446"/>
<path d="M230.48,102.965c-57.785,0-104.796,47.012-104.796,104.801c0,57.785,47.011,104.797,104.796,104.797
	c57.79,0,104.801-47.012,104.801-104.797C335.281,149.977,288.27,102.965,230.48,102.965L230.48,102.965z M230.48,300.563
	c-51.168,0-92.796-41.629-92.796-92.797c0-51.172,41.628-92.801,92.796-92.801c51.172,0,92.801,41.629,92.801,92.801
	C323.281,258.934,281.652,300.563,230.48,300.563L230.48,300.563z M230.48,300.563"/>
<path d="M230.48,126.965c-44.55,0-80.8,36.246-80.8,80.801c0,44.551,36.25,80.797,80.8,80.797c44.555,0,80.801-36.246,80.801-80.797
	C311.281,163.211,275.035,126.965,230.48,126.965L230.48,126.965z M230.48,276.563c-37.937,0-68.8-30.864-68.8-68.797
	c0-37.938,30.863-68.801,68.8-68.801c37.938,0,68.801,30.863,68.801,68.801C299.281,245.699,268.418,276.563,230.48,276.563
	L230.48,276.563z M230.48,276.563"/>
<path d="M50.762,177.254c14.754,0,26.758-12.004,26.758-26.758c0-14.758-12.004-26.761-26.758-26.761
	C36.004,123.735,24,135.738,24,150.492C24,165.25,36.004,177.254,50.762,177.254L50.762,177.254z M50.762,135.735
	c8.136,0,14.758,6.621,14.758,14.757c0,8.141-6.622,14.762-14.758,14.762c-8.141,0-14.762-6.621-14.762-14.762
	C36,142.356,42.621,135.735,50.762,135.735L50.762,135.735z M50.762,135.735"/>
</svg>
