<?xml version="1.0" encoding="iso-8859-1"?>
<!-- Generator: Adobe Illustrator 20.1.0, SVG Export Plug-In . SVG Version: 6.00 Build 0)  -->
<svg version="1.1" id="&#x421;&#x43B;&#x43E;&#x439;_1"
	 xmlns="http://www.w3.org/2000/svg" xmlns:xlink="http://www.w3.org/1999/xlink" x="0px" y="0px" viewBox="0 0 436.015 512.352"
	 style="enable-background:new 0 0 436.015 512.352;" xml:space="preserve">
<path d="M0,66.348v436.523c0,5.235,4.246,9.481,9.48,9.481h360.188c5.23,0,9.472-4.246,9.472-9.481V161.137
	c0-0.211-0.101-0.391-0.121-0.598c-0.047-0.832-0.211-1.648-0.484-2.434c-0.106-0.304-0.18-0.597-0.313-0.894
	c-0.461-1.031-1.097-1.973-1.894-2.777l-94.785-94.786c-0.805-0.8-1.75-1.437-2.789-1.894c-0.285-0.121-0.575-0.223-0.871-0.313
	c-0.793-0.273-1.614-0.437-2.454-0.492c-0.16,0.028-0.347-0.074-0.546-0.074H9.48C4.246,56.875,0,61.113,0,66.348L0,66.348z
	 M346.781,151.656h-62.422V89.234L346.781,151.656z M18.957,75.828h246.445v85.309c0,5.234,4.242,9.476,9.477,9.476h85.308v322.782
	H18.957V75.828z M18.957,75.828"/>
<path d="M398.101,436.524v18.953h28.434c5.238,0,9.48-4.238,9.48-9.477V9.48c0-5.238-4.242-9.48-9.48-9.48H66.351
	c-5.238,0-9.48,4.242-9.48,9.48v28.434h18.957V18.957h341.226v417.567H398.101z M398.101,436.524"/>
<rect x="75.828" y="235.574" width="227.484" height="18.953"/>
<rect x="75.828" y="178.699" width="75.832" height="18.957"/>
<rect x="75.828" y="292.441" width="151.66" height="18.961"/>
<rect x="246.441" y="292.441" width="56.871" height="18.961"/>
<rect x="75.828" y="349.312" width="227.484" height="18.961"/>
<rect x="161.133" y="406.188" width="142.18" height="18.953"/>
<rect x="75.828" y="406.188" width="66.352" height="18.953"/>
</svg>
