<?xml version="1.0" encoding="iso-8859-1"?>
<!-- Generator: Adobe Illustrator 20.1.0, SVG Export Plug-In . SVG Version: 6.00 Build 0)  -->
<svg version="1.1" id="&#x421;&#x43B;&#x43E;&#x439;_1"
	 xmlns="http://www.w3.org/2000/svg" xmlns:xlink="http://www.w3.org/1999/xlink" x="0px" y="0px" viewBox="0 0 372 342.398"
	 style="enable-background:new 0 0 372 342.398;" xml:space="preserve">
<g>
	<path d="M156.723,195.309c1.039,0,2.074-0.27,3-0.805l86.789-50.109c1.855-1.071,3-3.051,3-5.196c0-2.144-1.145-4.125-3-5.195
		l-86.789-50.109c-1.856-1.071-4.145-1.071-6,0c-1.856,1.074-3,3.054-3,5.199v100.215c0,2.144,1.144,4.125,3,5.195
		C154.652,195.039,155.688,195.309,156.723,195.309L156.723,195.309z M162.723,99.484l68.789,39.715l-68.789,39.715V99.484z
		 M162.723,99.484"/>
	<path d="M185.59,45.879c-22.684,0-44.555,8.238-61.578,23.195c-16.864,14.821-27.828,35.176-30.871,57.309
		c-0.45,3.281,1.847,6.308,5.129,6.762c3.281,0.453,6.308-1.844,6.761-5.129c5.496-39.985,40.129-70.137,80.559-70.137
		c44.844,0,81.324,36.48,81.324,81.32s-36.48,81.324-81.324,81.324c-40.43,0-75.063-30.156-80.559-70.14
		c-0.453-3.285-3.476-5.586-6.761-5.129c-3.282,0.453-5.579,3.48-5.129,6.762c3.043,22.136,14.007,42.488,30.871,57.308
		c17.023,14.957,38.894,23.199,61.578,23.199c51.461,0,93.324-41.863,93.324-93.324C278.914,87.742,237.051,45.879,185.59,45.879
		L185.59,45.879z M185.59,45.879"/>
	<path d="M334,298.398H38c-3.312,0-6,2.688-6,6c0,3.317,2.688,6,6,6h296c3.312,0,6-2.683,6-6
		C340,301.086,337.312,298.398,334,298.398L334,298.398z M334,298.398"/>
	<path d="M366,0H6C2.688,0,0,2.688,0,6v330.398c0,3.317,2.688,6,6,6h360c3.312,0,6-2.683,6-6V6C372,2.688,369.312,0,366,0L366,0z
		 M12,12h348v254.398H12V12z M12,330.398v-52h348v52H12z M12,330.398"/>
</g>
</svg>
