<?xml version="1.0" encoding="iso-8859-1"?>
<!-- Generator: Adobe Illustrator 20.1.0, SVG Export Plug-In . SVG Version: 6.00 Build 0)  -->
<svg version="1.1" id="Layer_1" xmlns="http://www.w3.org/2000/svg" xmlns:xlink="http://www.w3.org/1999/xlink" x="0px" y="0px"
	 viewBox="35 249.4 369.608 306.8" style="enable-background:new 35 249.4 369.608 306.8;" xml:space="preserve">
<path style="fill:#00005A;" d="M215,391l-29.2-23.6v-27.2c0-2-1.6-4-4-4c-2,0-4,1.6-4,4v27.2L148.6,391c-1.2,0.8-1.6,2-1.6,3.2v17.6
	c0,0.8,0.8,1.6,1.6,1.6h7.6v-8H155v-9.2l26.8-21.6l26.8,21.6v9.2h-1.2v8h7.6c0.8,0,1.6-0.8,1.6-1.6v-17.6
	C216.6,393,215.8,391.8,215,391z"/>
<path style="fill:#00005A;" d="M373.8,540.2H154.6c-17.2,0-30.8-14-30.8-30.8l0,0c0-17.2,14-30.8,30.8-30.8h219.2
	c17.2,0,30.8,14,30.8,30.8l0,0C405,526.2,391,540.2,373.8,540.2z"/>
<g>
	<g>
		<circle style="fill:#6D62C4;" cx="373.8" cy="509.4" r="14.4"/>
		<circle style="fill:#6D62C4;" cx="154.6" cy="509.4" r="14.4"/>
		<circle style="fill:#6D62C4;" cx="209.4" cy="509.4" r="14.4"/>
		<circle style="fill:#6D62C4;" cx="264.2" cy="509.4" r="14.4"/>
		<circle style="fill:#6D62C4;" cx="319" cy="509.4" r="14.4"/>
		<rect x="155" y="540.2" style="fill:#6D62C4;" width="218.8" height="16"/>
	</g>
</g>
<path style="fill:#FDBF00;" d="M374.2,478.2h-44.8c-1.6,0-3.2-1.6-3.2-3.2v-44.8c0-1.6,1.6-3.2,3.2-3.2h44.8c1.6,0,3.2,1.6,3.2,3.2
	V475C377.4,477,375.8,478.2,374.2,478.2z"/>
<rect x="344.6" y="427.4" style="fill:#E6E9EE;" width="14.4" height="5.2"/>
<path style="fill:#FDBF00;" d="M301,478.2h-44.8c-1.6,0-3.2-1.6-3.2-3.2v-44.8c0-1.6,1.6-3.2,3.2-3.2H301c1.6,0,3.2,1.6,3.2,3.2V475
	C304.2,477,303,478.2,301,478.2z"/>
<rect x="271.8" y="427.4" style="fill:#E6E9EE;" width="14.4" height="5.2"/>
<path style="fill:#00005A;" d="M193,299v40.8c0,3.2-1.2,6-3.2,8s-4.8,3.2-8,3.2c-6.4,0-11.2-5.2-11.2-11.2V299
	c3.6,1.6,7.2,2.8,11.2,2.8S189.4,300.6,193,299z"/>
<path style="fill:#FDBF00;" d="M204.2,451.4h-44.8c-1.6,0-3.2-1.6-3.2-3.2v-44.8c0-1.6,1.6-3.2,3.2-3.2h44.8c1.6,0,3.2,1.6,3.2,3.2
	v44.8C207.4,450.2,205.8,451.4,204.2,451.4z"/>
<rect x="174.6" y="400.6" style="fill:#E6E9EE;" width="14.4" height="5.2"/>
<g>
	<path style="fill:#00005A;" d="M79.8,297.8V441c-4-2-8.4-2.8-13.2-2.8c-4.8,0-9.2,1.2-13.2,2.8V297.8c4,2.4,8.4,3.6,13.2,3.6
		S75.8,300.2,79.8,297.8z"/>
	<path style="fill:#00005A;" d="M155.8,275.4c0,4.8,1.2,9.6,3.6,13.2H89c2.4-4,3.6-8.4,3.6-13.2s-1.2-9.2-3.6-13.2h70.8
		C157,266.2,155.8,270.6,155.8,275.4z"/>
</g>
<path style="fill:#6D62C4;" d="M98.2,556.2H35v-86.4c0-17.6,14-31.6,31.6-31.6l0,0c17.6,0,31.6,14,31.6,31.6V556.2z"/>
<circle style="fill:#00005A;" cx="66.6" cy="469.8" r="18.8"/>
<circle style="fill:#6D62C4;" cx="66.6" cy="275.4" r="26"/>
<circle style="fill:#00005A;" cx="66.6" cy="275.4" r="16.4"/>
<circle style="fill:#6D62C4;" cx="181.8" cy="275.4" r="26"/>
<circle style="fill:#00005A;" cx="181.8" cy="275.4" r="16.4"/>
</svg>
