<?xml version="1.0" encoding="iso-8859-1"?>
<!-- Generator: Adobe Illustrator 20.1.0, SVG Export Plug-In . SVG Version: 6.00 Build 0)  -->
<svg version="1.1" id="&#x421;&#x43B;&#x43E;&#x439;_1"
	 xmlns="http://www.w3.org/2000/svg" xmlns:xlink="http://www.w3.org/1999/xlink" x="0px" y="0px" viewBox="0 0 512 470"
	 style="enable-background:new 0 0 512 470;" xml:space="preserve">
<path style="fill:#6376E3;" d="M301,394.703v30c0,24.899-20.098,45-45,45c-24.902,0-45-20.101-45-45v-30c0-8.402,6.598-15,15-15h60
	C294.402,379.703,301,386.301,301,394.703L301,394.703z M301,394.703"/>
<path style="fill:#7452AC;" d="M301,394.703v30c0,24.899-20.098,45-45,45v-90h30C294.402,379.703,301,386.301,301,394.703
	L301,394.703z M301,394.703"/>
<path style="fill:#FFD42B;" d="M256,19.703c-94.199,0-165,75.899-165,165c0,53.399,25.5,103.5,70.199,135
	c12.301,8.699,19.801,24,19.801,41.098v3.902c0,24.899,20.098,45,45,45h60c24.902,0,45-20.101,45-45v-4.801
	c0-16.199,8.699-31.8,23.699-43.199c42-31.5,66.301-79.5,66.301-132C421,94.102,348.102,20.004,256,19.703L256,19.703z M256,19.703"
	/>
<path style="fill:#FFB234;" d="M421,184.703c0,52.5-24.301,100.5-66.301,132c-15,11.399-23.699,27-23.699,43.199v4.801
	c0,24.899-20.098,45-45,45h-30v-390C348.102,20.004,421,94.102,421,184.703L421,184.703z M421,184.703"/>
<path style="opacity:0.3;fill:#F4D7AF;" d="M497,199.703h-31c-8.289,0-15-6.711-15-15c0-8.293,6.711-15,15-15h31
	c8.289,0,15,6.707,15,15C512,192.992,505.289,199.703,497,199.703L497,199.703z M497,199.703"/>
<g style="opacity:0.3;">
	<defs>
		<rect id="SVGID_1_" y="0" style="opacity:0.3;" width="512" height="470"/>
	</defs>
	<clipPath id="SVGID_2_">
		<use xlink:href="#SVGID_1_"  style="overflow:visible;"/>
	</clipPath>
	<path style="clip-path:url(#SVGID_2_);fill:#FAECD8;" d="M46,199.703H15c-8.289,0-15-6.711-15-15c0-8.293,6.711-15,15-15h31
		c8.289,0,15,6.707,15,15C61,192.992,54.289,199.703,46,199.703L46,199.703z M46,199.703"/>
	<path style="clip-path:url(#SVGID_2_);fill:#F4D7AF;" d="M393.887,46.816c-5.86-5.859-5.86-15.351,0-21.211l21.211-21.21
		c5.859-5.86,15.351-5.86,21.211,0c5.859,5.859,5.859,15.351,0,21.21l-21.211,21.211C409.238,52.676,399.746,52.676,393.887,46.816
		L393.887,46.816z M393.887,46.816"/>
	<path style="clip-path:url(#SVGID_2_);fill:#FAECD8;" d="M75.691,365.012c-5.859-5.86-5.859-15.352,0-21.211l21.211-21.211
		c5.86-5.86,15.352-5.86,21.211,0c5.86,5.855,5.86,15.351,0,21.211l-21.211,21.211C91.043,370.871,81.551,370.871,75.691,365.012
		L75.691,365.012z M75.691,365.012"/>
	<path style="clip-path:url(#SVGID_2_);fill:#FAECD8;" d="M96.902,46.816L75.691,25.605c-5.859-5.859-5.859-15.351,0-21.21
		c5.86-5.86,15.352-5.86,21.211,0l21.211,21.21c5.86,5.86,5.86,15.352,0,21.211C112.254,52.676,102.762,52.676,96.902,46.816
		L96.902,46.816z M96.902,46.816"/>
</g>
<path style="opacity:0.3;fill:#F4D7AF;" d="M415.098,365.012l-21.211-21.211c-5.86-5.86-5.86-15.356,0-21.211
	c5.859-5.86,15.351-5.86,21.211,0l21.211,21.211c5.859,5.859,5.859,15.351,0,21.211
	C430.449,370.871,420.957,370.871,415.098,365.012L415.098,365.012z M415.098,365.012"/>
<path style="fill:#FDBF00;" d="M339.402,202.102l-79.203-52.5l24.301-48.301c3.301-6.598,1.199-14.399-4.801-18.899
	c-6-4.199-14.097-3.601-19.199,1.801l-90,90c-3.301,3-4.801,7.5-4.5,12c0.602,4.5,3,8.399,6.598,11.098l79.203,52.5L227.5,298.102
	c-3.301,6.601-1.199,14.402,4.801,18.902c6,4.199,14.097,3.598,19.199-1.801l90-90c3.301-3,4.801-7.5,4.5-12
	C345.398,208.703,343,204.801,339.402,202.102L339.402,202.102z M339.402,202.102"/>
<path style="fill:#FF9F00;" d="M346,213.203c0.301,4.5-1.199,9-4.5,12l-85.5,85.5v-222l4.5-4.5c5.102-5.402,13.199-6,19.199-1.801
	c6,4.5,8.102,12.301,4.801,18.899l-24.301,48.301l79.203,52.5C343,204.801,345.398,208.703,346,213.203L346,213.203z M346,213.203"
	/>
</svg>
