<?xml version="1.0" encoding="iso-8859-1"?>
<!-- Generator: Adobe Illustrator 20.1.0, SVG Export Plug-In . SVG Version: 6.00 Build 0)  -->
<svg version="1.1" id="Capa_1" xmlns="http://www.w3.org/2000/svg" xmlns:xlink="http://www.w3.org/1999/xlink" x="0px" y="0px"
	 viewBox="-49 186.846 512 420.309" style="enable-background:new -49 186.846 512 420.309;" xml:space="preserve">
<path style="fill:#FFD42B;" d="M402.13,547.114v45.03c0,8.405-6.603,15.01-15.01,15.01H26.878c-8.407,0-15.01-6.605-15.01-15.01
	v-45.03l37.525-30.02h325.42L402.13,547.114z"/>
<path style="fill:#FFB234;" d="M402.13,547.114v45.03c0,8.405-6.603,15.01-15.01,15.01H206.999v-90.06h167.814L402.13,547.114z"/>
<path style="fill:#00005A;stroke:#2300D0;stroke-miterlimit:10;" d="M127.639,371.449l-37.951-81.412
	c-3.518-7.505-12.445-10.73-19.95-7.256l-54.427,25.373c-7.505,3.503-10.759,12.43-7.256,19.95l45.279,97.082
	c2.551,5.453,7.959,8.663,13.617,8.663l53.43-42.451C127.888,387.895,131.142,378.968,127.639,371.449z"/>
<path style="fill:#00005A;stroke:#2300D0;stroke-miterlimit:10;" d="M398.686,308.154l-54.427-25.373
	c-7.505-3.444-16.432-0.234-19.95,7.256l-37.951,81.412c-3.503,7.52-0.249,16.447,7.256,19.95l53.43,42.451
	c5.658,0,11.067-3.21,13.617-8.663l45.279-97.082C409.445,320.585,406.191,311.658,398.686,308.154z"/>
<path style="fill:#6376E3;" d="M342.09,261.922c0,8.405-6.603,15.01-15.01,15.01h-30.02c-5.704,0-10.807-3.302-13.509-8.407
	l-18.312-36.924l-45.632,68.745c-3.001,4.203-7.505,6.605-12.607,6.605c-5.102,0-9.606-2.403-12.607-6.605l-45.632-68.746
	l-18.312,36.924c-2.703,5.104-7.805,8.407-13.509,8.407h-30.02c-8.407,0-15.01-6.605-15.01-15.01c0-8.407,6.603-15.01,15.01-15.01
	h20.714l25.817-51.636c2.403-4.802,7.205-8.104,12.607-8.405c5.406-0.3,10.508,2.101,13.509,6.603l47.433,71.448l47.433-71.448
	c3.001-4.502,8.104-6.904,13.509-6.603c5.404,0.3,10.206,3.602,12.607,8.405l25.817,51.636h20.714
	C335.486,246.912,342.09,253.516,342.09,261.922z"/>
<path style="fill:#6D62C4;" d="M219.606,300.347c-3.001,4.203-7.505,6.605-12.607,6.605v-42.029l47.433-71.448
	c3.001-4.502,8.104-6.904,13.509-6.603c5.404,0.3,10.206,3.602,12.607,8.405l25.817,51.636h20.714c8.407,0,15.01,6.603,15.01,15.01
	c0,8.405-6.603,15.01-15.01,15.01h-30.02c-5.704,0-10.807-3.302-13.509-8.407l-18.312-36.924L219.606,300.347z"/>
<path style="fill:#6376E3;" d="M-42.122,293.657c-17.517-37.579-0.311-82.192,37.295-99.735
	c37.544-17.559,82.202-1.289,99.735,36.294c17.517,37.579,1.312,82.192-36.294,99.735C21.111,347.449-24.555,331.315-42.122,293.657
	z"/>
<path style="fill:#7452AC;" d="M355.385,329.951c-37.575-17.529-53.826-62.122-36.294-99.735
	c17.525-37.565,62.152-53.857,99.735-36.294c37.575,17.529,54.827,62.122,37.295,99.735
	C438.555,331.311,392.888,347.449,355.385,329.951z"/>
<path style="fill:#E2E2E7;" d="M402.13,532.104v15.01H11.868v-15.01c0-107.473,87.658-195.131,195.131-195.131
	S402.13,424.631,402.13,532.104z"/>
<path style="fill:#D3D3D8;" d="M402.13,532.104v15.01H206.999V336.973C314.471,336.973,402.13,424.631,402.13,532.104z"/>
<path style="fill:#FFD42B;" d="M222.009,472.063c0,8.405-6.603,15.01-15.01,15.01c-8.407,0-15.01-6.605-15.01-15.01
	c0-8.407,6.603-15.01,15.01-15.01C215.406,457.053,222.009,463.657,222.009,472.063z"/>
<circle style="fill:#FFB234;" cx="267.042" cy="472.062" r="15.01"/>
<circle style="fill:#FFD42B;" cx="146.962" cy="472.062" r="15.01"/>
<path style="fill:#FFB234;" d="M206.999,487.074v-30.02c8.407,0,15.01,6.603,15.01,15.01
	C222.009,480.468,215.406,487.074,206.999,487.074z"/>
</svg>
