<?xml version="1.0" encoding="iso-8859-1"?>
<!-- Generator: Adobe Illustrator 20.1.0, SVG Export Plug-In . SVG Version: 6.00 Build 0)  -->
<svg version="1.1" id="Capa_1" xmlns="http://www.w3.org/2000/svg" xmlns:xlink="http://www.w3.org/1999/xlink" x="0px" y="0px"
	 viewBox="-49 141.013 495.501 511.973" style="enable-background:new -49 141.013 495.501 511.973;" xml:space="preserve">
<path style="fill:#6376E3;" d="M446.479,315.729v73.502h-73.502v-73.502c0-20.336,16.415-36.751,36.751-36.751
	C430.064,278.978,446.479,295.394,446.479,315.729z"/>
<path style="fill:#7452AC;" d="M446.479,389.231h-36.751V278.978c20.336,0,36.751,16.415,36.751,36.751V389.231z"/>
<path style="fill:#FDBF00;" d="M446.479,389.231v147.004h-73.502V389.231c0-20.336,16.415-36.751,36.751-36.751
	C430.064,352.48,446.479,368.896,446.479,389.231z"/>
<path style="fill:#FF9F00;" d="M446.479,389.231v147.004h-36.751V352.48C430.064,352.48,446.479,368.896,446.479,389.231z"/>
<path style="fill:#FFCEBF;" d="M446.479,536.235c0-11.761-15.435-29.892-36.751-29.892c-22.051,0-36.751,19.111-36.751,29.892
	c0,2.94-0.979-1.225,25.237,77.421c1.47,4.9,6.125,8.331,11.514,8.331c5.389,0,10.044-3.43,11.514-8.331
	C448.194,532.315,446.479,538.93,446.479,536.235z"/>
<path style="fill:#FFBFAB;" d="M421.242,613.658c-1.47,4.9-6.125,8.331-11.514,8.331V506.344c21.316,0,36.751,18.131,36.751,29.892
	C446.479,538.93,448.194,532.315,421.242,613.658z"/>
<path style="fill:#FDBF00;" d="M341.979,246.007v361.981c0,24.898-20.098,44.998-44.998,44.998H-4.002
	c-24.9,0-44.998-20.1-44.998-44.998V246.007c0-24.9,20.098-44.998,44.998-44.998h300.984
	C321.881,201.01,341.979,221.109,341.979,246.007z"/>
<path style="fill:#FF9F00;" d="M341.979,246.007v361.981c0,24.898-20.098,44.998-44.998,44.998H146.99V201.01h149.992
	C321.881,201.01,341.979,221.109,341.979,246.007z"/>
<path style="fill:#ECECF1;" d="M311.981,246.007v361.981c0,8.399-6.599,14.999-14.999,14.999H-4.002
	c-8.401,0-14.999-6.601-14.999-14.999V246.007c0-8.401,6.599-14.999,14.999-14.999h300.984
	C305.382,231.008,311.981,237.608,311.981,246.007z"/>
<path style="fill:#E2E2E7;" d="M311.981,246.007v361.981c0,8.399-6.599,14.999-14.999,14.999H146.99V231.008h149.992
	C305.382,231.008,311.981,237.608,311.981,246.007z"/>
<path style="fill:#4A696F;" d="M123.773,512.98c-3.34,0-6.694-1.113-9.492-3.398l-55.837-45.73
	c-6.401-5.244-7.354-14.691-2.095-21.107c5.229-6.401,14.677-7.354,21.107-2.095l55.837,45.73
	c6.401,5.244,7.354,14.691,2.095,21.107C132.429,511.105,128.124,512.98,123.773,512.98z"/>
<path style="fill:#3E5959;" d="M174.278,519.484c-5.684,0-11.117-3.237-13.651-8.745c-3.457-7.529-0.146-16.435,7.383-19.892
	l63.132-28.987c7.485-3.413,16.42-0.161,19.892,7.383c3.457,7.529,0.146,16.435-7.383,19.892l-63.132,28.987
	C178.497,519.044,176.373,519.484,174.278,519.484z"/>
<path style="fill:#4A696F;" d="M70.427,570.281c-5.508,0-10.795-3.032-13.432-8.291c-3.706-7.412-0.703-16.42,6.709-20.126
	l49.743-24.872c7.397-3.677,16.391-0.703,20.126,6.709c3.706,7.412,0.703,16.42-6.709,20.126L77.12,568.699
	C74.967,569.769,72.682,570.281,70.427,570.281z"/>
<g>
	<g>
		<path style="fill:#BDBDBD;" d="M281.983,307.004c0,8.399-6.599,14.999-14.999,14.999H26.996c-8.401,0-14.999-6.601-14.999-14.999
			c0-8.401,6.599-14.999,14.999-14.999h239.987C275.384,292.005,281.983,298.605,281.983,307.004z"/>
		<path style="fill:#BDBDBD;" d="M221.986,367.001c0,8.399-6.599,14.999-14.999,14.999H26.996c-8.401,0-14.999-6.601-14.999-14.999
			c0-8.401,6.599-14.999,14.999-14.999h179.991C215.387,352.002,221.986,358.602,221.986,367.001z"/>
	</g>
</g>
<path style="fill:#E2E2E7;" d="M206.987,171.011h-17.7c-5.999-17.4-22.797-29.998-42.297-29.998s-36.299,12.598-42.297,29.998h-17.7
	c-24.9,0-44.998,20.098-44.998,44.998v29.998c0,8.399,6.599,14.999,14.999,14.999h179.991c8.401,0,14.999-6.601,14.999-14.999
	v-29.998C251.984,191.11,231.886,171.011,206.987,171.011z"/>
<path style="fill:#8A8A8A;" d="M221.986,367.001c0,8.399-6.599,14.999-14.999,14.999H146.99v-29.998h59.997
	C215.387,352.002,221.986,358.602,221.986,367.001z"/>
<path style="fill:#D3D3D8;" d="M236.985,261.007H146.99V141.013c19.5,0,36.299,12.598,42.297,29.998h17.7
	c24.9,0,44.998,20.098,44.998,44.998v29.998C251.984,254.406,245.385,261.007,236.985,261.007z"/>
<path style="fill:#8A8A8A;" d="M281.983,307.004c0,8.399-6.599,14.999-14.999,14.999H146.99v-29.998h119.994
	C275.384,292.005,281.983,298.605,281.983,307.004z"/>
<g>
	<g>
		<path style="fill:#6376E3;" d="M56.994,471.996c-16.537,0-29.998-13.461-29.998-29.998c0-16.537,13.461-29.998,29.998-29.998
			s29.998,13.461,29.998,29.998C86.993,458.534,73.532,471.996,56.994,471.996z"/>
		<path style="fill:#6376E3;" d="M56.994,591.989c-16.537,0-29.998-13.461-29.998-29.998c0-16.537,13.461-29.998,29.998-29.998
			s29.998,13.461,29.998,29.998C86.993,578.528,73.532,591.989,56.994,591.989z"/>
	</g>
</g>
<path style="fill:#7452AC;" d="M251.984,501.994c-16.537,0-29.998-13.461-29.998-29.998c0-16.537,13.461-29.998,29.998-29.998
	s29.998,13.461,29.998,29.998C281.983,488.533,268.521,501.994,251.984,501.994z"/>
<path style="fill:#6376E3;" d="M146.99,471.996c-24.9,0-44.998,20.098-44.998,44.998c0,24.898,20.098,44.998,44.998,44.998
	s44.998-20.1,44.998-44.998C191.987,492.095,171.889,471.996,146.99,471.996z"/>
<path style="fill:#7452AC;" d="M191.987,516.993c0,24.898-20.098,44.998-44.998,44.998v-89.995
	C171.889,471.996,191.987,492.095,191.987,516.993z"/>
</svg>
