<?xml version="1.0" encoding="iso-8859-1"?>
<!-- Generator: Adobe Illustrator 20.1.0, SVG Export Plug-In . SVG Version: 6.00 Build 0)  -->
<svg version="1.1" id="Layer_1" xmlns="http://www.w3.org/2000/svg" xmlns:xlink="http://www.w3.org/1999/xlink" x="0px" y="0px"
	 viewBox="24.504 196.403 367.2 456.8" style="enable-background:new 24.504 196.403 367.2 456.8;" xml:space="preserve">
<path style="opacity:0.32;fill:#D3D3D8;" d="M258.904,417.603L258.904,417.603c-10.8,56.8-45.2,60.4-50.4,60.4
	c-5.2,0-39.6-3.6-50.4-60.8l0,0l4-14c12.8,16.4,28.8,28,46.4,28s33.6-11.6,46.4-28L258.904,417.603z"/>
<path style="fill:#E6E9EE;" d="M256.504,409.203c-12.8,17.6-29.6,30-48,30s-35.2-12.4-48-30l1.6-5.6c12.8,16.4,28.8,28,46.4,28
	s33.6-11.6,46.4-28L256.504,409.203z"/>
<path style="fill:#324A5E;" d="M357.304,481.203c-93.6-32-98.4-64-98.4-64c-10.8,57.2-45.2,60.8-50.4,60.8
	c-5.2,0-39.6-3.6-50.4-60.8c0,0-1.2,30-98.4,64c0,0-24.4,22.8-35.2,93.2c46.4,48.4,111.6,78.8,183.6,78.8
	c72.4,0,137.6-30.4,183.6-78.8C381.704,504.003,357.304,481.203,357.304,481.203z"/>
<path style="fill:#6376E3;" d="M309.704,461.603c-8.4-4.4-15.6-8.4-21.6-12l-8.4,118.8h-142.4l-8.4-118.8c-6,4-12.8,8-21.6,12
	c6.8,50.4-12.4,164.8-12.4,164.8c34,17.2,72.8,26.8,113.6,26.8s79.2-9.6,113.6-26.8
	C322.104,626.403,302.904,512.003,309.704,461.603z"/>
<path style="opacity:0.32;fill:#E2E2E7;" d="M274.904,338.403c2.8,12.8-2.8,34-3.2,36l0,0c-12.8,30.4-36.4,56.8-63.2,56.8
	s-50.4-26.4-63.2-56.8l0,0c-0.4-1.6-6-23.2-3.2-36.4h132.8V338.403z"/>
<g>
	<path style="fill:#324A5E;" d="M271.704,374.803c0,0,6.4-22.8,3.2-36.4h12.4C287.304,338.403,284.104,362.403,271.704,374.803z"/>
	<path style="fill:#324A5E;" d="M145.304,374.803c-12.4-12.4-15.6-36.4-15.6-36.4h12.4
		C138.904,352.003,145.304,374.803,145.304,374.803z"/>
</g>
<g>
	<path style="fill:#FF9F00;" d="M160.904,215.603l15.2,96h-53.2c-2-7.2-2.8-14.4-2.8-22.4
		C120.104,258.403,136.504,231.203,160.904,215.603z"/>
	<path style="fill:#FF9F00;" d="M296.904,289.603c0,7.6-1.2,15.2-3.2,22.4h-52.8l15.2-96
		C280.504,231.203,296.904,258.403,296.904,289.603z"/>
</g>
<path style="fill:#FDBF00;" d="M294.504,311.603h-53.6l15.2-96c1.6-10-6-19.2-16.4-19.2h-62.4c-10,0-18,9.2-16.4,19.2l15.2,96h-53.6
	c-7.2,0-13.2,6-13.2,13.2c0,7.2,6,13.2,13.2,13.2h172c7.2,0,13.2-6,13.2-13.2C307.704,317.603,301.704,311.603,294.504,311.603z"/>
</svg>
