<?xml version="1.0" encoding="iso-8859-1"?>
<!-- Generator: Adobe Illustrator 20.1.0, SVG Export Plug-In . SVG Version: 6.00 Build 0)  -->
<svg version="1.1" id="&#x421;&#x43B;&#x43E;&#x439;_1"
	 xmlns="http://www.w3.org/2000/svg" xmlns:xlink="http://www.w3.org/1999/xlink" x="0px" y="0px" viewBox="0 0 391.441 341.762"
	 style="enable-background:new 0 0 391.441 341.762;" xml:space="preserve">
<path d="M54.801,341.199c0.879,0.403,1.918,0.563,2.879,0.563c1.84,0,3.679-0.723,5.039-2l50.16-48h94.32
	c19.602,0,35.52-15.922,35.52-35.524v-53.519c0-4-3.278-7.278-7.278-7.278s-7.281,3.278-7.281,7.278v53.519
	c0,11.602-9.441,20.961-20.961,20.961h-97.277c-1.844,0-3.684,0.723-5.043,2l-40,38.242v-32.882c0-4-3.277-7.278-7.277-7.278H35.52
	c-11.598,0-20.961-9.441-20.961-20.961v-104.8c0-11.598,9.441-21.04,20.961-21.04h85.839c4,0,7.282-3.281,7.282-7.281
	s-3.282-7.277-7.282-7.277H35.52C15.922,115.922,0,131.84,0,151.441v104.797c0,19.602,15.922,35.524,35.52,35.524h14.878v42.797
	C50.398,337.441,52.16,340.078,54.801,341.199L54.801,341.199z M54.801,341.199"/>
<path d="M277.762,177.121l50.558,48.399c1.36,1.281,3.2,2,5.039,2c0.961,0,1.922-0.161,2.879-0.559
	c2.641-1.121,4.403-3.762,4.403-6.641v-43.199h15.039c19.679,0,35.761-16,35.761-35.762V35.762c0-19.684-16-35.762-35.761-35.762
	H182.641c-19.68,0-35.762,16-35.762,35.762v105.597c0,19.68,16,35.762,35.762,35.762H277.762z M161.441,141.359V35.762
	c0-11.684,9.52-21.203,21.2-21.203h172.961c11.679,0,21.199,9.519,21.199,21.203v105.597c0,11.68-9.52,21.2-21.199,21.2h-22.321
	c-4,0-7.281,3.281-7.281,7.281v33.441l-40.398-38.64c-1.364-1.282-3.122-2-5.043-2h-97.918
	C170.961,162.641,161.441,153.121,161.441,141.359L161.441,141.359z M161.441,141.359"/>
<path d="M269.121,97.281c1.918,0,3.758-0.801,5.117-2.16c1.364-1.359,2.16-3.199,2.16-5.121c0-1.922-0.796-3.762-2.16-5.121
	c-1.359-1.359-3.199-2.16-5.117-2.16c-1.922,0-3.762,0.801-5.121,2.16c-1.359,1.359-2.16,3.199-2.16,5.121
	c0,1.922,0.801,3.762,2.16,5.121C265.359,96.559,267.199,97.281,269.121,97.281L269.121,97.281z M269.121,97.281"/>
<path d="M296.16,97.281c1.918,0,3.762-0.801,5.121-2.16c1.36-1.359,2.16-3.199,2.16-5.121c0-1.922-0.8-3.762-2.16-5.121
	c-1.359-1.359-3.203-2.16-5.121-2.16c-1.922,0-3.762,0.801-5.121,2.16c-1.359,1.359-2.16,3.199-2.16,5.121
	c0,1.922,0.801,3.762,2.16,5.121C292.32,96.559,294.238,97.281,296.16,97.281L296.16,97.281z M296.16,97.281"/>
<path d="M242.16,97.281c1.918,0,3.762-0.801,5.121-2.16c1.36-1.359,2.16-3.199,2.16-5.121c0-1.922-0.8-3.762-2.16-5.121
	c-1.359-1.359-3.203-2.16-5.121-2.16c-1.922,0-3.762,0.801-5.121,2.16c-1.359,1.359-2.16,3.199-2.16,5.121
	c0,1.922,0.801,3.762,2.16,5.121C238.398,96.559,240.238,97.281,242.16,97.281L242.16,97.281z M242.16,97.281"/>
</svg>
