<?xml version="1.0" encoding="iso-8859-1"?>
<!-- Generator: Adobe Illustrator 20.1.0, SVG Export Plug-In . SVG Version: 6.00 Build 0)  -->
<svg version="1.1" id="&#x421;&#x43B;&#x43E;&#x439;_1"
	 xmlns="http://www.w3.org/2000/svg" xmlns:xlink="http://www.w3.org/1999/xlink" x="0px" y="0px" viewBox="0 0 376 376.959"
	 style="enable-background:new 0 0 376 376.959;" xml:space="preserve">
<g>
	<g>
		<defs>
			<rect id="SVGID_1_" y="0.159" width="375.84" height="376.8"/>
		</defs>
		<clipPath id="SVGID_2_">
			<use xlink:href="#SVGID_1_"  style="overflow:visible;"/>
		</clipPath>
		<path style="clip-path:url(#SVGID_2_);" d="M376,248.57V127.34c0-2.657-1.746-4.996-4.293-5.75l-56.09-16.645
			c4.34-10.617,7.047-21.16,7.047-30.945c0-40.805-33.195-74-74-74s-74,33.195-74,74c0,9.785,2.707,20.328,7.047,30.945
			l-54.383,16.137L7.707,85.59c-1.816-0.539-3.777-0.192-5.297,0.941C0.895,87.664,0,89.445,0,91.34V334
			c0,2.656,1.746,4.996,4.293,5.754l121.238,35.972c0.035,0.008,0.094,0.028,0.094,0.028c0.016,0.004,0.039,0.004,0.055,0.011
			c0.226,0.063,0.453,0.114,0.687,0.149c0.063,0.012,0.125,0.023,0.188,0.031c0.25,0.031,0.507,0.055,0.765,0.055
			c0.278,0,0.535-0.024,0.785-0.055c0.063-0.008,0.125-0.019,0.188-0.031c0.234-0.035,0.461-0.086,0.687-0.149
			c0.02-0.007,0.04-0.007,0.059-0.011l0.055-0.02c0.035-0.008,117.14-34.754,117.14-34.754c0.743,0.328,1.567,0.516,2.43,0.516
			c0.867,0,1.691-0.188,2.434-0.516l117.195,34.77c0.562,0.168,1.137,0.25,1.707,0.25c1.277,0,2.539-0.41,3.59-1.192
			c1.515-1.132,2.41-2.918,2.41-4.808V248.621C376,248.605,376,248.59,376,248.57L376,248.57z M364,131.82v108.813l-109.336-32.442
			v-17.066c7.824-8.055,38.551-40.793,55.902-75.16L364,131.82z M248.664,12c34.188,0,62,27.812,62,62
			c0,9.746-3.258,20.597-8.328,31.59c-0.25,0.398-0.457,0.836-0.613,1.304c-14.457,30.52-42.422,61.801-53.059,73.118
			c-10.633-11.305-38.57-42.543-53.035-73.051c-0.16-0.516-0.387-0.992-0.664-1.426c-5.055-10.969-8.301-21.801-8.301-31.535
			C186.664,39.812,214.477,12,248.664,12L248.664,12z M242.664,191.125v17.066l-109.336,32.442V131.82l53.438-15.855
			C204.113,150.332,234.84,183.07,242.664,191.125L242.664,191.125z M12,220.707l41.453,12.301c0.57,0.168,1.145,0.25,1.711,0.25
			c2.586,0,4.977-1.688,5.75-4.293c0.941-3.18-0.871-6.52-4.047-7.461L12,208.191V99.379l109.328,32.441v108.813l-41.453-12.301
			c-3.176-0.945-6.516,0.867-7.457,4.047c-0.945,3.175,0.867,6.515,4.047,7.457l44.867,13.312v108.813L12,329.523V220.707z
			 M254.664,329.523v-43.437c0-3.317-2.684-6-6-6c-3.312,0-6,2.683-6,6v43.437l-109.336,32.438V253.148l109.336-32.441v41.379
			c0,3.312,2.688,6,6,6c3.316,0,6-2.688,6-6v-41.379L364,253.148v108.813L254.664,329.523z M254.664,329.523"/>
	</g>
	<path d="M248.664,116c23.16,0,42-18.84,42-42c0-23.16-18.84-42-42-42c-23.156,0-42,18.84-42,42
		C206.664,97.16,225.508,116,248.664,116L248.664,116z M248.664,44c16.543,0,30,13.457,30,30c0,16.543-13.457,30-30,30
		s-30-13.457-30-30C218.664,57.457,232.121,44,248.664,44L248.664,44z M248.664,44"/>
</g>
</svg>
