<?xml version="1.0" encoding="iso-8859-1"?>
<!-- Generator: Adobe Illustrator 20.1.0, SVG Export Plug-In . SVG Version: 6.00 Build 0)  -->
<svg version="1.1" id="&#x421;&#x43B;&#x43E;&#x439;_1"
	 xmlns="http://www.w3.org/2000/svg" xmlns:xlink="http://www.w3.org/1999/xlink" x="0px" y="0px" viewBox="0 0 440 512"
	 style="enable-background:new 0 0 440 512;" xml:space="preserve">
<g>
	<path d="M150,386c-5.52,0-10,4.48-10,10c0,5.52,4.48,10,10,10c5.52,0,10-4.48,10-10C160,390.48,155.52,386,150,386L150,386z
		 M150,386"/>
	<path d="M70,512h340c16.543,0,30-13.457,30-30V30c0-16.543-13.457-30-30-30C392.746,0,81.406,0,70,0C53.457,0,40,13.457,40,30v36
		H30C13.457,66,0,79.457,0,96c0,16.543,13.457,30,30,30h10v40H30c-16.543,0-30,13.457-30,30c0,16.543,13.457,30,30,30h10v60H30
		c-16.543,0-30,13.457-30,30c0,16.543,13.457,30,30,30h10v40H30c-16.543,0-30,13.457-30,30c0,16.543,13.457,30,30,30h10v36
		C40,498.543,53.457,512,70,512L70,512z M420,30v452c0,5.516-4.484,10-10,10h-11.719c1.11-3.129,1.719-6.492,1.719-10V30
		c0-3.508-0.609-6.871-1.719-10H410C415.516,20,420,24.484,420,30L420,30z M30,106c-5.516,0-10-4.484-10-10c0-5.516,4.484-10,10-10
		h10v20H30z M30,206c-5.516,0-10-4.484-10-10c0-5.516,4.484-10,10-10h10v20H30z M30,326c-5.516,0-10-4.484-10-10
		c0-5.516,4.484-10,10-10h10v20H30z M90,306c-5.523,0-10,4.477-10,10c0,5.516-4.484,10-10,10H60V226h10c16.543,0,30-13.457,30-30
		c0-5.523-4.477-10-10-10c-5.523,0-10,4.477-10,10c0,5.516-4.484,10-10,10H60v-80h10c16.543,0,30-13.457,30-30
		c0-5.523-4.477-10-10-10c-5.523,0-10,4.477-10,10c0,5.516-4.484,10-10,10H60V30c0-5.516,4.484-10,10-10h300c5.516,0,10,4.484,10,10
		v452c0,5.516-4.484,10-10,10H70c-5.516,0-10-4.484-10-10v-36h10c16.543,0,30-13.457,30-30c0-5.523-4.477-10-10-10
		c-5.523,0-10,4.477-10,10c0,5.516-4.484,10-10,10H60v-80h10c16.543,0,30-13.457,30-30C100,310.477,95.523,306,90,306L90,306z
		 M30,426c-5.516,0-10-4.484-10-10c0-5.516,4.484-10,10-10h10v20H30z M30,426"/>
	<path d="M190.977,285.023c24.207,24.211,52.535,43.098,84.195,56.133c18.656,7.684,40.023,3.496,54.402-10.879l16.481-16.492
		c11.73-11.715,11.75-30.699,0.007-42.426l-19.539-19.55h-0.003c-15.75-15.75-42.61-9.446-49.668,11.726l-0.993,2.985
		c-32.023-9.415-56.964-34.36-66.382-66.379l2.984-0.996c21.176-7.059,27.477-33.918,11.727-49.668l-19.543-19.536
		c-11.739-11.753-30.723-11.722-42.426-0.007l-16.5,16.492c-14.321,14.32-18.59,35.676-10.875,54.398
		C147.879,232.484,166.766,260.812,190.977,285.023L190.977,285.023z M159.859,160.574l16.504-16.5
		c3.907-3.902,10.219-3.918,14.137,0.008l19.547,19.539c5.254,5.254,3.137,14.203-3.91,16.555l-11.731,3.91
		c-4.785,1.594-7.633,6.5-6.644,11.445c9.394,46.926,45.781,83.313,92.707,92.703c4.945,0.989,9.851-1.859,11.445-6.644l3.91-11.727
		c2.352-7.051,11.297-9.168,16.555-3.914l19.543,19.555c3.906,3.902,3.922,10.215-0.004,14.137l-16.488,16.5
		c-8.594,8.589-21.407,11.152-32.641,6.523c-58.273-23.996-105.457-71.18-129.453-129.453
		C148.707,181.977,151.27,169.164,159.859,160.574L159.859,160.574z M159.859,160.574"/>
	<path d="M330,386H190c-5.523,0-10,4.477-10,10c0,5.523,4.477,10,10,10h140c5.523,0,10-4.477,10-10C340,390.477,335.523,386,330,386
		L330,386z M330,386"/>
</g>
</svg>
