<?xml version="1.0" encoding="iso-8859-1"?>
<!-- Generator: Adobe Illustrator 20.1.0, SVG Export Plug-In . SVG Version: 6.00 Build 0)  -->
<svg version="1.1" id="&#x421;&#x43B;&#x43E;&#x439;_1"
	 xmlns="http://www.w3.org/2000/svg" xmlns:xlink="http://www.w3.org/1999/xlink" x="0px" y="0px" viewBox="0 0 55.949 45.665"
	 style="enable-background:new 0 0 55.949 45.665;" xml:space="preserve">
	<path d="M7.404,4.519c-1.59,0-2.885,1.295-2.885,2.884v30.858c0,1.589,1.295,2.881,2.885,2.881h41.141
		c1.593,0,2.885-1.292,2.885-2.881V7.403c0-1.589-1.292-2.884-2.885-2.884H7.404z M48.545,45.665H7.404
		C3.321,45.665,0,42.344,0,38.262V7.403C0,3.321,3.321,0,7.404,0h41.141c4.083,0,7.404,3.321,7.404,7.403v30.858
		C55.949,42.344,52.628,45.665,48.545,45.665L48.545,45.665z"/>
	<path d="M27.975,27.665c-0.452,0-0.908-0.137-1.295-0.409l-25.716-18c-1.022-0.716-1.27-2.125-0.555-3.147
		c0.716-1.025,2.125-1.273,3.148-0.558l24.418,17.093L52.393,5.551c1.023-0.715,2.432-0.468,3.148,0.558
		c0.716,1.022,0.468,2.432-0.555,3.147l-25.713,18C28.883,27.528,28.43,27.665,27.975,27.665L27.975,27.665z"/>
</svg>
