<?xml version="1.0" encoding="iso-8859-1"?>
<!-- Generator: Adobe Illustrator 20.1.0, SVG Export Plug-In . SVG Version: 6.00 Build 0)  -->
<svg version="1.1" id="&#x421;&#x43B;&#x43E;&#x439;_1"
	 xmlns="http://www.w3.org/2000/svg" xmlns:xlink="http://www.w3.org/1999/xlink" x="0px" y="0px" viewBox="0 0 12.961 22.001"
	 style="enable-background:new 0 0 12.961 22.001;" xml:space="preserve">
<g>
	<g>
		<defs>
			<rect id="SVGID_1_" y="0.114" width="12.961" height="21.887"/>
		</defs>
		<clipPath id="SVGID_2_">
			<use xlink:href="#SVGID_1_"  style="overflow:visible;"/>
		</clipPath>
		<path style="clip-path:url(#SVGID_2_);" d="M10.836,0H1.598C0.715,0,0,0.72,0,1.599v18.758c0,0.883,0.715,1.598,1.598,1.598h9.238
			c0.883,0,1.598-0.715,1.598-1.598V1.599C12.434,0.72,11.719,0,10.836,0L10.836,0z M3.938,0.974h4.559
			c0.117,0,0.211,0.172,0.211,0.383c0,0.215-0.094,0.387-0.211,0.387H3.938c-0.117,0-0.207-0.172-0.207-0.387
			C3.73,1.145,3.82,0.974,3.938,0.974L3.938,0.974z M6.219,20.376c-0.563,0-1.024-0.457-1.024-1.02s0.461-1.02,1.024-1.02
			c0.559,0,1.016,0.457,1.016,1.02S6.777,20.376,6.219,20.376L6.219,20.376z M11.234,16.88H1.199V2.7h10.035V16.88z M11.234,16.88"
			/>
	</g>
</g>
</svg>
