<?xml version="1.0" encoding="iso-8859-1"?>
<!-- Generator: Adobe Illustrator 20.1.0, SVG Export Plug-In . SVG Version: 6.00 Build 0)  -->
<svg version="1.1" id="&#x421;&#x43B;&#x43E;&#x439;_1"
	 xmlns="http://www.w3.org/2000/svg" xmlns:xlink="http://www.w3.org/1999/xlink" x="0px" y="0px" viewBox="0 0 39.471 40.95"
	 style="enable-background:new 0 0 39.471 40.95;" xml:space="preserve">
<path  d="M38.75,39.101l-9.559-9.945c3.031-3.043,4.91-7.233,4.91-11.854
	c0-9.266-7.539-16.801-16.801-16.801C8.035,0.5,0.5,8.035,0.5,17.301c0,9.262,7.535,16.801,16.801,16.801
	c4.066,0,7.797-1.457,10.707-3.867l9.586,9.975c0.156,0.164,0.367,0.24,0.578,0.24c0.199,0,0.398-0.072,0.555-0.221
	C39.043,39.925,39.055,39.417,38.75,39.101L38.75,39.101z M17.301,32.501c-8.383,0-15.199-6.82-15.199-15.2
	c0-8.383,6.816-15.199,15.199-15.199c8.379,0,15.199,6.816,15.199,15.199C32.5,25.681,25.68,32.501,17.301,32.501L17.301,32.501z
	 M17.301,32.501"/>
</svg>
