<?xml version="1.0" encoding="iso-8859-1"?>
<!-- Generator: Adobe Illustrator 20.1.0, SVG Export Plug-In . SVG Version: 6.00 Build 0)  -->
<svg version="1.1" id="&#x421;&#x43B;&#x43E;&#x439;_1"
	 xmlns="http://www.w3.org/2000/svg" xmlns:xlink="http://www.w3.org/1999/xlink" x="0px" y="0px" viewBox="0 0 512 512"
	 style="enable-background:new 0 0 512 512;" xml:space="preserve">
<path style="fill:#ffd32b;" d="M181,269.855v93.29l75,44.308l75-44.308v-93.29l-75-44.308L181,269.855z M181,269.855"/>
<path style="fill:#7452AC;" d="M421,218.5l-150-88.637V87.238c17.422-6.215,30-22.707,30-42.238c0-24.812-20.188-45-45-45
	c-24.812,0-45,20.188-45,45c0,19.531,12.578,36.023,30,42.238v42.625L91,218.5v180.164L0,454.52l16.641,24.96l90.418-55.492L256,512
	l148.941-88.012l90.418,55.492L512,454.52l-91-55.856V218.5z M361,380.266l-105,62.039l-105-62.039V252.734l105-62.039l105,62.039
	V380.266z M361,380.266"/>
</svg>
