<?xml version="1.0" encoding="iso-8859-1"?>
<!-- Generator: Adobe Illustrator 20.1.0, SVG Export Plug-In . SVG Version: 6.00 Build 0)  -->
<svg version="1.1" id="Layer_1" xmlns="http://www.w3.org/2000/svg" xmlns:xlink="http://www.w3.org/1999/xlink" x="0px" y="0px"
	 viewBox="0 0 72.578 72.678" style="enable-background:new 0 0 72.578 72.678;" xml:space="preserve">
<g>
	<path style="fill-rule:evenodd;clip-rule:evenodd;stroke:#fff;stroke-width:.6;stroke-miterlimit:10;" d="M71.838,43.134
		c0.211-1.076,0.332-2.013,0.408-2.791c0.02-0.166,0.045-0.332,0.06-0.498c0.033-0.268,0.055-0.539,0.065-0.812
		c0-0.014,0.002-0.033,0.004-0.049l-0.002-0.008c0.02-0.875-0.111-1.769-0.496-2.586c-0.504-1.102-1.514-1.893-2.584-2.34
		c-1.076-0.461-2.223-0.682-3.359-0.816c-1.01-0.115-2.024-0.16-3.033-0.174c-0.232-1.461-0.582-2.9-1.053-4.303
		c0.369-0.094,0.738-0.195,1.105-0.303c1.516-0.451,3.014-1.004,4.401-1.812c0.686-0.412,1.354-0.885,1.887-1.524
		c0.266-0.318,0.49-0.687,0.611-1.105c0.121-0.4,0.113-0.852-0.004-1.246h0.002c-0.002-0.006-0.004-0.01-0.006-0.016
		c-0.004-0.01-0.004-0.02-0.008-0.029l-0.004-0.016l-0.002-0.008c-1.65-4.064-4.039-7.836-7.049-11.035
		c-2.998-3.205-6.584-5.858-10.526-7.783l-0.064-0.033L52.17,3.845c-0.562-0.289-1.231-0.428-1.867-0.318
		c-0.672,0.109-1.271,0.432-1.789,0.818c-1.035,0.793-1.825,1.811-2.548,2.846c-0.932,1.365-1.738,2.799-2.504,4.25
		c-0.889-0.24-1.791-0.441-2.711-0.592c-0.668-0.109-1.344-0.19-2.018-0.248c0.428-1.512,0.748-3.053,0.856-4.635
		c0.063-1.227,0.014-2.514-0.527-3.686c-0.272-0.58-0.693-1.109-1.242-1.467c-0.545-0.363-1.186-0.547-1.817-0.611l-0.012-0.002
		H35.98c-0.031,0.002-0.064,0.002-0.096,0.002V0.201c0,0-0.014,0.002-0.02,0.002c-1.402,0.031-2.867,0.004-4.25,0.213
		c-1.418,0.213-2.828,0.498-4.207,0.889c-0.045,0.012-0.086,0.026-0.129,0.039c-2.238,0.57-4.424,1.346-6.506,2.342
		c-3.18,1.525-6.117,3.531-8.719,5.904c-0.02,0.018-0.039,0.035-0.058,0.053c-1.248,1.144-2.426,2.365-3.5,3.672L8.49,13.322
		l-0.004,0.006c-0.172,0.242-0.328,0.533-0.393,0.85c-0.068,0.317-0.037,0.66,0.08,0.957c0.238,0.604,0.697,1.024,1.156,1.381
		c0.939,0.703,1.984,1.193,3.031,1.654c1.277,0.549,2.576,1.033,3.879,1.5c-1.162,1.336-2.197,2.791-3.08,4.353
		c-1.644-0.254-3.307-0.414-4.976-0.408c-1.203,0.012-2.416,0.097-3.602,0.41c-0.59,0.158-1.172,0.383-1.703,0.723
		c-0.488,0.315-0.922,0.774-1.154,1.34L1.661,26.22c-0.004,0.016-0.008,0.029-0.012,0.043c0,0.002,0,0.004,0,0.004
		C0.464,30.324-0.003,34.592,0.28,38.81c0.272,4.238,1.344,8.418,3.086,12.285l0.062,0.139h0.01
		c0.161,0.313,0.399,0.625,0.778,0.771c0.437,0.166,0.881,0.055,1.236-0.096c0.723-0.316,1.295-0.803,1.852-1.293
		c1.094-0.996,2.066-2.098,3.025-3.205c0.311-0.363,0.615-0.73,0.922-1.098c0.524,1.453,1.166,2.854,1.926,4.188
		c-0.562,0.994-1.074,2.018-1.51,3.08c-0.617,1.543-1.08,3.18-1.109,4.875c-0.014,0.844,0.098,1.697,0.365,2.51
		c0.266,0.81,0.703,1.566,1.264,2.209l0.008,0.012l0.012,0.01c0.019,0.016,0.039,0.032,0.057,0.047v0.002
		c0.002,0.002,0.004,0.002,0.006,0.004c0.352,0.31,0.711,0.611,1.074,0.908c1.811,1.492,3.726,2.854,5.808,3.918
		c0.084,0.043,0.17,0.084,0.256,0.127c2.728,1.463,5.637,2.59,8.648,3.326c2.926,0.725,5.961,1.049,8.975,0.922
		c0.043,0,0.088-0.004,0.133-0.006c2.826-0.021,5.627-0.488,8.377-1.184c0.144-0.029,0.283-0.065,0.412-0.102l0.014-0.004
		l0.014-0.006c0.883-0.342,1.759-0.859,2.337-1.674c0.59-0.804,0.781-1.83,0.727-2.781c-0.049-0.961-0.291-1.885-0.598-2.773
		c-0.266-0.76-0.588-1.494-0.934-2.217c1.73-0.779,3.359-1.746,4.871-2.863c0.227,0.193,0.449,0.393,0.684,0.58
		c0.897,0.713,1.836,1.379,2.851,1.928c1.014,0.543,2.112,0.996,3.297,1.1c1.053,0.111,2.195-0.201,3.006-0.92l0.002,0.004
		c0.02-0.02,0.039-0.041,0.059-0.062c0.072-0.067,0.147-0.133,0.213-0.207c0.787-0.822,1.541-1.689,2.25-2.584
		c1.422-1.791,2.666-3.723,3.723-5.75c1.512-2.922,2.604-6.055,3.264-9.278c0.024-0.109,0.049-0.222,0.07-0.33
		C71.815,43.259,71.826,43.197,71.838,43.134L71.838,43.134z M71.592,41.789L71.592,41.789c-0.594,3.799-1.795,7.502-3.573,10.908
		c-1.035,2.004-2.256,3.912-3.652,5.686c-0.4,0.508-0.814,1-1.24,1.485c0.045-0.332,0.041-0.666,0.002-0.988
		c-0.115-0.933-0.457-1.785-0.844-2.592c-0.791-1.608-1.811-3.051-2.838-4.467c-1.762-2.412-3.619-4.735-5.516-7.033
		c1.33,0.308,2.668,0.527,4.024,0.685c1.865,0.203,3.76,0.27,5.647,0.047c1.875-0.222,3.781-0.713,5.422-1.767
		c0.814-0.526,1.547-1.193,2.127-1.973c0.211-0.281,0.395-0.58,0.566-0.887c-0.016,0.125-0.029,0.252-0.047,0.377
		C71.647,41.443,71.619,41.617,71.592,41.789L71.592,41.789z M65.883,33.654L65.883,33.654c1.114,0.139,2.225,0.357,3.238,0.795
		c1.008,0.431,1.902,1.146,2.352,2.133c0.324,0.695,0.711,1.709-0.195,3.633c-0.189,0.4-0.449,0.762-0.723,1.107
		c-0.545,0.69-1.219,1.272-1.973,1.727c-1.512,0.92-3.291,1.367-5.08,1.545c-0.435,0.043-0.875,0.069-1.314,0.084
		c0.285-1.004,0.522-2.035,0.693-3.09c0.445-2.732,0.463-5.469,0.082-8.135C63.94,33.478,64.918,33.533,65.883,33.654L65.883,33.654
		z M68.887,24.828L68.887,24.828c-0.475,0.574-1.105,1.031-1.764,1.427c-1.33,0.783-2.801,1.336-4.293,1.787
		c-0.373,0.111-0.748,0.215-1.125,0.314c-0.828-2.334-1.984-4.564-3.461-6.633c0.596-0.084,1.191-0.17,1.789-0.238
		c1.678-0.18,3.369-0.277,5.031-0.168c0.828,0.057,1.654,0.172,2.422,0.418c0.756,0.242,1.666,0.686,1.93,1.225
		C69.68,23.5,69.342,24.291,68.887,24.828L68.887,24.828z M68.836,21.59L68.836,21.59c-0.342-0.246-0.717-0.432-1.105-0.57
		c-0.852-0.301-1.726-0.444-2.597-0.531c-1.742-0.16-3.475-0.076-5.192,0.074c-1.719,0.152-3.42,0.408-5.109,0.717
		c-1.406,0.26-2.805,0.549-4.199,0.887c0.357-1.281,0.693-2.563,1.006-3.851c0.381-1.57,0.721-3.15,1.01-4.742
		c0.283-1.594,0.539-3.195,0.643-4.826c0.051-0.814,0.072-1.637,0.002-2.469c-0.037-0.416-0.096-0.836-0.217-1.256
		c-0.027-0.094-0.062-0.183-0.104-0.271c3.526,1.869,6.738,4.326,9.451,7.25C65.047,14.832,67.23,18.076,68.836,21.59L68.836,21.59z
		 M46.275,7.408L46.275,7.408c0.722-1.01,1.513-1.994,2.489-2.723c0.488-0.358,1.029-0.643,1.606-0.73
		c0.492-0.082,1.646-0.183,2.023,1.254c0.091,0.355,0.135,0.738,0.158,1.123c0.041,0.772,0,1.563-0.072,2.35
		c-0.156,1.576-0.414,3.152-0.729,4.719c-0.111,0.555-0.234,1.108-0.357,1.66c-2.322-1.563-4.88-2.764-7.611-3.537
		C44.55,10.109,45.357,8.72,46.275,7.408L46.275,7.408z M37.581,1.177L37.581,1.177c0.476,0.309,0.846,0.766,1.094,1.287
		c0.496,1.055,0.578,2.289,0.527,3.48c-0.084,1.563-0.387,3.11-0.801,4.629c-0.664-0.049-1.326-0.076-1.986-0.076
		c-2.285,0-4.508,0.287-6.635,0.826c0.192-0.856,0.393-1.707,0.6-2.557c0.424-1.713,0.994-3.393,1.852-4.901
		c0.431-0.748,0.939-1.449,1.559-2.012C35.745,0.074,37.109,0.865,37.581,1.177L37.581,1.177z M27.339,18.412L27.339,18.412
		c-1.31-0.721-2.629-1.406-3.969-2.058c-1.549-0.756-3.127-1.451-4.732-2.086c-1.609-0.627-3.248-1.199-4.959-1.568
		c-0.856-0.18-1.729-0.319-2.629-0.317c-0.424,0.004-0.858,0.043-1.287,0.146c3.146-3.498,6.977-6.377,11.225-8.391
		c2.232-1.072,4.576-1.896,6.982-2.481c1.233-0.268,2.475-0.482,3.727-0.621c0.738-0.082,1.477-0.183,2.217-0.266
		c-0.238,0.133-0.463,0.285-0.67,0.465c-0.729,0.627-1.293,1.393-1.768,2.188c-0.943,1.602-1.56,3.346-2.025,5.104
		c-0.447,1.752-0.84,3.504-1.213,5.264C27.913,15.328,27.613,16.865,27.339,18.412L27.339,18.412z M12.509,17.832L12.509,17.832
		c-1.025-0.467-2.052-0.969-2.928-1.643c-0.428-0.338-0.828-0.736-1.008-1.205c-0.176-0.432-0.365-2.01,2.473-1.865
		c0.812,0.043,1.641,0.168,2.455,0.363c1.629,0.403,3.229,0.982,4.799,1.623c0.647,0.266,1.287,0.547,1.924,0.834
		c-1.361,1.035-2.619,2.197-3.76,3.477C15.13,18.92,13.804,18.408,12.509,17.832L12.509,17.832z M3.114,25.109L3.114,25.109
		c0.475-0.309,1.019-0.52,1.578-0.678c1.125-0.313,2.313-0.414,3.494-0.439c1.603-0.026,3.209,0.105,4.805,0.326
		c-1.445,2.627-2.471,5.541-2.979,8.66c-0.1,0.615-0.17,1.229-0.225,1.84c-0.324-0.166-0.648-0.33-0.967-0.506
		c-1.633-0.906-3.215-1.936-4.525-3.228c-0.651-0.649-1.217-1.377-1.619-2.18C1.372,26.291,2.656,25.408,3.114,25.109L3.114,25.109z
		 M13.8,40.312L13.8,40.312c-1.707,0.678-3.391,1.416-5.033,2.24c-1.619,0.828-3.344,1.643-4.68,3.074
		c-0.656,0.707-1.17,1.639-1.271,2.645c-0.006,0.053-0.006,0.107-0.01,0.16c-1.115-3.106-1.799-6.363-2.037-9.654
		c-0.26-3.64,0.049-7.318,0.9-10.867c0.07,0.443,0.19,0.879,0.379,1.289c0.416,0.914,1.019,1.713,1.694,2.424
		c1.355,1.42,2.972,2.517,4.641,3.472c1.676,0.949,3.414,1.77,5.193,2.481c1.279,0.51,2.567,0.976,3.879,1.398
		C16.22,39.385,15.007,39.836,13.8,40.312L13.8,40.312z M10.003,47.131L10.003,47.131c-0.957,1.098-1.928,2.188-3,3.154
		C6.466,50.756,5.9,51.221,5.276,51.49c-0.309,0.129-0.637,0.189-0.894,0.086c-0.248-0.094-0.436-0.34-0.567-0.627
		c-0.271-0.836-0.365-1.768-0.248-2.584c0.107-0.82,0.535-1.561,1.127-2.17c1.201-1.236,2.856-2.019,4.48-2.807
		c1.635-0.777,3.299-1.5,4.986-2.16c0.398-0.157,0.803-0.311,1.207-0.461C13.571,42.886,11.817,45.039,10.003,47.131L10.003,47.131z
		 M10.984,58.461L10.984,58.461c0.017-1.617,0.447-3.219,1.041-4.738c0.391-0.984,0.853-1.938,1.361-2.867
		c2.356,3.994,5.729,7.361,9.826,9.699c-1.543,1.008-3.166,1.896-4.879,2.5c-0.971,0.336-1.983,0.564-2.988,0.56
		c-0.994,0-2.006-0.148-2.811-0.721c-0.008-0.006-0.017-0.014-0.026-0.019C11.444,61.682,10.95,60.064,10.984,58.461L10.984,58.461z
		 M33.501,53.123L33.501,53.123c0.531,1.64,1.094,3.262,1.695,4.875c0.703,1.871,1.455,3.734,2.33,5.539
		c0.871,1.801,1.77,3.607,2.998,5.254c0.617,0.816,1.349,1.592,2.295,2.129c0.252,0.141,0.479,0.236,0.719,0.307
		c-0.123,0.025-0.248,0.047-0.371,0.068c-0.641,0.107-1.283,0.205-1.924,0.303c-0.367,0.057-0.738,0.105-1.109,0.151
		c-1.035,0.115-2.076,0.191-3.121,0.219c-2.975,0.119-5.949-0.223-8.84-0.92c-5.129-1.236-9.969-3.623-14.115-6.887
		c0.412,0.117,0.836,0.186,1.273,0.197c1.123,0.033,2.223-0.191,3.262-0.522c2.086-0.676,3.967-1.775,5.754-2.961
		c1.783-1.197,3.467-2.529,5.086-3.928C30.837,55.725,32.193,54.457,33.501,53.123L33.501,53.123z M48.604,66.715L48.604,66.715
		c0.047,0.89-0.133,1.797-0.653,2.5c-0.506,0.709-1.294,1.182-2.124,1.504c-0.885,0.236-1.842-0.012-2.615-0.484
		c-0.785-0.465-1.428-1.189-2.002-1.957c-0.969-1.32-1.744-2.807-2.471-4.315c2.951-0.246,5.773-0.969,8.388-2.096
		C47.85,63.418,48.504,65.037,48.604,66.715L48.604,66.715z M47.133,60.937L47.133,60.937c-1.642-3.184-3.622-6.157-5.534-9.158
		c-2.006-3.123-3.998-6.252-5.783-9.504c-1.765-3.25-3.351-6.643-4.207-10.264c0.797,3.635,2.328,7.063,4.045,10.349
		c1.727,3.295,3.701,6.447,5.68,9.588c1.879,3.01,3.822,5.992,5.414,9.148c-2.614,1.125-5.441,1.834-8.404,2.043
		c-0.842-1.781-1.566-3.615-2.246-5.475c-0.68-1.859-1.308-3.746-1.896-5.631l-0.258-0.826l-0.592,0.631
		c-1.433,1.527-2.967,2.996-4.545,4.391c-1.533,1.35-3.127,2.631-4.801,3.787c-4.283-2.35-7.775-5.852-10.131-10.027
		c0.957-1.633,2.054-3.189,3.215-4.684c2.033-2.588,4.285-5.01,6.697-7.258c2.42-2.236,4.994-4.33,7.822-6.037
		c-2.858,1.662-5.469,3.717-7.932,5.918c-2.457,2.211-4.756,4.605-6.818,7.195c-1.139,1.441-2.221,2.941-3.176,4.518
		c-0.713-1.307-1.311-2.678-1.791-4.098c1.344-1.631,2.66-3.281,4.012-4.902c0.027-0.033,0.055-0.065,0.082-0.098
		c1.094-0.395,2.195-0.766,3.297-1.098l1.66-0.498l-1.668-0.469c-0.406-0.115-0.814-0.236-1.223-0.361
		c1.193-1.367,2.416-2.707,3.701-3.984c1.039-1.023,2.121-2.004,3.287-2.883c1.164-0.873,2.414-1.658,3.795-2.146
		c-1.393,0.457-2.666,1.219-3.854,2.068c-1.188,0.855-2.299,1.817-3.363,2.82c-1.355,1.279-2.627,2.641-3.865,4.029
		c-1.285-0.404-2.563-0.86-3.817-1.354c-1.125-0.447-2.236-0.926-3.326-1.447c0.057-0.699,0.133-1.4,0.248-2.105
		c0.51-3.131,1.557-6.047,3.037-8.666c0.459,0.074,0.916,0.152,1.373,0.238c4.672,0.908,9.254,2.365,13.567,4.416
		c-2.131-1.076-4.342-1.998-6.6-2.785c-2.256-0.787-4.564-1.44-6.912-1.914c-0.42-0.084-0.84-0.16-1.26-0.234
		c0.877-1.506,1.897-2.908,3.043-4.192c0.553,0.195,1.105,0.389,1.656,0.584c2.145,0.76,4.291,1.506,6.395,2.369
		c2.094,0.871,4.17,1.834,6.031,3.15c-1.83-1.36-3.893-2.371-5.973-3.291c-2.086-0.912-4.219-1.717-6.357-2.494
		c-0.51-0.189-1.022-0.375-1.531-0.562c1.146-1.252,2.412-2.389,3.781-3.39c0.613,0.289,1.226,0.58,1.834,0.879
		c1.527,0.754,3.043,1.549,4.514,2.385l0.615,0.349l0.127-0.697c0.422-2.334,0.875-4.672,1.379-6.992
		c2.184-0.594,4.475-0.914,6.838-0.914c0.58,0,1.164,0.023,1.746,0.062c-0.162,0.539-0.332,1.072-0.512,1.604
		c-0.793,2.297-1.75,4.541-2.822,6.726c-1.078,2.184-2.275,4.315-3.639,6.336c1.408-1.992,2.654-4.098,3.785-6.262
		c1.127-2.166,2.135-4.398,2.955-6.703c0.193-0.557,0.381-1.115,0.556-1.68c0.711,0.057,1.422,0.141,2.127,0.256
		c0.828,0.135,1.639,0.316,2.438,0.527c-0.266,0.518-0.53,1.035-0.791,1.555c-1.127,2.246-2.193,4.522-3.326,6.762
		c-1.141,2.236-2.322,4.461-3.785,6.506c1.506-2.014,2.736-4.219,3.926-6.431c1.182-2.219,2.299-4.473,3.444-6.705
		c0.277-0.537,0.556-1.074,0.842-1.608c2.824,0.777,5.462,2.019,7.835,3.664c-0.164,0.705-0.332,1.412-0.504,2.117
		c-0.385,1.553-0.801,3.105-1.248,4.635l-0.248,0.846l0.857-0.219c2.377-0.602,4.795-1.106,7.227-1.483
		c0.07,0.092,0.141,0.182,0.209,0.275c1.442,2.002,2.569,4.164,3.379,6.424c-2.381,0.562-4.82,0.895-7.269,1.045
		c-3.129,0.197-6.275,0.147-9.399-0.172c-1.556-0.166-3.111-0.408-4.637-0.778c-1.522-0.373-3.027-0.863-4.412-1.611
		c1.369,0.777,2.867,1.301,4.389,1.707c1.522,0.402,3.076,0.678,4.639,0.877c3.128,0.398,6.292,0.461,9.439,0.306
		c2.482-0.125,4.967-0.426,7.396-0.98c0.455,1.338,0.793,2.711,1.022,4.103c-4.396,0.021-8.766,0.393-13.145,0.295
		c-2.265-0.037-4.534-0.189-6.767-0.584c-2.231-0.397-4.432-1.045-6.443-2.107c1.992,1.1,4.19,1.789,6.42,2.228
		c2.234,0.438,4.512,0.631,6.784,0.711c4.414,0.147,8.82-0.187,13.211-0.16c0.389,2.621,0.381,5.316-0.057,8.008
		c-0.182,1.108-0.434,2.186-0.746,3.236c-1.074-0.004-2.151-0.068-3.223-0.193c-1.807-0.211-3.621-0.572-5.355-1.053l-1.576-0.435
		l1.049,1.238c1.121,1.324,2.228,2.668,3.318,4.022c0.877,1.094,1.75,2.189,2.606,3.297c-1.635,2.494-3.68,4.672-6.037,6.449
		c-1.272-1.131-2.461-2.359-3.592-3.637c-2.989-3.402-5.579-7.154-7.792-11.111c-1.107-1.977-2.115-4.014-2.978-6.111
		c-0.86-2.098-1.582-4.26-2.031-6.488c0.408,2.236,1.094,4.416,1.918,6.533c0.826,2.119,1.801,4.18,2.877,6.186
		c2.176,3.996,4.742,7.787,7.714,11.246c1.107,1.275,2.272,2.506,3.529,3.641C50.287,59.306,48.758,60.207,47.133,60.937
		L47.133,60.937z M59.252,61.992L59.252,61.992c-1.086-0.09-2.14-0.512-3.123-1.035c-0.984-0.529-1.908-1.176-2.791-1.875
		c-0.203-0.162-0.397-0.336-0.594-0.502c2.293-1.756,4.291-3.887,5.916-6.306c0.021,0.027,0.043,0.055,0.065,0.084
		c1.037,1.385,2.063,2.785,2.857,4.283c0.389,0.75,0.721,1.535,0.84,2.332c0.125,0.789-0.004,1.648-0.533,2.227
		C61.182,61.818,60.207,62.084,59.252,61.992z"/>
</g>
</svg>
