<?xml version="1.0" encoding="iso-8859-1"?>
<!-- Generator: Adobe Illustrator 20.1.0, SVG Export Plug-In . SVG Version: 6.00 Build 0)  -->
<svg version="1.1" id="&#x421;&#x43B;&#x43E;&#x439;_1"
	 xmlns="http://www.w3.org/2000/svg" xmlns:xlink="http://www.w3.org/1999/xlink" x="0px" y="0px" viewBox="0 0 30.916 24.383"
	 style="enable-background:new 0 0 30.916 24.383;" xml:space="preserve">
<path  d="M30.916,2.884c-1.137,0.491-2.36,0.821-3.644,0.971c1.312-0.763,2.317-1.968,2.789-3.408
	c-1.226,0.708-2.583,1.22-4.029,1.494C24.875,0.747,23.228,0,21.403,0c-3.5,0-6.341,2.754-6.341,6.153
	c0,0.483,0.056,0.954,0.165,1.404C9.956,7.301,5.28,4.849,2.154,1.125c-0.546,0.91-0.858,1.966-0.858,3.094
	c0,2.135,1.118,4.021,2.821,5.123C3.074,9.309,2.099,9.035,1.241,8.571v0.078c0,2.984,2.186,5.471,5.088,6.037
	c-0.532,0.14-1.092,0.216-1.671,0.216c-0.408,0-0.805-0.037-1.192-0.11c0.806,2.446,3.149,4.225,5.926,4.275
	c-2.172,1.652-4.906,2.635-7.879,2.635c-0.512,0-1.016-0.03-1.515-0.086c2.809,1.748,6.141,2.768,9.725,2.768
	c11.667,0,18.046-9.384,18.046-17.517L27.754,6.07C28.99,5.204,30.065,4.121,30.916,2.884L30.916,2.884z M30.916,2.884"/>
</svg>
