<?xml version="1.0" encoding="iso-8859-1"?>
<!-- Generator: Adobe Illustrator 20.1.0, SVG Export Plug-In . SVG Version: 6.00 Build 0)  -->
<svg version="1.1" id="&#x421;&#x43B;&#x43E;&#x439;_1"
	 xmlns="http://www.w3.org/2000/svg" xmlns:xlink="http://www.w3.org/1999/xlink" x="0px" y="0px" viewBox="0 0 52.69 30.06"
	 style="enable-background:new 0 0 52.69 30.06;" xml:space="preserve">
<path style="fill-rule:evenodd;clip-rule:evenodd;" d="M25.78,29.934h3.15c0,0,0.95-0.105,1.435-0.629
	c0.447-0.482,0.434-1.383,0.434-1.383s-0.063-4.227,1.9-4.848c1.935-0.615,4.414,4.083,7.049,5.889
	c1.99,1.369,3.503,1.069,3.503,1.069l7.034-0.097c0,0,3.681-0.227,1.935-3.122c-0.143-0.238-1.017-2.142-5.233-6.053
	c-4.411-4.093-3.821-3.434,1.495-10.517c3.238-4.313,4.531-6.947,4.128-8.075c-0.387-1.076-2.766-0.79-2.766-0.79L41.92,1.426
	c0,0-0.587-0.08-1.023,0.178c-0.427,0.255-0.698,0.852-0.698,0.852s-1.255,3.34-2.927,6.175c-3.527,5.994-4.938,6.308-5.515,5.938
	c-1.341-0.87-1.006-3.485-1.006-5.344c0-5.806,0.881-8.226-1.715-8.851c-0.859-0.209-1.495-0.346-3.696-0.367
	c-2.829-0.031-5.221,0.007-6.577,0.671c-0.901,0.44-1.596,1.425-1.174,1.481c0.524,0.07,1.712,0.322,2.341,1.178
	c0.81,1.103,0.782,3.583,0.782,3.583s0.468,6.836-1.09,7.684c-1.069,0.584-2.532-0.608-5.68-6.043
	c-1.61-2.784-2.826-5.86-2.826-5.86s-0.234-0.573-0.653-0.881c-0.511-0.374-1.22-0.492-1.22-0.492L1.717,1.376
	c0,0-1.131,0.031-1.547,0.524c-0.367,0.436-0.028,1.341-0.028,1.341s5.893,13.79,12.567,20.737
	C18.829,30.353,25.78,29.934,25.78,29.934L25.78,29.934z M25.78,29.934"/>
</svg>
