<?xml version="1.0" encoding="iso-8859-1"?>
<!-- Generator: Adobe Illustrator 20.1.0, SVG Export Plug-In . SVG Version: 6.00 Build 0)  -->
<svg version="1.1" id="&#x421;&#x43B;&#x43E;&#x439;_1"
	 xmlns="http://www.w3.org/2000/svg" xmlns:xlink="http://www.w3.org/1999/xlink" x="0px" y="0px" viewBox="0 0 219.992 219.996"
	 style="enable-background:new 0 0 219.992 219.996;" xml:space="preserve">
<path d="M10,219.996h199.992c5.524,0,10-4.48,10-10V50c0-16.543-13.457-30-29.996-30h-10V10c0-5.523-4.48-10-10-10
	c-5.523,0-10,4.477-10,10v10h-40V10c0-5.523-4.476-10-10-10c-5.523,0-10,4.477-10,10v10h-40V10c0-5.523-4.476-10-10-10
	C44.477,0,40,4.477,40,10v10H30C13.457,20,0,33.457,0,50v159.996C0,215.516,4.477,219.996,10,219.996L10,219.996z M20,199.996v-100
	h179.992v100H20z M30,40h10v10c0,5.52,4.477,10,9.996,10c5.524,0,10-4.48,10-10V40h40v10c0,5.52,4.477,10,10,10
	c5.524,0,10-4.48,10-10V40h40v10c0,5.52,4.477,10,10,10c5.52,0,10-4.48,10-10V40h10c5.512,0,9.996,4.484,9.996,10v30H20V50
	C20,44.484,24.485,40,30,40L30,40z M30,40"/>
</svg>
