<?xml version="1.0" encoding="iso-8859-1"?>
<!-- Generator: Adobe Illustrator 20.1.0, SVG Export Plug-In . SVG Version: 6.00 Build 0)  -->
<svg version="1.1" id="&#x421;&#x43B;&#x43E;&#x439;_1"
	 xmlns="http://www.w3.org/2000/svg" xmlns:xlink="http://www.w3.org/1999/xlink" x="0px" y="0px" viewBox="0 0 44.801 48"
	 style="enable-background:new 0 0 44.801 48;" xml:space="preserve">
<g>
	<path d="M44,3.199h-5.602V0.801C38.398,0.359,38.043,0,37.602,0H32c-0.441,0-0.801,0.359-0.801,0.801v2.398H13.602V0.801
		c0-0.442-0.36-0.801-0.801-0.801H7.199C6.758,0,6.398,0.359,6.398,0.801v2.398H0.801C0.359,3.199,0,3.559,0,4v43.199
		C0,47.641,0.359,48,0.801,48H44c0.441,0,0.801-0.359,0.801-0.801V4C44.801,3.559,44.441,3.199,44,3.199L44,3.199z M32.801,1.602h4
		v4.796h-4V1.602z M8,1.602h4v4.796H8V1.602z M1.602,4.801h4.796v2.398C6.398,7.641,6.758,8,7.199,8h5.602
		c0.441,0,0.801-0.359,0.801-0.801V4.801h17.597v2.398C31.199,7.641,31.559,8,32,8h5.602c0.441,0,0.796-0.359,0.796-0.801V4.801
		h4.801V12H1.602V4.801z M1.602,46.398V13.602h41.597v32.796H1.602z M1.602,46.398"/>
	<path d="M28.801,18.398H7.199v23.204h30.403V18.398H28.801z M23.199,20h5.602v5.602h-5.602V20z M28.801,32.801h-5.602v-5.602h5.602
		V32.801z M16,27.199h5.602v5.602H16V27.199z M16,20h5.602v5.602H16V20z M8.801,20h5.597v5.602H8.801V20z M8.801,27.199h5.597v5.602
		H8.801V27.199z M14.398,40H8.801v-5.602h5.597V40z M21.602,40H16v-5.602h5.602V40z M28.801,40h-5.602v-5.602h5.602V40z M36,40
		h-5.602v-5.602H36V40z M36,32.801h-5.602v-5.602H36V32.801z M36,20v5.602h-5.602V20H36z M36,20"/>
</g>
</svg>
