<?xml version="1.0" encoding="iso-8859-1"?>
<!-- Generator: Adobe Illustrator 20.1.0, SVG Export Plug-In . SVG Version: 6.00 Build 0)  -->
<svg version="1.1" id="Capa_1" xmlns="http://www.w3.org/2000/svg" xmlns:xlink="http://www.w3.org/1999/xlink" x="0px" y="0px"
	 viewBox="-41.471 148.529 496.941 447.529" style="enable-background:new -41.471 148.529 496.941 447.529;" xml:space="preserve">
<g>
	<path d="M69.965,293.094c24.847,0,44.424-20.329,44.424-44.424c0-24.847-20.329-44.424-44.424-44.424
		c-24.847,0-44.424,20.329-44.424,44.424C25.541,272.765,45.871,293.094,69.965,293.094z M69.965,218.553
		c16.565,0,29.365,13.553,29.365,29.365s-13.553,29.365-29.365,29.365S40.6,263.729,40.6,247.918S54.153,218.553,69.965,218.553z"/>
	<path d="M231.094,386.459h-1.506c1.506-1.506,2.259-3.012,2.259-5.271c0-4.518-3.012-7.529-7.529-7.529h-18.071
		c6.024-13.553,6.024-30.118-0.753-43.671c-3.012-6.776-8.282-12.8-14.306-17.318c0-0.753,0-2.259,0-3.012
		c0-12.047-9.788-21.835-21.835-21.835c-12.047,0-21.835,9.788-21.835,21.835c0,12.047,9.788,21.835,21.835,21.835l0,0
		c5.271,0,9.788-2.259,13.553-5.271c3.765,3.012,6.024,6.776,8.282,10.541c5.271,11.294,4.518,24.094-1.506,34.635l-1.506,1.506
		h-27.106c-4.518,0-7.529,3.012-7.529,7.529c0,2.259,0.753,4.518,2.259,5.271h-14.306v-45.929c0-24.847-18.071-45.176-40.659-45.176
		H37.588C15,294.6-3.071,314.929-3.071,339.776v45.929h-30.118c-4.518,0-7.529,3.012-7.529,7.529v34.635
		c0,4.518,3.012,7.529,7.529,7.529h11.294v127.529c0,4.518,3.012,7.529,7.529,7.529h220.612c4.518,0,7.529-3.012,7.529-7.529
		V436.153h15.812c4.518,0,7.529-3.012,7.529-7.529v-34.635C238.624,389.471,234.859,386.459,231.094,386.459z M169.353,315.682
		L169.353,315.682c-3.765,0-6.776-3.012-6.776-6.776c0-3.765,3.012-6.776,6.776-6.776c3.765,0,6.776,3.012,6.776,6.776
		C176.129,312.671,173.118,315.682,169.353,315.682z M13.494,340.529c0-16.565,11.294-30.118,25.6-30.118h62.494
		c14.306,0,25.6,13.553,25.6,30.118v45.929H13.494V340.529z M200.224,556.153H-5.329v-120h205.553V556.153z M223.565,421.094
		c-242.447,0-145.318,0-247.718,0v-19.576h247.718V421.094z"/>
	<path d="M228.835,581H-33.941c-4.518,0-7.529,3.012-7.529,7.529s3.012,7.529,7.529,7.529h262.776c4.518,0,7.529-3.012,7.529-7.529
		S233.353,581,228.835,581z"/>
	<path d="M447.941,174.129h-60.235v-18.071c0-4.518-3.012-7.529-7.529-7.529H207.753c-4.518,0-7.529,3.012-7.529,7.529v88.847
		c0,4.518,3.012,7.529,7.529,7.529h16.565l-15.059,34.635c-1.506,3.012-0.753,6.776,2.259,9.035
		c2.259,2.259,6.024,2.259,9.035,0.753l70.776-43.671h23.341v21.082c0,4.518,3.012,7.529,7.529,7.529h125.741
		c4.518,0,7.529-3.012,7.529-7.529v-92.612C455.471,177.141,452.459,174.129,447.941,174.129z M289.071,237.376
		c-1.506,0-3.012,0.753-3.765,1.506l-51.953,32.376l9.788-23.341c0.753-2.259,0.753-5.271-0.753-6.776
		c-1.506-1.506-3.765-3.765-6.024-3.765h-20.329v-73.788h156.612v73.788H289.071z M440.412,265.988H328.976v-13.553h51.2
		c4.518,0,7.529-3.012,7.529-7.529v-55.718h52.706V265.988z"/>
</g>
</svg>
