<?xml version="1.0" encoding="iso-8859-1"?>
<!-- Generator: Adobe Illustrator 20.1.0, SVG Export Plug-In . SVG Version: 6.00 Build 0)  -->
<svg version="1.1" id="Layer_1" xmlns="http://www.w3.org/2000/svg" xmlns:xlink="http://www.w3.org/1999/xlink" x="0px" y="0px"
	 viewBox="-48.971 226.253 511.971 341.521" style="enable-background:new -48.971 226.253 511.971 341.521;" xml:space="preserve">
<g>
	<path d="M395.8,376.52c-58.987-56.32-138.347-64-167.467-64.747v-74.667c0-5.867-4.8-10.667-10.667-10.667
		c-2.453,0-4.907,0.853-6.827,2.453L29.507,378.227c-4.587,3.733-5.227,10.453-1.493,15.04c0.427,0.533,0.96,0.96,1.493,1.493
		L210.84,544.093c4.587,3.733,11.307,3.093,15.04-1.493c1.6-1.92,2.453-4.267,2.453-6.827v-77.44
		c29.76-8.107,143.893-28.693,214.613,103.787c1.813,3.52,5.44,5.653,9.387,5.653c3.413,0,6.72-1.6,8.853-4.693
		c1.28-1.813,1.813-4.053,1.813-6.293C462.893,479.667,440.28,419.08,395.8,376.52z M275.16,431.56
		c-35.52,0-60.48,8.533-61.12,8.853c-4.267,1.493-7.04,5.547-7.04,10.027v62.72L53.08,386.44L207,259.72v62.72
		c0,2.88,1.173,5.653,3.307,7.68c2.133,2.027,4.907,3.093,7.893,2.987c0.96,0,97.813-3.52,163.093,58.987
		c32.107,30.72,51.52,72.32,58.027,124.16C387.693,446.707,322.2,431.56,275.16,431.56z"/>
	<path d="M-21.587,386.44l171.413-141.12c4.693-3.627,5.547-10.347,1.92-14.933s-10.347-5.547-14.933-1.92
		c-0.213,0.107-0.32,0.32-0.533,0.427L-45.053,378.227c-4.587,3.733-5.227,10.453-1.493,15.04c0.427,0.533,0.96,0.96,1.493,1.493
		L136.28,544.093c4.48,3.84,11.2,3.413,15.04-0.96c3.84-4.48,3.413-11.2-0.96-15.04c-0.213-0.107-0.32-0.32-0.533-0.427
		L-21.587,386.44z"/>
</g>
</svg>
