<?xml version="1.0" encoding="iso-8859-1"?>
<!-- Generator: Adobe Illustrator 20.1.0, SVG Export Plug-In . SVG Version: 6.00 Build 0)  -->
<svg version="1.1" id="&#x421;&#x43B;&#x43E;&#x439;_1"
	 xmlns="http://www.w3.org/2000/svg" xmlns:xlink="http://www.w3.org/1999/xlink" x="0px" y="0px" viewBox="0 0 48.288 60.906"
	 style="enable-background:new 0 0 48.288 60.906;" xml:space="preserve">
<path d="M16.655,20.574c2.176,1.543,4.637,2.36,7.117,2.36c3.25,0,6.454-1.368,9.016-3.852
	c0.688-0.664,1.402-1.441,1.594-1.672c0.082-0.094,0.156-0.203,0.219-0.328c2.46-4.648,2.05-9.453-1.125-13.187
	C32.718,3.004,32.05,2.25,31.808,2.02c-0.121-0.118-0.266-0.219-0.434-0.305C29.159,0.574,26.913,0,24.706,0
	c-3.031,0-5.965,1.074-8.707,3.199c-0.121,0.09-0.223,0.188-0.301,0.293c-0.199,0.254-0.832,1.121-1.398,1.953
	C10.655,10.789,11.624,17.012,16.655,20.574L16.655,20.574z M18.136,6.059C18.19,6,18.237,5.941,18.28,5.883
	c0.227-0.317,1.078-1.031,2.024-1.504c2.129-1.07,4.511-1.301,6.883-0.668c1.117,0.297,2.66,1.25,3.441,2.125
	c2.012,2.254,2.648,4.879,1.84,7.59c-0.289,0.957-0.781,1.91-0.985,2.121c-1.836,2.465-4.418,3.809-7.296,3.809
	c-3.516,0-6.848-2.047-8.11-4.977C15.397,12.801,14.765,9.621,18.136,6.059L18.136,6.059z M18.136,6.059"/>
<path d="M47.874,38.84c-0.008-0.336-0.02-0.672-0.027-1.004c-0.004-0.133-0.008-0.27-0.012-0.402
	c-0.004-0.133-0.012-0.266-0.016-0.399c-0.015-0.441-0.031-0.886-0.054-1.328c-0.008-0.133-0.024-0.266-0.032-0.398
	c-0.007-0.133-0.019-0.27-0.027-0.403c-0.023-0.34-0.043-0.679-0.078-1.019c-0.012-0.129-0.031-0.258-0.043-0.387
	c-0.066-0.625-0.152-1.262-0.293-1.887c-0.035-0.156-0.082-0.308-0.125-0.461c-0.109-0.398-0.242-0.789-0.41-1.164
	c-0.215-0.476-0.485-0.925-0.824-1.332c-0.192-0.222-0.426-0.437-0.676-0.64c-0.129-0.106-0.262-0.211-0.403-0.313
	c-0.128-0.09-0.265-0.176-0.402-0.258c-0.285-0.175-0.586-0.336-0.898-0.48c-0.496-0.227-1.008-0.406-1.512-0.527
	c-0.371-0.094-0.734-0.161-1.074-0.184c-0.442-0.031-0.887-0.043-1.332-0.051c-0.133,0-0.262-0.008-0.395-0.008
	c-0.137,0-0.269,0.004-0.406,0.004c-0.496,0.004-0.992,0.008-1.488,0.02l-0.399,0.012l-0.402,0.007
	c-0.66,0.016-1.32,0.028-1.977,0.024c-1.148-0.012-2.297-0.024-3.445-0.035c-1.141-0.016-2.277-0.028-3.414-0.036
	c-4.578-0.042-9.156-0.039-13.731,0.165c-2.566,0.117-5.132,0.296-7.687,0.566c-0.195-0.023-0.41-0.008-0.641,0.062
	c-2.222,0.68-4.109,2.207-5.074,4.344c-0.086,0.196-0.144,0.403-0.168,0.606c-0.101,0.195-0.168,0.425-0.172,0.695
	c-0.144,7.43-0.453,14.852,0,22.277c0.039,0.641,0.387,1.071,0.836,1.301C1.304,56.426,1.62,56.57,2.03,56.57
	c2.938,0,5.879-0.011,8.817-0.148c0.007,0.984,0.011,1.902,0.011,2.691c0,0.274,0.063,0.508,0.164,0.707
	c0.176,0.504,0.614,0.907,1.309,0.907c8.309,0.007,16.621,0.172,24.934,0.179c1.3,0.004,1.691-1.402,1.175-2.254
	c0-0.328-0.003-0.675-0.011-1.035c2.382-0.125,4.765-0.14,7.148-0.144c0.375,0,0.672-0.121,0.899-0.309
	c0.855,0.125,1.816-0.363,1.812-1.48c-0.008-4.868-0.203-9.715-0.355-14.575C47.905,40.352,47.89,39.598,47.874,38.84L47.874,38.84z
	 M38.366,54.727c-0.121-4.856-0.367-10.946-0.57-14.586c-0.113-1.992-3.223-2.004-3.109,0c0.253,4.527,0.574,12.847,0.64,17.867
	c-7.125-0.027-14.246-0.141-21.367-0.164c-0.023-5-0.117-13.043-0.125-17.445c-0.004-2.004-3.113-2.004-3.109,0
	c0.007,3.277,0.062,8.574,0.097,13.132c-2.512,0.114-5.023,0.141-7.539,0.145c-0.351-6.977-0.082-13.957,0.059-20.938
	c0.633-1.304,1.633-2.257,3.023-2.714c4.406-0.465,8.84-0.657,13.27-0.719c2.797-0.043,5.593-0.028,8.39-0.004
	c1.649,0.015,3.301,0.035,4.95,0.051c1.199,0.011,2.398,0.004,3.597-0.008h0.395l0.402-0.004c0.438,0,0.875-0.008,1.313-0.008
	c0.058,0,0.117,0,0.175,0c0.137,0,0.27,0,0.407,0c0.132,0,0.265,0,0.394,0c0.586,0.008,1.18,0.043,1.742,0.164
	c0.657,0.145,1.274,0.403,1.789,0.906c0.274,0.266,0.481,0.547,0.649,0.84c0.098,0.172,0.18,0.344,0.25,0.524
	c0.047,0.129,0.09,0.258,0.125,0.39c0.035,0.133,0.066,0.266,0.094,0.403c0.062,0.336,0.101,0.691,0.121,1.066
	c0.008,0.082,0.011,0.164,0.015,0.246c0.008,0.133,0.02,0.266,0.028,0.399c0.007,0.136,0.015,0.269,0.023,0.406
	c0.004,0.07,0.008,0.14,0.016,0.211c0.039,0.637,0.074,1.273,0.117,1.91c0.035,0.602,0.074,1.203,0.105,1.809
	c0,0.015,0.004,0.031,0.004,0.05c0.164,3.387,0.274,6.774,0.356,10.164c0.047,1.918,0.066,3.84,0.074,5.762
	C42.897,54.586,40.632,54.609,38.366,54.727L38.366,54.727z M38.366,54.727"/>
</svg>
