<?xml version="1.0" encoding="iso-8859-1"?>
<!-- Generator: Adobe Illustrator 20.1.0, SVG Export Plug-In . SVG Version: 6.00 Build 0)  -->
<svg version="1.1" id="&#x421;&#x43B;&#x43E;&#x439;_1"
	 xmlns="http://www.w3.org/2000/svg" xmlns:xlink="http://www.w3.org/1999/xlink" x="0px" y="0px" viewBox="0 0 363.359 391.84"
	 style="enable-background:new 0 0 363.359 391.84;" xml:space="preserve">
<g>
	<path  d="M355.441,97.039H234.16V7.922c0-4.402-3.519-7.922-7.922-7.922H7.922C3.52,0,0,3.52,0,7.922v376
		c0,4.398,3.52,7.918,7.922,7.918h347.519c4.399,0,7.918-3.52,7.918-7.918V104.961C363.359,100.559,359.84,97.039,355.441,97.039
		L355.441,97.039z M218.32,104.961v271.117H15.84V15.84h202.48V104.961z M347.52,376H234.16V112.801h113.36V376z M347.52,376"/>
	<path  d="M265.039,153.039h51.602c4.398,0,7.918-3.519,7.918-7.918c0-4.402-3.52-7.922-7.918-7.922h-51.602
		c-4.398,0-7.918,3.52-7.918,7.922C257.121,149.441,260.641,153.039,265.039,153.039L265.039,153.039z M265.039,153.039"/>
	<path  d="M265.039,192.801h51.602c4.398,0,7.918-3.52,7.918-7.922c0-4.399-3.52-7.918-7.918-7.918h-51.602
		c-4.398,0-7.918,3.519-7.918,7.918C257.121,189.281,260.641,192.801,265.039,192.801L265.039,192.801z M265.039,192.801"/>
	<path  d="M265.039,232.48h51.602c4.398,0,7.918-3.519,7.918-7.921c0-4.399-3.52-7.918-7.918-7.918h-51.602
		c-4.398,0-7.918,3.519-7.918,7.918C257.121,228.961,260.641,232.48,265.039,232.48L265.039,232.48z M265.039,232.48"/>
	<path  d="M265.039,272.238h51.602c4.398,0,7.918-3.519,7.918-7.918c0-4.398-3.52-7.922-7.918-7.922h-51.602
		c-4.398,0-7.918,3.524-7.918,7.922C257.121,268.719,260.641,272.238,265.039,272.238L265.039,272.238z M265.039,272.238"/>
	<path  d="M265.039,311.922h51.602c4.398,0,7.918-3.524,7.918-7.922c0-4.398-3.52-7.922-7.918-7.922h-51.602
		c-4.398,0-7.918,3.524-7.918,7.922C257.121,308.32,260.641,311.922,265.039,311.922L265.039,311.922z M265.039,311.922"/>
	<path  d="M265.039,351.68h51.602c4.398,0,7.918-3.52,7.918-7.918c0-4.403-3.52-7.922-7.918-7.922h-51.602
		c-4.398,0-7.918,3.519-7.918,7.922C257.121,348.16,260.641,351.68,265.039,351.68L265.039,351.68z M265.039,351.68"/>
	<path  d="M52.559,77.602c4.402,0,7.921-3.524,7.921-7.922V52.16c0-4.398-3.519-7.922-7.921-7.922
		c-4.399,0-7.918,3.524-7.918,7.922v17.52C44.641,74.078,48.16,77.602,52.559,77.602L52.559,77.602z M52.559,77.602"/>
	<path  d="M95.602,77.602c4.398,0,7.918-3.524,7.918-7.922V52.16c0-4.398-3.52-7.922-7.918-7.922
		c-4.403,0-7.922,3.524-7.922,7.922v17.52C87.68,74.078,91.199,77.602,95.602,77.602L95.602,77.602z M95.602,77.602"/>
	<path  d="M138.559,77.602c4.402,0,7.921-3.524,7.921-7.922V52.16c0-4.398-3.519-7.922-7.921-7.922
		c-4.399,0-7.918,3.524-7.918,7.922v17.52C130.641,74.078,134.238,77.602,138.559,77.602L138.559,77.602z M138.559,77.602"/>
	<path  d="M181.602,77.602c4.398,0,7.918-3.524,7.918-7.922V52.16c0-4.398-3.52-7.922-7.918-7.922
		c-4.403,0-7.922,3.524-7.922,7.922v17.52C173.68,74.078,177.199,77.602,181.602,77.602L181.602,77.602z M181.602,77.602"/>
	<path  d="M52.559,131.84c4.402,0,7.921-3.52,7.921-7.918V106.32c0-4.398-3.519-7.922-7.921-7.922
		c-4.399,0-7.918,3.524-7.918,7.922v17.602C44.641,128.238,48.16,131.84,52.559,131.84L52.559,131.84z M52.559,131.84"/>
	<path  d="M95.602,131.84c4.398,0,7.918-3.52,7.918-7.918V106.32c0-4.398-3.52-7.922-7.918-7.922
		c-4.403,0-7.922,3.524-7.922,7.922v17.602C87.68,128.238,91.199,131.84,95.602,131.84L95.602,131.84z M95.602,131.84"/>
	<path  d="M138.559,131.84c4.402,0,7.921-3.52,7.921-7.918V106.32c0-4.398-3.519-7.922-7.921-7.922
		c-4.399,0-7.918,3.524-7.918,7.922v17.602C130.641,128.238,134.238,131.84,138.559,131.84L138.559,131.84z M138.559,131.84"/>
	<path  d="M181.602,131.84c4.398,0,7.918-3.52,7.918-7.918V106.32c0-4.398-3.52-7.922-7.918-7.922
		c-4.403,0-7.922,3.524-7.922,7.922v17.602C173.68,128.238,177.199,131.84,181.602,131.84L181.602,131.84z M181.602,131.84"/>
	<path  d="M52.559,186c4.402,0,7.921-3.52,7.921-7.922v-17.519c0-4.399-3.519-7.918-7.921-7.918
		c-4.399,0-7.918,3.519-7.918,7.918v17.519C44.641,182.48,48.16,186,52.559,186L52.559,186z M52.559,186"/>
	<path  d="M95.602,186c4.398,0,7.918-3.52,7.918-7.922v-17.519c0-4.399-3.52-7.918-7.918-7.918
		c-4.403,0-7.922,3.519-7.922,7.918v17.519C87.68,182.48,91.199,186,95.602,186L95.602,186z M95.602,186"/>
	<path  d="M138.559,186c4.402,0,7.921-3.52,7.921-7.922v-17.519c0-4.399-3.519-7.918-7.921-7.918
		c-4.399,0-7.918,3.519-7.918,7.918v17.519C130.641,182.48,134.238,186,138.559,186L138.559,186z M138.559,186"/>
	<path  d="M181.602,186c4.398,0,7.918-3.52,7.918-7.922v-17.519c0-4.399-3.52-7.918-7.918-7.918
		c-4.403,0-7.922,3.519-7.922,7.918v17.519C173.68,182.48,177.199,186,181.602,186L181.602,186z M181.602,186"/>
	<path  d="M52.559,240.238c4.402,0,7.921-3.519,7.921-7.918v-17.519c0-4.403-3.519-7.922-7.921-7.922
		c-4.399,0-7.918,3.519-7.918,7.922v17.519C44.641,236.641,48.16,240.238,52.559,240.238L52.559,240.238z M52.559,240.238"/>
	<path  d="M95.602,240.238c4.398,0,7.918-3.519,7.918-7.918v-17.519c0-4.403-3.52-7.922-7.918-7.922
		c-4.403,0-7.922,3.519-7.922,7.922v17.519C87.68,236.641,91.199,240.238,95.602,240.238L95.602,240.238z M95.602,240.238"/>
	<path  d="M138.559,240.238c4.402,0,7.921-3.519,7.921-7.918v-17.519c0-4.403-3.519-7.922-7.921-7.922
		c-4.399,0-7.918,3.519-7.918,7.922v17.519C130.641,236.641,134.238,240.238,138.559,240.238L138.559,240.238z M138.559,240.238"/>
	<path  d="M181.602,240.238c4.398,0,7.918-3.519,7.918-7.918v-17.519c0-4.403-3.52-7.922-7.918-7.922
		c-4.403,0-7.922,3.519-7.922,7.922v17.519C173.68,236.641,177.199,240.238,181.602,240.238L181.602,240.238z M181.602,240.238"/>
	<path  d="M52.559,294.398c4.402,0,7.921-3.519,7.921-7.918v-17.519c0-4.402-3.519-7.922-7.921-7.922
		c-4.399,0-7.918,3.52-7.918,7.922v17.519C44.641,290.879,48.16,294.398,52.559,294.398L52.559,294.398z M52.559,294.398"/>
	<path  d="M95.602,294.398c4.398,0,7.918-3.519,7.918-7.918v-17.519c0-4.402-3.52-7.922-7.918-7.922
		c-4.403,0-7.922,3.52-7.922,7.922v17.519C87.68,290.879,91.199,294.398,95.602,294.398L95.602,294.398z M95.602,294.398"/>
	<path  d="M138.559,294.398c4.402,0,7.921-3.519,7.921-7.918v-17.519c0-4.402-3.519-7.922-7.921-7.922
		c-4.399,0-7.918,3.52-7.918,7.922v17.519C130.641,290.879,134.238,294.398,138.559,294.398L138.559,294.398z M138.559,294.398"/>
	<path  d="M181.602,294.398c4.398,0,7.918-3.519,7.918-7.918v-17.519c0-4.402-3.52-7.922-7.918-7.922
		c-4.403,0-7.922,3.52-7.922,7.922v17.519C173.68,290.879,177.199,294.398,181.602,294.398L181.602,294.398z M181.602,294.398"/>
	<path  d="M52.559,348.641c4.402,0,7.921-3.52,7.921-7.922v-17.598c0-4.402-3.519-7.922-7.921-7.922
		c-4.399,0-7.918,3.52-7.918,7.922v17.598C44.641,345.039,48.16,348.641,52.559,348.641L52.559,348.641z M52.559,348.641"/>
	<path  d="M95.602,348.641c4.398,0,7.918-3.52,7.918-7.922v-17.598c0-4.402-3.52-7.922-7.918-7.922
		c-4.403,0-7.922,3.52-7.922,7.922v17.598C87.68,345.039,91.199,348.641,95.602,348.641L95.602,348.641z M95.602,348.641"/>
	<path  d="M138.559,348.641c4.402,0,7.921-3.52,7.921-7.922v-17.598c0-4.402-3.519-7.922-7.921-7.922
		c-4.399,0-7.918,3.52-7.918,7.922v17.598C130.641,345.039,134.238,348.641,138.559,348.641L138.559,348.641z M138.559,348.641"/>
	<path  d="M181.602,348.641c4.398,0,7.918-3.52,7.918-7.922v-17.598c0-4.402-3.52-7.922-7.918-7.922
		c-4.403,0-7.922,3.52-7.922,7.922v17.598C173.68,345.039,177.199,348.641,181.602,348.641L181.602,348.641z M181.602,348.641"/>
</g>
</svg>
