<?xml version="1.0" encoding="iso-8859-1"?>
<!-- Generator: Adobe Illustrator 20.1.0, SVG Export Plug-In . SVG Version: 6.00 Build 0)  -->
<svg version="1.1" id="&#x421;&#x43B;&#x43E;&#x439;_1"
	 xmlns="http://www.w3.org/2000/svg" xmlns:xlink="http://www.w3.org/1999/xlink" x="0px" y="0px" viewBox="0 0 391.84 388.238"
	 style="enable-background:new 0 0 391.84 388.238;" xml:space="preserve">
<g>
	<path  d="M383.922,0h-376C3.52,0,0,3.52,0,7.922c0,4.398,3.52,7.918,7.922,7.918h14.637v229.601
		c0,11.598,9.441,21.039,21.043,21.039H349.68c11.601,0,21.039-9.441,21.039-21.039V15.84h13.203c4.398,0,7.918-3.52,7.918-7.918
		C391.84,3.52,388.32,0,383.922,0L383.922,0z M354.879,245.441c0,2.879-2.32,5.2-5.199,5.2H43.602c-2.883,0-5.204-2.321-5.204-5.2
		V15.84h316.481V245.441z M354.879,245.441"/>
	<path  d="M208.398,318.801v-20.563H236c4.398,0,7.922-3.519,7.922-7.918c0-4.398-3.524-7.922-7.922-7.922
		h-72.16c-4.399,0-7.918,3.524-7.918,7.922c0,4.399,3.519,7.918,7.918,7.918h28.719v20.563l-55.918,55.918
		c-3.121,3.121-3.121,8.082,0,11.203c1.519,1.519,3.597,2.316,5.597,2.316c2,0,4.082-0.797,5.602-2.316l44.719-44.723v39.121
		c0,4.399,3.519,7.918,7.921,7.918c4.399,0,7.918-3.519,7.918-7.918v-39.121l44.481,44.481c1.519,1.519,3.601,2.32,5.601,2.32
		c2,0,4.079-0.801,5.598-2.32c3.121-3.121,3.121-8.078,0-11.2L208.398,318.801z M208.398,318.801"/>
	<path  d="M225.84,116.32h60.48c4.399,0,7.918-3.519,7.918-7.922c0-16.718-6.078-32.796-17.117-45.277
		C264.16,48.398,245.441,40,225.84,40c-4.399,0-7.918,3.52-7.918,7.922v60.476C217.922,112.801,221.441,116.32,225.84,116.32
		L225.84,116.32z M233.762,56.48c12.078,1.84,23.277,7.84,31.437,17.122c6.723,7.597,11.039,16.957,12.563,26.878h-44V56.48z
		 M233.762,56.48"/>
	<path  d="M191.762,226.398c46.797,0,84.957-38.078,84.957-84.957c0-4.402-3.52-7.921-7.918-7.921H199.68
		V64.48c0-4.402-3.52-7.921-7.918-7.921c-46.801,0-84.961,38.082-84.961,84.961C106.801,188.32,144.879,226.398,191.762,226.398
		L191.762,226.398z M183.762,72.801v68.64c0,4.399,3.519,7.918,7.918,7.918h68.64c-3.922,34.403-33.199,61.2-68.64,61.2
		c-38.078,0-69.121-30.957-69.121-69.118C122.641,106.078,149.441,76.801,183.762,72.801L183.762,72.801z M183.762,72.801"/>
</g>
</svg>
