<?xml version="1.0" encoding="iso-8859-1"?>
<!-- Generator: Adobe Illustrator 20.1.0, SVG Export Plug-In . SVG Version: 6.00 Build 0)  -->
<svg version="1.1" id="Capa_1" xmlns="http://www.w3.org/2000/svg" xmlns:xlink="http://www.w3.org/1999/xlink" x="0px" y="0px"
	 viewBox="-26 203.086 469 424.914" style="enable-background:new -26 203.086 469 424.914;" xml:space="preserve">
<path style="fill:#3A2C51;" d="M162.592,218.759c0-8.882-6.792-15.673-15.673-15.673s-15.673,6.792-15.673,15.673v20.898h31.347
	V218.759z"/>
<path style="fill:#6376E3;" d="M240.959,278.927V236h-78.367h-31.347H52.878v42.927H240.959z"/>
<path style="fill:#6376E3;" d="M285.367,610.682h125.388V375.58H285.367V610.682z"/>
<path style="fill:#7452AC;" d="M285.367,277.359h-44.408H52.878H8.469v333.322h75.755h125.388h75.755V375.58V277.359z"/>
<path style="fill:#34254D;" d="M209.612,525.522H84.224v85.159h125.388V525.522z"/>
<g>
	<g>
		<g>
			<rect x="321.355" y="435.661" style="fill:#FFD42B;" width="53.29" height="31.347"/>
		</g>
		<g>
			<rect x="321.355" y="493.131" style="fill:#FFD42B;" width="53.29" height="31.347"/>
		</g>
		<g>
			<rect x="321.355" y="550.6" style="fill:#FFD42B;" width="53.29" height="31.347"/>
		</g>
	</g>
</g>
<g>
	<g>
		<g>
			<rect x="45.868" y="329.167" style="fill:#FFD42B;" width="53.29" height="31.347"/>
		</g>
		<g>
			<rect x="45.868" y="386.636" style="fill:#FFD42B;" width="53.29" height="31.347"/>
		</g>
		<g>
			<rect x="45.868" y="444.105" style="fill:#FFD42B;" width="53.29" height="31.347"/>
		</g>
	</g>
</g>
<g>
	<g>
		<g>
			<rect x="119.364" y="330.666" style="fill:#FFD42B;" width="53.29" height="31.347"/>
		</g>
		<g>
			<rect x="119.364" y="388.136" style="fill:#FFD42B;" width="53.29" height="31.347"/>
		</g>
		<g>
			<rect x="119.364" y="445.605" style="fill:#FFD42B;" width="53.29" height="31.347"/>
		</g>
	</g>
</g>
<g>
	<g>
		<g>
			<rect x="194.361" y="332.166" style="fill:#FFD42B;" width="53.29" height="31.347"/>
		</g>
		<g>
			<rect x="194.361" y="389.636" style="fill:#FFD42B;" width="53.29" height="31.347"/>
		</g>
		<g>
			<rect x="194.361" y="447.105" style="fill:#FFD42B;" width="53.29" height="31.347"/>
		</g>
	</g>
</g>
<rect x="-26" y="611" style="fill:#34254D;" width="469" height="17"/>
</svg>
