<?xml version="1.0" encoding="iso-8859-1"?>
<!-- Generator: Adobe Illustrator 20.1.0, SVG Export Plug-In . SVG Version: 6.00 Build 0)  -->
<svg version="1.1" id="&#x421;&#x43B;&#x43E;&#x439;_1"
	 xmlns="http://www.w3.org/2000/svg" xmlns:xlink="http://www.w3.org/1999/xlink" x="0px" y="0px" viewBox="0 0 67 22.854"
	 style="enable-background:new 0 0 67 22.854;" xml:space="preserve">
<path  d="M65.576,11.827H1.42C1.19,11.827,1,11.647,1,11.426
	c0-0.22,0.19-0.399,0.42-0.399h64.155c0.235,0,0.425,0.18,0.425,0.399C66,11.647,65.811,11.827,65.576,11.827L65.576,11.827z
	 M65.576,11.827"/>
<path  d="M55.571,21.854c-0.105,0-0.207-0.039-0.285-0.117
	c-0.156-0.154-0.156-0.408,0-0.564l9.746-9.746l-9.746-9.744c-0.156-0.155-0.156-0.41,0-0.565c0.156-0.155,0.41-0.155,0.566,0
	l10.031,10.026c0.074,0.076,0.113,0.177,0.113,0.283c0,0.104-0.039,0.207-0.113,0.285L55.852,21.737
	C55.774,21.815,55.672,21.854,55.571,21.854L55.571,21.854z M55.571,21.854"/>
</svg>
