<?xml version="1.0" encoding="iso-8859-1"?>
<!-- Generator: Adobe Illustrator 20.1.0, SVG Export Plug-In . SVG Version: 6.00 Build 0)  -->
<svg version="1.1" id="&#x421;&#x43B;&#x43E;&#x439;_1"
	 xmlns="http://www.w3.org/2000/svg" xmlns:xlink="http://www.w3.org/1999/xlink" x="0px" y="0px" viewBox="0 0 67 22.854"
	 style="enable-background:new 0 0 67 22.854;" xml:space="preserve">
<!-- <path style="stroke-width:2;stroke-miterlimit:10;" d="M1.425,11.827C1.19,11.827,1,11.647,1,11.426
	c0-0.22,0.19-0.399,0.425-0.399H65.58c0.231,0,0.42,0.18,0.42,0.399c0,0.221-0.19,0.401-0.42,0.401H1.425L1.425,11.827z
	 M1.425,11.827"/> -->
<path  d="M65.576,11.827H1.42C1.19,11.827,1,11.647,1,11.426
	c0-0.22,0.19-0.399,0.42-0.399h64.155c0.235,0,0.425,0.18,0.425,0.399C66,11.647,65.811,11.827,65.576,11.827L65.576,11.827z
	 M65.576,11.827"/>
<path style="stroke-width:2;stroke-miterlimit:10;" d="M11.43,21.854c-0.101,0-0.203-0.039-0.281-0.117L1.117,11.711
	c-0.074-0.078-0.113-0.181-0.113-0.285c0-0.106,0.039-0.207,0.113-0.283L11.148,1.116c0.156-0.155,0.41-0.155,0.566,0
	c0.156,0.155,0.156,0.41,0,0.565l-9.746,9.744l9.746,9.746c0.156,0.156,0.156,0.41,0,0.564
	C11.637,21.815,11.535,21.854,11.43,21.854L11.43,21.854z M11.43,21.854"/>
</svg>
