<?xml version="1.0" encoding="iso-8859-1"?>
<!-- Generator: Adobe Illustrator 20.1.0, SVG Export Plug-In . SVG Version: 6.00 Build 0)  -->
<svg version="1.1" id="&#x421;&#x43B;&#x43E;&#x439;_1"
	 xmlns="http://www.w3.org/2000/svg" xmlns:xlink="http://www.w3.org/1999/xlink" x="0px" y="0px" viewBox="0 0 511.949 511.001"
	 style="enable-background:new 0 0 511.949 511.001;" xml:space="preserve">
<path style="fill:#FFD42B;" d="M436.105,150.691H196.598c-41.317,0-74.848,33.532-74.848,74.844V375.23
	c0,41.313,33.531,74.848,74.848,74.848h145.199l85.926,58.477c4.789,2.992,10.773,3.293,15.566,0.597
	c4.793-2.695,7.785-7.781,7.785-13.168v-47.406c34.129-6.887,60.875-37.125,60.875-73.348V225.535
	C511.949,184.223,477.418,150.691,436.105,150.691L436.105,150.691z M436.105,150.691"/>
<path style="fill:#FFB234;" d="M511.949,225.535V375.23c0,36.223-26.746,66.461-60.875,73.348v47.406
	c0,5.387-2.992,10.473-7.785,13.168c-4.789,2.696-10.777,2.399-15.566-0.597l-85.926-58.477h-25.445V150.691h119.753
	C477.418,150.691,511.949,184.223,511.949,225.535L511.949,225.535z M511.949,225.535"/>
<rect style="fill:none;" width="511" height="511"/>
<path style="fill:#6376E3;" d="M316.352,0H76.84C35.527,0,0.996,33.531,0.996,74.848v150.687c0,36.227,26.746,66.465,60.875,73.352
	v46.402c0,5.391,2.992,10.481,7.785,13.172c4.789,2.695,10.782,2.394,15.571-0.598l85.921-57.48h145.204
	c41.312,0,74.843-33.531,74.843-74.848V74.848C391.195,33.531,357.664,0,316.352,0L316.352,0z M316.352,0"/>
<path style="fill:#7452AC;" d="M391.195,74.848v150.687c0,41.317-33.531,74.848-74.843,74.848H196.598V0h119.754
	C357.664,0,391.195,33.531,391.195,74.848L391.195,74.848z M391.195,74.848"/>
<path style="fill:#E2E2E7;" d="M241.504,89.816c0,8.383-6.586,14.969-14.969,14.969H106.781c-8.383,0-14.969-6.586-14.969-14.969
	c0-8.386,6.586-14.968,14.969-14.968h119.754C234.918,74.848,241.504,81.43,241.504,89.816L241.504,89.816z M241.504,89.816"/>
<path style="fill:#E2E2E7;" d="M241.504,150.691c0,8.379-6.586,14.969-14.969,14.969H106.781c-8.383,0-14.969-6.59-14.969-14.969
	c0-8.382,6.586-14.968,14.969-14.968h119.754C234.918,135.723,241.504,142.309,241.504,150.691L241.504,150.691z M241.504,150.691"
	/>
<path style="fill:#E2E2E7;" d="M301.379,210.57c0,8.379-6.586,14.965-14.965,14.965H106.781c-8.383,0-14.969-6.586-14.969-14.965
	c0-8.386,6.586-14.972,14.969-14.972h179.633C294.793,195.598,301.379,202.184,301.379,210.57L301.379,210.57z M301.379,210.57"/>
<path style="fill:#D3D3D8;" d="M301.379,89.816c0,8.266-6.703,14.969-14.965,14.969c-8.269,0-14.973-6.703-14.973-14.969
	c0-8.269,6.704-14.968,14.973-14.968C294.676,74.848,301.379,81.547,301.379,89.816L301.379,89.816z M301.379,89.816"/>
<path style="fill:#D3D3D8;" d="M301.379,150.691c0,8.266-6.703,14.969-14.965,14.969c-8.269,0-14.973-6.703-14.973-14.969
	c0-8.265,6.704-14.968,14.973-14.968C294.676,135.723,301.379,142.426,301.379,150.691L301.379,150.691z M301.379,150.691"/>
<path style="fill:#FFFFFF;" d="M421.133,360.262c0,8.379-6.586,14.968-14.965,14.968H226.535c-8.383,0-14.969-6.589-14.969-14.968
	c0-8.383,6.586-14.973,14.969-14.973h179.633C414.547,345.289,421.133,351.879,421.133,360.262L421.133,360.262z M421.133,360.262"
	/>
<path style="fill:#D3D3D8;" d="M226.535,165.66h-29.937v-29.937h29.937c8.383,0,14.969,6.586,14.969,14.968
	C241.504,159.07,234.918,165.66,226.535,165.66L226.535,165.66z M226.535,165.66"/>
<path style="fill:#D3D3D8;" d="M226.535,104.785h-29.937V74.848h29.937c8.383,0,14.969,6.582,14.969,14.968
	C241.504,98.199,234.918,104.785,226.535,104.785L226.535,104.785z M226.535,104.785"/>
<path style="fill:#D3D3D8;" d="M301.379,210.57c0,8.379-6.586,14.965-14.965,14.965h-89.816v-29.937h89.816
	C294.793,195.598,301.379,202.184,301.379,210.57L301.379,210.57z M301.379,210.57"/>
<path style="fill:#EFEFEF;" d="M421.133,360.262c0,8.379-6.586,14.968-14.965,14.968h-89.816v-29.941h89.816
	C414.547,345.289,421.133,351.879,421.133,360.262L421.133,360.262z M421.133,360.262"/>
</svg>
