<?xml version="1.0" encoding="iso-8859-1"?>
<!-- Generator: Adobe Illustrator 20.1.0, SVG Export Plug-In . SVG Version: 6.00 Build 0)  -->
<svg version="1.1" id="&#x421;&#x43B;&#x43E;&#x439;_1"
	 xmlns="http://www.w3.org/2000/svg" xmlns:xlink="http://www.w3.org/1999/xlink" x="0px" y="0px" viewBox="0 0 27.976 21.314"
	 style="enable-background:new 0 0 27.976 21.314;" xml:space="preserve">
<g>
	<g>
		<defs>
			<rect id="SVGID_1_" width="27.976" height="21.314"/>
		</defs>
		<clipPath id="SVGID_2_">
			<use xlink:href="#SVGID_1_"  style="overflow:visible;"/>
		</clipPath>
		<path style="clip-path:url(#SVGID_2_);" d="M0.317,11.724C0.104,11.511,0,11.188,0,10.975c0-0.214,0.104-0.531,0.317-0.743
			l1.494-1.493c0.427-0.43,1.067-0.43,1.493,0l0.105,0.109l5.864,6.285c0.213,0.213,0.531,0.213,0.744,0L24.296,0.315h0.109
			c0.427-0.42,1.067-0.42,1.494,0l1.488,1.494c0.427,0.429,0.427,1.067,0,1.493L10.34,20.997c-0.213,0.213-0.427,0.317-0.749,0.317
			c-0.318,0-0.531-0.104-0.744-0.317l-8.316-8.956L0.317,11.724z M0.317,11.724"/>
	</g>
</g>
</svg>
