<?xml version="1.0" encoding="iso-8859-1"?>
<!-- Generator: Adobe Illustrator 20.1.0, SVG Export Plug-In . SVG Version: 6.00 Build 0)  -->
<svg version="1.1" id="&#x421;&#x43B;&#x43E;&#x439;_1"
	 xmlns="http://www.w3.org/2000/svg" xmlns:xlink="http://www.w3.org/1999/xlink" x="0px" y="0px" viewBox="0 0 512 512"
	 style="enable-background:new 0 0 512 512;" xml:space="preserve">
<path style="fill:#6376E3;" d="M77.109,401.664H55.164C24.746,401.664,0,426.414,0,456.832V497c0,8.285,6.715,15,15,15h64.691
	c-1.668-4.695-2.582-9.742-2.582-15V401.664z M77.109,401.664"/>
<path style="fill:#6376E3;" d="M184.219,321.332h-21.942c-30.418,0-55.168,24.75-55.168,55.168V497c0,8.285,6.715,15,15,15h64.692
	c-1.664-4.695-2.582-9.742-2.582-15V321.332z M184.219,321.332"/>
<path style="fill:#7452AC;" d="M509.055,150.672L401.941,6.07c-2.832-3.816-7.3-6.07-12.054-6.07c-4.754,0-9.227,2.254-12.055,6.07
	L270.723,150.672c-3.371,4.551-3.891,10.617-1.344,15.676c2.551,5.058,7.73,8.254,13.398,8.254h38.555V497c0,8.285,6.715,15,15,15
	h107.109c8.286,0,15-6.715,15-15V174.602H497c5.664,0,10.848-3.196,13.395-8.254C512.945,161.289,512.426,155.223,509.055,150.672
	L509.055,150.672z M509.055,150.672"/>
<rect style="fill:none;" width="512" height="512"/>
<path style="fill:#6376E3;" d="M291.332,241h-21.945c-30.418,0-55.168,24.746-55.168,55.164V497c0,8.285,6.719,15,15,15h64.691
	c-1.664-4.695-2.578-9.742-2.578-15V241z M291.332,241"/>
</svg>
