<?xml version="1.0" encoding="iso-8859-1"?>
<!-- Generator: Adobe Illustrator 20.1.0, SVG Export Plug-In . SVG Version: 6.00 Build 0)  -->
<svg version="1.1" id="&#x421;&#x43B;&#x43E;&#x439;_1"
	 xmlns="http://www.w3.org/2000/svg" xmlns:xlink="http://www.w3.org/1999/xlink" x="0px" y="0px" viewBox="0 0 234.348 175.157"
	 style="enable-background:new 0 0 234.348 175.157;" xml:space="preserve">
<path style="fill:#7452AC;" d="M64.41,129.763l0.11-0.25c1.847-4.004,5.218-7.051,10.027-9.063l15.242-7.019l0.809-0.68
	c-0.582-0.668-1.149-1.352-1.7-2.062c-6.89-8.954-10.675-20.844-10.992-34.422l-2.113-0.965l-7.855-6.633L55.312,81.231h-1.468
	L41.219,68.669l-7.856,6.633l-16.355,7.531c-2.418,0.996-4.797,2.5-6.008,5.121c0,0-17.777,42.32-8.133,42.32h61.328
	C64.316,129.993,64.391,129.814,64.41,129.763L64.41,129.763z M64.41,129.763"/>
<path style="fill:#392C51;" d="M25.086,28.988c0.285,26.141,14.891,41.715,29.492,41.715c12.477,0,29.211-15.574,29.496-41.715
	C84.254,10.856,75.617,0,54.578,0S24.902,10.856,25.086,28.988L25.086,28.988z M25.086,28.988"/>
<path style="fill:#7452AC;" d="M169.938,129.763c0.019,0.051,0.094,0.23,0.215,0.511h61.328c9.644,0-8.133-42.32-8.133-42.32
	c-1.211-2.621-3.59-4.125-6.008-5.121l-16.355-7.531l-7.856-6.633l-12.625,12.562h-1.468L166.41,68.669l-7.855,6.633l-2.113,0.965
	c-0.317,13.578-4.102,25.468-10.992,34.422c-0.551,0.71-1.118,1.394-1.7,2.062l0.809,0.68l15.242,7.019
	c4.809,2.012,8.18,5.059,10.027,9.063L169.938,129.763L169.938,129.763z M169.938,129.763"/>
<path style="fill:#392C51;" d="M209.262,28.988C209.446,10.856,200.809,0,179.77,0s-29.676,10.856-29.496,28.988
	c0.285,26.141,17.019,41.715,29.496,41.715C194.371,70.703,208.977,55.129,209.262,28.988L209.262,28.988z M209.262,28.988"/>
<path style="fill:#6376E3;" d="M155.109,127.708l-16.351-7.531l-7.86-6.621l-12.625,12.554h-1.468l-12.625-12.554l-7.856,6.621
	l-16.355,7.531c-2.422,0.988-4.797,2.496-6.008,5.125c0,0-17.777,42.324-8.133,42.324h103.426c9.641,0-8.137-42.324-8.137-42.324
	C160.062,130.31,157.531,128.696,155.109,127.708L155.109,127.708z M155.109,127.708"/>
<path style="fill:#392C51;" d="M117.539,44.883c-21.039,0-29.676,10.848-29.492,28.984c0.285,26.129,14.894,41.719,29.492,41.719
	c12.473,0,29.211-15.59,29.492-41.719C147.215,55.731,138.574,44.883,117.539,44.883L117.539,44.883z M117.539,44.883"/>
</svg>
